<svg width="24" height="27" viewBox="0 0 24 27" fill="none" xmlns="http://www.w3.org/2000/svg">
<mask id="path-1-inside-1_11_945" fill="white">
<path fill-rule="evenodd" clip-rule="evenodd" d="M18.7884 7.14571C19.2073 7.37458 19.6264 7.6036 20.0452 7.83303L19.7545 7.99219L19.7506 7.99431C19.3252 8.22719 18.8997 8.46008 18.4737 8.69297C17.9562 8.97579 17.4381 9.25926 16.9201 9.54273L16.9196 9.54298L16.9148 9.5456C16.3973 9.82874 15.8798 10.1119 15.363 10.3944C14.917 10.6383 14.4703 10.8828 14.0237 11.1274C13.5767 11.3721 13.1297 11.6168 12.6834 11.8609C12.6173 11.8971 12.551 11.9332 12.4847 11.9692C12.4037 12.013 12.3226 12.0567 12.2415 12.1003L12.2414 12.1004C12.1602 12.1441 12.0789 12.1878 11.9978 12.2316C11.8521 12.152 11.7065 12.0722 11.5608 11.9921C11.1338 11.7588 10.7074 11.5256 10.2811 11.2924C9.96481 11.1193 9.64854 10.9463 9.332 10.7733C9.4254 10.7221 9.51879 10.6709 9.61218 10.6198C10.039 10.3858 10.4659 10.1519 10.8934 9.91797C11.4113 9.63459 11.9298 9.35056 12.4483 9.06653C12.967 8.78238 13.4858 8.49823 14.0039 8.21473C14.45 7.97053 14.8966 7.72568 15.3433 7.48083C15.7902 7.23587 16.2371 6.99091 16.6834 6.74661C16.8336 6.66423 16.9847 6.5828 17.136 6.50133C17.2154 6.4585 17.295 6.41566 17.3744 6.37267C17.6165 6.50513 17.8586 6.63752 18.1006 6.76976L18.7882 7.1456L18.7884 7.14571ZM14.676 4.89674C14.3536 4.7204 14.0315 4.54405 13.7093 4.36771C13.2827 4.13416 12.8561 3.90061 12.4288 3.66706C12.2867 3.58986 12.1446 3.51225 12.0025 3.43455L11.7758 3.55736C11.6218 3.64071 11.4679 3.72401 11.3146 3.80797C10.6514 4.17254 9.98689 4.53567 9.32303 4.89843L9.32259 4.89868L8.63496 5.27451C8.11704 5.55759 7.59848 5.84132 7.07993 6.12505C6.56117 6.40889 6.04241 6.69273 5.52429 6.97591C5.0976 7.20914 4.67154 7.44237 4.24548 7.6756L4.24372 7.67656L3.95615 7.83398L4.3553 8.05249L4.55689 8.1628C5.00307 8.40694 5.44925 8.65107 5.8948 8.89456C6.1407 9.02887 6.38674 9.16333 6.63286 9.29787C6.70983 9.25621 6.78688 9.21469 6.86393 9.17318C7.01514 9.09171 7.16629 9.01027 7.31653 8.9279C7.76268 8.68365 8.20946 8.43875 8.65624 8.19385C9.10304 7.94894 9.54984 7.70403 9.99601 7.45977C10.5139 7.17639 11.0324 6.89236 11.5509 6.60833C12.0697 6.32418 12.5884 6.04003 13.1065 5.75654C13.5337 5.52278 13.9602 5.28902 14.3868 5.05526C14.4832 5.00242 14.5796 4.94958 14.676 4.89674ZM0.616276 6.70713C0.180622 6.94508 -0.0240772 7.4375 0.00217742 7.91459V9.00398V11.7967V15.1756V18.109C0.00217742 18.267 0.00161785 18.4251 0.00105828 18.5831C-6.10342e-05 18.8992 -0.00118023 19.2153 0.00217742 19.5314V19.5496C0.00217742 19.9925 0.23889 20.464 0.626695 20.675C0.804227 20.7714 0.981759 20.8685 1.15929 20.9655C1.33683 21.0626 1.51436 21.1596 1.6919 21.256C2.11614 21.4877 2.53976 21.7195 2.96337 21.9512L2.96367 21.9514L2.97115 21.9555L2.97816 21.9593L2.97846 21.9595C3.40223 22.1913 3.82601 22.4231 4.25041 22.655L5.04811 23.0905L5.0494 23.0912C5.81891 23.5112 6.58909 23.9317 7.35788 24.3535C7.80369 24.5971 8.25013 24.8408 8.69657 25.0844C9.14284 25.3279 9.58911 25.5715 10.0347 25.815C10.1674 25.8876 10.3 25.9606 10.4326 26.0338C10.7333 26.1994 11.0344 26.3653 11.3367 26.5262C11.3417 26.5288 11.3493 26.534 11.3543 26.5366C11.4138 26.569 11.4752 26.5973 11.5381 26.6213C11.6673 26.6747 11.8037 26.707 11.9347 26.7094C11.9565 26.7104 11.9783 26.7109 12.0001 26.7108C12.1084 26.7114 12.217 26.6975 12.3238 26.6669L12.3329 26.6642C12.4399 26.635 12.5448 26.5925 12.6457 26.5377C12.8227 26.4416 12.9997 26.3448 13.1767 26.248L13.1782 26.2472C13.3558 26.1501 13.5333 26.053 13.7109 25.9566C14.1353 25.7247 14.5591 25.4927 14.9829 25.2608L14.9899 25.257C15.4162 25.0237 15.8425 24.7904 16.2694 24.5572L17.0669 24.1216L17.0675 24.1213L17.0681 24.1209C17.8377 23.7007 18.608 23.2801 19.3769 22.8581C19.8226 22.6144 20.269 22.3708 20.7153 22.1271C21.1617 21.8834 21.608 21.6398 22.0538 21.3961C22.2038 21.3139 22.3548 21.2327 22.5059 21.1514L22.5063 21.1512L22.5063 21.1512C22.7569 21.0164 23.0077 20.8815 23.2548 20.742C23.3951 20.6812 23.5242 20.5943 23.6302 20.4762C23.761 20.3288 23.8633 20.1623 23.9264 19.9797C23.9363 19.9514 23.945 19.9231 23.9525 19.8951L23.9533 19.892C23.9823 19.7842 23.9978 19.6713 23.9978 19.5537V18.3836V15.59V12.2101V9.27577C23.9978 9.11768 23.9984 8.95958 23.9989 8.80149C24 8.494 24.0011 8.18652 23.9981 7.87903C24.0056 7.74635 23.992 7.61306 23.9514 7.48477L23.9506 7.48232C23.9227 7.37137 23.8811 7.2668 23.8253 7.17684C23.8184 7.16566 23.8113 7.15462 23.8041 7.14372C23.7982 7.13388 23.7921 7.12412 23.7859 7.11444C23.6825 6.9452 23.5453 6.79908 23.3716 6.70452C23.1915 6.60674 23.0114 6.5083 22.8313 6.40986L22.8309 6.40965C22.6506 6.31114 22.4704 6.21263 22.2902 6.11477C21.8621 5.8815 21.4347 5.64757 21.0073 5.41364L21.006 5.41291C20.578 5.17868 20.1501 4.94444 19.7215 4.71086L16.5982 3.00424C16.1533 2.76026 15.7084 2.51693 15.2635 2.2736C14.8185 2.03025 14.3736 1.78691 13.9287 1.54292C13.7981 1.47138 13.6678 1.39912 13.5375 1.32687L13.5375 1.32684L13.5375 1.32683C13.2401 1.16189 12.9428 0.997009 12.643 0.840961C12.3809 0.702657 12.1212 0.63742 11.8263 0.679172C11.6524 0.702657 11.5011 0.757457 11.3423 0.843571L11.3056 0.863731C11.2708 0.882962 11.2367 0.901822 11.2011 0.919246C11.0902 0.979264 10.9793 1.03993 10.8684 1.1006C10.7575 1.16128 10.6466 1.22195 10.5357 1.28197C9.72647 1.72558 8.91477 2.1692 8.10559 2.61021C7.59097 2.89155 7.07572 3.17354 6.56047 3.45554L6.55797 3.45691C6.04178 3.73942 5.5256 4.02192 5.01004 4.30378C4.54371 4.5582 4.078 4.81327 3.6123 5.06834C3.14657 5.32343 2.68083 5.57851 2.21447 5.83295C1.70526 6.11217 1.19606 6.39138 0.686859 6.66799C0.675515 6.67451 0.663541 6.68104 0.651568 6.68756C0.639594 6.69409 0.62762 6.70061 0.616276 6.70713ZM2.52291 12.2083V10.0034L2.98212 10.2548C3.41001 10.489 3.83789 10.7232 4.2664 10.958C4.78698 11.2425 5.30755 11.5276 5.82812 11.8127L5.82875 11.813C6.34906 12.098 6.86937 12.3829 7.38968 12.6672C7.83461 12.9112 8.27953 13.1546 8.72445 13.3979C9.16937 13.6412 9.6143 13.8846 10.0592 14.1286C10.2021 14.2069 10.3447 14.286 10.4872 14.3652C10.5689 14.4105 10.6506 14.4559 10.7323 14.5011V14.8682V17.6583V21.0346V23.2519L10.2815 23.0053C9.85532 22.7722 9.42911 22.539 9.00228 22.3059L8.20465 21.8704L8.20308 21.8695C7.43364 21.4495 6.66353 21.0291 5.8948 20.6073C5.44877 20.3636 5.0021 20.1198 4.55544 19.8761C4.1094 19.6326 3.66335 19.3892 3.21794 19.1458C3.08072 19.0707 2.94375 18.9948 2.80672 18.9189L2.80603 18.9185L2.80487 18.9179L2.80408 18.9174C2.71043 18.8655 2.61674 18.8136 2.52291 18.7619V18.3799V15.5872V12.2083ZM13.2719 14.6701L13.2728 14.4897C13.3326 14.457 13.3924 14.4245 13.4522 14.3921C13.857 14.1702 14.2625 13.9483 14.6679 13.7263C15.0729 13.5047 15.4779 13.283 15.8823 13.0613C16.396 12.7804 16.9104 12.4989 17.4248 12.2174L17.4301 12.2145L17.44 12.209C17.9528 11.9284 18.4657 11.6477 18.9778 11.3677C19.4438 11.1135 19.909 10.8587 20.3743 10.6038L20.3758 10.603C20.7436 10.4016 21.1115 10.2001 21.4796 9.99896V11.7983V15.1783V18.1126C21.4796 18.2707 21.479 18.4288 21.4785 18.5869L21.4779 18.7645C21.3316 18.8445 21.1852 18.9244 21.0389 19.0038C20.6135 19.2363 20.1887 19.4687 19.764 19.7012L19.7601 19.7033C19.3338 19.9366 18.9074 20.1699 18.4804 20.4032L17.6829 20.8388C16.9129 21.2593 16.1422 21.6801 15.3729 22.1023C14.9273 22.3459 14.4811 22.5895 14.0349 22.8331L13.2702 23.2506V21.4535V18.0761V15.1444C13.2702 14.9863 13.2711 14.8282 13.2719 14.6701Z"/>
</mask>
<path fill-rule="evenodd" clip-rule="evenodd" d="M18.7884 7.14571C19.2073 7.37458 19.6264 7.6036 20.0452 7.83303L19.7545 7.99219L19.7506 7.99431C19.3252 8.22719 18.8997 8.46008 18.4737 8.69297C17.9562 8.97579 17.4381 9.25926 16.9201 9.54273L16.9196 9.54298L16.9148 9.5456C16.3973 9.82874 15.8798 10.1119 15.363 10.3944C14.917 10.6383 14.4703 10.8828 14.0237 11.1274C13.5767 11.3721 13.1297 11.6168 12.6834 11.8609C12.6173 11.8971 12.551 11.9332 12.4847 11.9692C12.4037 12.013 12.3226 12.0567 12.2415 12.1003L12.2414 12.1004C12.1602 12.1441 12.0789 12.1878 11.9978 12.2316C11.8521 12.152 11.7065 12.0722 11.5608 11.9921C11.1338 11.7588 10.7074 11.5256 10.2811 11.2924C9.96481 11.1193 9.64854 10.9463 9.332 10.7733C9.4254 10.7221 9.51879 10.6709 9.61218 10.6198C10.039 10.3858 10.4659 10.1519 10.8934 9.91797C11.4113 9.63459 11.9298 9.35056 12.4483 9.06653C12.967 8.78238 13.4858 8.49823 14.0039 8.21473C14.45 7.97053 14.8966 7.72568 15.3433 7.48083C15.7902 7.23587 16.2371 6.99091 16.6834 6.74661C16.8336 6.66423 16.9847 6.5828 17.136 6.50133C17.2154 6.4585 17.295 6.41566 17.3744 6.37267C17.6165 6.50513 17.8586 6.63752 18.1006 6.76976L18.7882 7.1456L18.7884 7.14571ZM14.676 4.89674C14.3536 4.7204 14.0315 4.54405 13.7093 4.36771C13.2827 4.13416 12.8561 3.90061 12.4288 3.66706C12.2867 3.58986 12.1446 3.51225 12.0025 3.43455L11.7758 3.55736C11.6218 3.64071 11.4679 3.72401 11.3146 3.80797C10.6514 4.17254 9.98689 4.53567 9.32303 4.89843L9.32259 4.89868L8.63496 5.27451C8.11704 5.55759 7.59848 5.84132 7.07993 6.12505C6.56117 6.40889 6.04241 6.69273 5.52429 6.97591C5.0976 7.20914 4.67154 7.44237 4.24548 7.6756L4.24372 7.67656L3.95615 7.83398L4.3553 8.05249L4.55689 8.1628C5.00307 8.40694 5.44925 8.65107 5.8948 8.89456C6.1407 9.02887 6.38674 9.16333 6.63286 9.29787C6.70983 9.25621 6.78688 9.21469 6.86393 9.17318C7.01514 9.09171 7.16629 9.01027 7.31653 8.9279C7.76268 8.68365 8.20946 8.43875 8.65624 8.19385C9.10304 7.94894 9.54984 7.70403 9.99601 7.45977C10.5139 7.17639 11.0324 6.89236 11.5509 6.60833C12.0697 6.32418 12.5884 6.04003 13.1065 5.75654C13.5337 5.52278 13.9602 5.28902 14.3868 5.05526C14.4832 5.00242 14.5796 4.94958 14.676 4.89674ZM0.616276 6.70713C0.180622 6.94508 -0.0240772 7.4375 0.00217742 7.91459V9.00398V11.7967V15.1756V18.109C0.00217742 18.267 0.00161785 18.4251 0.00105828 18.5831C-6.10342e-05 18.8992 -0.00118023 19.2153 0.00217742 19.5314V19.5496C0.00217742 19.9925 0.23889 20.464 0.626695 20.675C0.804227 20.7714 0.981759 20.8685 1.15929 20.9655C1.33683 21.0626 1.51436 21.1596 1.6919 21.256C2.11614 21.4877 2.53976 21.7195 2.96337 21.9512L2.96367 21.9514L2.97115 21.9555L2.97816 21.9593L2.97846 21.9595C3.40223 22.1913 3.82601 22.4231 4.25041 22.655L5.04811 23.0905L5.0494 23.0912C5.81891 23.5112 6.58909 23.9317 7.35788 24.3535C7.80369 24.5971 8.25013 24.8408 8.69657 25.0844C9.14284 25.3279 9.58911 25.5715 10.0347 25.815C10.1674 25.8876 10.3 25.9606 10.4326 26.0338C10.7333 26.1994 11.0344 26.3653 11.3367 26.5262C11.3417 26.5288 11.3493 26.534 11.3543 26.5366C11.4138 26.569 11.4752 26.5973 11.5381 26.6213C11.6673 26.6747 11.8037 26.707 11.9347 26.7094C11.9565 26.7104 11.9783 26.7109 12.0001 26.7108C12.1084 26.7114 12.217 26.6975 12.3238 26.6669L12.3329 26.6642C12.4399 26.635 12.5448 26.5925 12.6457 26.5377C12.8227 26.4416 12.9997 26.3448 13.1767 26.248L13.1782 26.2472C13.3558 26.1501 13.5333 26.053 13.7109 25.9566C14.1353 25.7247 14.5591 25.4927 14.9829 25.2608L14.9899 25.257C15.4162 25.0237 15.8425 24.7904 16.2694 24.5572L17.0669 24.1216L17.0675 24.1213L17.0681 24.1209C17.8377 23.7007 18.608 23.2801 19.3769 22.8581C19.8226 22.6144 20.269 22.3708 20.7153 22.1271C21.1617 21.8834 21.608 21.6398 22.0538 21.3961C22.2038 21.3139 22.3548 21.2327 22.5059 21.1514L22.5063 21.1512L22.5063 21.1512C22.7569 21.0164 23.0077 20.8815 23.2548 20.742C23.3951 20.6812 23.5242 20.5943 23.6302 20.4762C23.761 20.3288 23.8633 20.1623 23.9264 19.9797C23.9363 19.9514 23.945 19.9231 23.9525 19.8951L23.9533 19.892C23.9823 19.7842 23.9978 19.6713 23.9978 19.5537V18.3836V15.59V12.2101V9.27577C23.9978 9.11768 23.9984 8.95958 23.9989 8.80149C24 8.494 24.0011 8.18652 23.9981 7.87903C24.0056 7.74635 23.992 7.61306 23.9514 7.48477L23.9506 7.48232C23.9227 7.37137 23.8811 7.2668 23.8253 7.17684C23.8184 7.16566 23.8113 7.15462 23.8041 7.14372C23.7982 7.13388 23.7921 7.12412 23.7859 7.11444C23.6825 6.9452 23.5453 6.79908 23.3716 6.70452C23.1915 6.60674 23.0114 6.5083 22.8313 6.40986L22.8309 6.40965C22.6506 6.31114 22.4704 6.21263 22.2902 6.11477C21.8621 5.8815 21.4347 5.64757 21.0073 5.41364L21.006 5.41291C20.578 5.17868 20.1501 4.94444 19.7215 4.71086L16.5982 3.00424C16.1533 2.76026 15.7084 2.51693 15.2635 2.2736C14.8185 2.03025 14.3736 1.78691 13.9287 1.54292C13.7981 1.47138 13.6678 1.39912 13.5375 1.32687L13.5375 1.32684L13.5375 1.32683C13.2401 1.16189 12.9428 0.997009 12.643 0.840961C12.3809 0.702657 12.1212 0.63742 11.8263 0.679172C11.6524 0.702657 11.5011 0.757457 11.3423 0.843571L11.3056 0.863731C11.2708 0.882962 11.2367 0.901822 11.2011 0.919246C11.0902 0.979264 10.9793 1.03993 10.8684 1.1006C10.7575 1.16128 10.6466 1.22195 10.5357 1.28197C9.72647 1.72558 8.91477 2.1692 8.10559 2.61021C7.59097 2.89155 7.07572 3.17354 6.56047 3.45554L6.55797 3.45691C6.04178 3.73942 5.5256 4.02192 5.01004 4.30378C4.54371 4.5582 4.078 4.81327 3.6123 5.06834C3.14657 5.32343 2.68083 5.57851 2.21447 5.83295C1.70526 6.11217 1.19606 6.39138 0.686859 6.66799C0.675515 6.67451 0.663541 6.68104 0.651568 6.68756C0.639594 6.69409 0.62762 6.70061 0.616276 6.70713ZM2.52291 12.2083V10.0034L2.98212 10.2548C3.41001 10.489 3.83789 10.7232 4.2664 10.958C4.78698 11.2425 5.30755 11.5276 5.82812 11.8127L5.82875 11.813C6.34906 12.098 6.86937 12.3829 7.38968 12.6672C7.83461 12.9112 8.27953 13.1546 8.72445 13.3979C9.16937 13.6412 9.6143 13.8846 10.0592 14.1286C10.2021 14.2069 10.3447 14.286 10.4872 14.3652C10.5689 14.4105 10.6506 14.4559 10.7323 14.5011V14.8682V17.6583V21.0346V23.2519L10.2815 23.0053C9.85532 22.7722 9.42911 22.539 9.00228 22.3059L8.20465 21.8704L8.20308 21.8695C7.43364 21.4495 6.66353 21.0291 5.8948 20.6073C5.44877 20.3636 5.0021 20.1198 4.55544 19.8761C4.1094 19.6326 3.66335 19.3892 3.21794 19.1458C3.08072 19.0707 2.94375 18.9948 2.80672 18.9189L2.80603 18.9185L2.80487 18.9179L2.80408 18.9174C2.71043 18.8655 2.61674 18.8136 2.52291 18.7619V18.3799V15.5872V12.2083ZM13.2719 14.6701L13.2728 14.4897C13.3326 14.457 13.3924 14.4245 13.4522 14.3921C13.857 14.1702 14.2625 13.9483 14.6679 13.7263C15.0729 13.5047 15.4779 13.283 15.8823 13.0613C16.396 12.7804 16.9104 12.4989 17.4248 12.2174L17.4301 12.2145L17.44 12.209C17.9528 11.9284 18.4657 11.6477 18.9778 11.3677C19.4438 11.1135 19.909 10.8587 20.3743 10.6038L20.3758 10.603C20.7436 10.4016 21.1115 10.2001 21.4796 9.99896V11.7983V15.1783V18.1126C21.4796 18.2707 21.479 18.4288 21.4785 18.5869L21.4779 18.7645C21.3316 18.8445 21.1852 18.9244 21.0389 19.0038C20.6135 19.2363 20.1887 19.4687 19.764 19.7012L19.7601 19.7033C19.3338 19.9366 18.9074 20.1699 18.4804 20.4032L17.6829 20.8388C16.9129 21.2593 16.1422 21.6801 15.3729 22.1023C14.9273 22.3459 14.4811 22.5895 14.0349 22.8331L13.2702 23.2506V21.4535V18.0761V15.1444C13.2702 14.9863 13.2711 14.8282 13.2719 14.6701Z" fill="white"/>
<path d="M20.0452 7.83303L20.2853 8.27162L21.0863 7.83318L20.2854 7.39451L20.0452 7.83303ZM18.7884 7.14571L18.5479 7.58408L18.5487 7.58448L18.7884 7.14571ZM19.7545 7.99219L19.5144 7.5536L19.5144 7.55362L19.7545 7.99219ZM19.7506 7.99431L19.9907 8.43289L19.9907 8.43288L19.7506 7.99431ZM18.4737 8.69297L18.7135 9.13171L18.7135 9.1317L18.4737 8.69297ZM16.9201 9.54273L17.1589 9.98199L17.1601 9.98136L16.9201 9.54273ZM16.9196 9.54298L16.6807 9.10371L16.6796 9.10434L16.9196 9.54298ZM16.9148 9.5456L16.6748 9.10696L16.6748 9.10697L16.9148 9.5456ZM15.363 10.3944L15.1232 9.95562L15.1231 9.95567L15.363 10.3944ZM14.0237 11.1274L14.2638 11.5659V11.5659L14.0237 11.1274ZM12.6834 11.8609L12.4435 11.4222L12.4432 11.4224L12.6834 11.8609ZM12.4847 11.9692L12.7225 12.4091L12.7234 12.4086L12.4847 11.9692ZM12.2415 12.1003L12.4776 12.5411L12.4783 12.5407L12.2415 12.1003ZM12.2414 12.1004L12.0053 11.6596L12.0045 11.6601L12.2414 12.1004ZM11.9978 12.2316L11.758 12.6703L11.9965 12.8008L12.2357 12.6714L11.9978 12.2316ZM11.5608 11.9921L11.8018 11.554L11.8005 11.5533L11.5608 11.9921ZM10.2811 11.2924L10.5211 10.8537H10.5211L10.2811 11.2924ZM9.332 10.7733L9.09172 10.3348L8.29056 10.7738L9.09219 11.212L9.332 10.7733ZM9.61218 10.6198L9.37189 10.1813L9.37188 10.1813L9.61218 10.6198ZM10.8934 9.91797L10.6534 9.47934L10.6533 9.47935L10.8934 9.91797ZM12.4483 9.06653L12.6885 9.50505H12.6885L12.4483 9.06653ZM14.0039 8.21473L14.2439 8.65336L14.244 8.65331L14.0039 8.21473ZM15.3433 7.48083L15.5837 7.91928H15.5837L15.3433 7.48083ZM16.6834 6.74661L16.9235 7.18519L16.9238 7.18503L16.6834 6.74661ZM17.136 6.50133L16.8988 6.06116V6.06116L17.136 6.50133ZM17.3744 6.37267L17.6143 5.934L17.3756 5.80343L17.1363 5.93297L17.3744 6.37267ZM18.1006 6.76976L18.3404 6.33102L18.3404 6.33102L18.1006 6.76976ZM18.7882 7.1456L19.0287 6.70723L19.028 6.70686L18.7882 7.1456ZM14.676 4.89674L14.9163 5.33522L15.7172 4.89633L14.916 4.45807L14.676 4.89674ZM13.7093 4.36771L13.4693 4.8063L13.7093 4.36771ZM12.4288 3.66706L12.6686 3.22832L12.6675 3.22771L12.4288 3.66706ZM12.0025 3.43455L12.2424 2.99585L12.0036 2.86529L11.7643 2.99491L12.0025 3.43455ZM11.7758 3.55736L12.0138 3.99709L12.014 3.997L11.7758 3.55736ZM11.3146 3.80797L11.0744 3.36943L11.0737 3.36982L11.3146 3.80797ZM9.32303 4.89843L9.08327 4.45967L9.08272 4.45997L9.32303 4.89843ZM9.32259 4.89868L9.56239 5.33742L9.5629 5.33714L9.32259 4.89868ZM8.63496 5.27451L8.87476 5.71326L8.87477 5.71325L8.63496 5.27451ZM7.07993 6.12505L6.83993 5.68641L7.07993 6.12505ZM5.52429 6.97591L5.28449 6.53717L5.28447 6.53718L5.52429 6.97591ZM4.24548 7.6756L4.48541 8.11427L4.48557 8.11418L4.24548 7.6756ZM4.24372 7.67656L4.00379 7.23789L4.00363 7.23798L4.24372 7.67656ZM3.95615 7.83398L3.71607 7.39539L2.91488 7.83395L3.71605 8.27256L3.95615 7.83398ZM4.3553 8.05249L4.11519 8.49107L4.11529 8.49113L4.3553 8.05249ZM4.55689 8.1628L4.7969 7.72417L4.79689 7.72417L4.55689 8.1628ZM5.8948 8.89456L5.65503 9.33332L5.65512 9.33337L5.8948 8.89456ZM6.63286 9.29787L6.39303 9.7366L6.63168 9.86705L6.87086 9.73759L6.63286 9.29787ZM6.86393 9.17318L7.10109 9.61336L7.10109 9.61336L6.86393 9.17318ZM7.31653 8.9279L7.07643 8.48932L7.07614 8.48948L7.31653 8.9279ZM8.65624 8.19385L8.89658 8.6323V8.6323L8.65624 8.19385ZM9.99601 7.45977L9.756 7.02114L9.75591 7.02119L9.99601 7.45977ZM11.5509 6.60833L11.7911 7.04685L11.5509 6.60833ZM13.1065 5.75654L13.3465 6.19517L13.3465 6.19516L13.1065 5.75654ZM14.3868 5.05526L14.1465 4.61679L14.1465 4.61679L14.3868 5.05526ZM0.00217742 7.91459H0.502177V7.90084L0.501422 7.88711L0.00217742 7.91459ZM0.616276 6.70713L0.856003 7.14605L0.865553 7.14056L0.616276 6.70713ZM0.00105828 18.5831L0.501055 18.5849L0.00105828 18.5831ZM0.00217742 19.5314H0.502206L0.502149 19.5261L0.00217742 19.5314ZM0.626695 20.675L0.387718 21.1142L0.38812 21.1144L0.626695 20.675ZM1.15929 20.9655L1.39911 20.5268L1.39911 20.5268L1.15929 20.9655ZM1.6919 21.256L1.9316 20.8172L1.93047 20.8166L1.6919 21.256ZM2.96337 21.9512L3.20425 21.5131L3.20334 21.5126L2.96337 21.9512ZM2.96367 21.9514L2.72279 22.3895L2.72371 22.39L2.96367 21.9514ZM2.97115 21.9555L3.21119 21.5169L3.21112 21.5168L2.97115 21.9555ZM2.97816 21.9593L3.21904 21.5212L3.2182 21.5207L2.97816 21.9593ZM2.97846 21.9595L2.73758 22.3976L2.73849 22.3981L2.97846 21.9595ZM4.25041 22.655L4.01071 23.0938L4.0108 23.0938L4.25041 22.655ZM5.04811 23.0905L5.28821 22.6519L5.28771 22.6516L5.04811 23.0905ZM5.0494 23.0912L4.8093 23.5298L4.80984 23.5301L5.0494 23.0912ZM7.35788 24.3535L7.11735 24.7919L7.11811 24.7923L7.35788 24.3535ZM8.69657 25.0844L8.93608 24.6455H8.93608L8.69657 25.0844ZM10.0347 25.815L10.2748 25.3764L10.2745 25.3762L10.0347 25.815ZM10.4326 26.0338L10.6739 25.5958L10.6739 25.5958L10.4326 26.0338ZM11.3367 26.5262L11.1017 26.9676L11.1069 26.9703L11.3367 26.5262ZM11.3543 26.5366L11.5931 26.0972L11.584 26.0925L11.3543 26.5366ZM11.5381 26.6213L11.7289 26.159L11.7161 26.1541L11.5381 26.6213ZM11.9347 26.7094L11.9584 26.21L11.9512 26.2096L11.944 26.2095L11.9347 26.7094ZM12.0001 26.7108L12.0033 26.2107L11.997 26.2108L12.0001 26.7108ZM12.3238 26.6669L12.4615 27.1475L12.4633 27.147L12.3238 26.6669ZM12.3329 26.6642L12.2012 26.1818L12.1934 26.1841L12.3329 26.6642ZM12.6457 26.5377L12.4071 26.0983L12.407 26.0983L12.6457 26.5377ZM13.1767 26.248L12.9374 25.809L12.9368 25.8093L13.1767 26.248ZM13.1782 26.2472L13.4176 26.6862L13.4181 26.6859L13.1782 26.2472ZM13.7109 25.9566L13.9495 26.3959L13.9507 26.3953L13.7109 25.9566ZM14.9829 25.2608L15.2229 25.6994L15.2231 25.6994L14.9829 25.2608ZM14.9899 25.257L14.7499 24.8184L14.7498 24.8184L14.9899 25.257ZM16.2694 24.5572L16.0297 24.1183L16.0297 24.1184L16.2694 24.5572ZM17.0669 24.1216L17.3066 24.5604L17.3073 24.56L17.0669 24.1216ZM17.0681 24.1209L16.8285 23.6821L16.8278 23.6825L17.0681 24.1209ZM19.3769 22.8581L19.1371 22.4193L19.1363 22.4198L19.3769 22.8581ZM22.0538 21.3961L22.2936 21.8348L22.2939 21.8347L22.0538 21.3961ZM22.5059 21.1514L22.2696 20.7108L22.269 20.7111L22.5059 21.1514ZM22.5063 21.1512L22.2827 20.704L22.2763 20.7072L22.27 20.7106L22.5063 21.1512ZM22.5063 21.1512L22.7299 21.5984L22.7366 21.5951L22.7432 21.5915L22.5063 21.1512ZM23.2548 20.742L23.0559 20.2833L23.0318 20.2937L23.009 20.3066L23.2548 20.742ZM23.6302 20.4762L24.0023 20.8101L24.0041 20.8081L23.6302 20.4762ZM23.9264 19.9797L23.4544 19.8146L23.4538 19.8164L23.9264 19.9797ZM23.9525 19.8951L24.4356 20.0239L24.4359 20.0228L23.9525 19.8951ZM23.9533 19.892L23.4705 19.7621L23.4699 19.7644L23.9533 19.892ZM23.9989 8.80149L24.4989 8.80326V8.80326L23.9989 8.80149ZM23.9981 7.87903L23.4989 7.85086L23.4979 7.8674L23.4981 7.88396L23.9981 7.87903ZM23.9514 7.48477L23.4741 7.63372L23.4748 7.63584L23.9514 7.48477ZM23.9506 7.48232L23.4657 7.60434L23.4692 7.61791L23.4733 7.63127L23.9506 7.48232ZM23.8253 7.17684L24.2504 6.91347L24.2499 6.9127L23.8253 7.17684ZM23.8041 7.14372L23.3763 7.40239L23.3812 7.41057L23.3865 7.41855L23.8041 7.14372ZM23.7859 7.11444L23.3592 7.37518L23.3648 7.38405L23.7859 7.11444ZM23.3716 6.70452L23.6107 6.26537L23.6102 6.26511L23.3716 6.70452ZM22.8313 6.40986L22.5913 6.84851L22.5915 6.84861L22.8313 6.40986ZM22.8309 6.40965L23.0709 5.971L23.0707 5.9709L22.8309 6.40965ZM22.2902 6.11477L22.0509 6.55381L22.0516 6.55419L22.2902 6.11477ZM21.0073 5.41364L21.2474 4.97504L21.2472 4.97495L21.0073 5.41364ZM21.006 5.41291L20.7659 5.85151L20.7661 5.85161L21.006 5.41291ZM19.7215 4.71086L19.4817 5.14963L19.4822 5.14989L19.7215 4.71086ZM16.5982 3.00424L16.3578 3.44265L16.3584 3.44301L16.5982 3.00424ZM15.2635 2.2736L15.0235 2.71227L15.2635 2.2736ZM13.9287 1.54292L14.1691 1.10451L14.169 1.10445L13.9287 1.54292ZM13.5375 1.32687L13.7801 0.889605L13.7775 0.888183L13.5375 1.32687ZM13.5375 1.32684L13.2947 1.76393L13.2976 1.76553L13.5375 1.32684ZM13.5375 1.32683L13.7803 0.88975L13.78 0.889573L13.5375 1.32683ZM12.643 0.840961L12.4097 1.2832L12.4122 1.28446L12.643 0.840961ZM11.8263 0.679172L11.8932 1.17469L11.8964 1.17424L11.8263 0.679172ZM11.3423 0.843571L11.104 0.404023L11.1014 0.405428L11.3423 0.843571ZM11.3056 0.863731L11.0647 0.425588L11.0639 0.426055L11.3056 0.863731ZM11.2011 0.919246L10.981 0.470313L10.972 0.474728L10.9632 0.4795L11.2011 0.919246ZM10.8684 1.1006L10.6285 0.661943L10.6284 0.661943L10.8684 1.1006ZM10.5357 1.28197L10.2977 0.842215L10.2953 0.843532L10.5357 1.28197ZM8.10559 2.61021L7.86632 2.17118L7.86575 2.17149L8.10559 2.61021ZM6.56047 3.45554L6.80045 3.89418L6.80052 3.89415L6.56047 3.45554ZM6.55797 3.45691L6.31799 3.01826L6.31792 3.0183L6.55797 3.45691ZM5.01004 4.30378L5.24951 4.7427L5.24989 4.74249L5.01004 4.30378ZM3.6123 5.06834L3.37211 4.62981V4.62981L3.6123 5.06834ZM2.21447 5.83295L1.975 5.39402L1.97407 5.39453L2.21447 5.83295ZM0.686859 6.66799L0.44812 6.2285L0.43758 6.23456L0.686859 6.66799ZM2.52291 10.0034L2.76298 9.56485L2.02291 9.15977V10.0034H2.52291ZM2.98212 10.2548L2.74205 10.6934L2.74206 10.6934L2.98212 10.2548ZM4.2664 10.958L4.0261 11.3965L4.02665 11.3968L4.2664 10.958ZM5.82812 11.8127L6.06881 11.3744L6.0683 11.3741L5.82812 11.8127ZM5.82875 11.813L5.58806 12.2513L5.58857 12.2516L5.82875 11.813ZM7.38968 12.6672L7.6301 12.2288L7.62944 12.2285L7.38968 12.6672ZM10.0592 14.1286L9.8188 14.567L9.81892 14.567L10.0592 14.1286ZM10.4872 14.3652L10.7299 13.928L10.7299 13.928L10.4872 14.3652ZM10.7323 14.5011H11.2323V14.2062L10.9742 14.0635L10.7323 14.5011ZM10.7323 23.2519L10.4923 23.6906L11.2323 24.0954V23.2519H10.7323ZM10.2815 23.0053L10.0416 23.444L10.0416 23.444L10.2815 23.0053ZM9.00228 22.3059L9.24197 21.8671L9.24188 21.867L9.00228 22.3059ZM8.20465 21.8704L7.96455 22.309L7.96505 22.3092L8.20465 21.8704ZM8.20308 21.8695L8.44318 21.4309L8.44265 21.4306L8.20308 21.8695ZM5.8948 20.6073L6.13533 20.169L6.13458 20.1686L5.8948 20.6073ZM4.55544 19.8761L4.31593 20.315H4.31593L4.55544 19.8761ZM3.21794 19.1458L2.97787 19.5844L2.97816 19.5846L3.21794 19.1458ZM2.80672 18.9189L3.04905 18.4815L3.04864 18.4813L2.80672 18.9189ZM2.80603 18.9185L3.04796 18.4809L3.04757 18.4807L2.80603 18.9185ZM2.80487 18.9179L3.04641 18.4801L3.04608 18.4799L2.80487 18.9179ZM2.80408 18.9174L2.56175 19.3548L2.56288 19.3554L2.80408 18.9174ZM2.52291 18.7619H2.02291V19.0573L2.28165 19.1999L2.52291 18.7619ZM13.2728 14.4897L13.0333 14.0508L12.7743 14.1921L12.7728 14.4872L13.2728 14.4897ZM13.2719 14.6701L13.7719 14.6728L13.7719 14.6726L13.2719 14.6701ZM13.4522 14.3921L13.6902 14.8319L13.6926 14.8306L13.4522 14.3921ZM14.6679 13.7263L14.4278 13.2878L14.6679 13.7263ZM15.8823 13.0613L15.6424 12.6226L15.6419 12.6228L15.8823 13.0613ZM17.4248 12.2174L17.1849 11.7787L17.1848 11.7788L17.4248 12.2174ZM17.4301 12.2145L17.67 12.6532L17.6701 12.6531L17.4301 12.2145ZM17.44 12.209L17.6801 12.6476L17.6801 12.6476L17.44 12.209ZM18.9778 11.3677L18.7384 10.9288L18.738 10.929L18.9778 11.3677ZM20.3743 10.6038L20.1344 10.1652L20.1342 10.1653L20.3743 10.6038ZM20.3758 10.603L20.6158 11.0417L20.616 11.0416L20.3758 10.603ZM21.4796 9.99896H21.9796V9.15601L21.2399 9.56018L21.4796 9.99896ZM21.4785 18.5869L20.9785 18.5851V18.5852L21.4785 18.5869ZM21.4779 18.7645L21.7177 19.2032L21.9769 19.0615L21.9779 18.7662L21.4779 18.7645ZM21.0389 19.0038L20.8003 18.5645L20.7992 18.5651L21.0389 19.0038ZM19.764 19.7012L20.0039 20.1399L20.004 20.1398L19.764 19.7012ZM19.7601 19.7033L19.5202 19.2646L19.5201 19.2647L19.7601 19.7033ZM18.4804 20.4032L18.7201 20.8421L18.7202 20.842L18.4804 20.4032ZM17.6829 20.8388L17.9225 21.2777L17.9225 21.2777L17.6829 20.8388ZM15.3729 22.1023L15.6128 22.5411L15.6135 22.5407L15.3729 22.1023ZM14.0349 22.8331L13.7953 22.3942L13.7953 22.3942L14.0349 22.8331ZM13.2702 23.2506H12.7702V24.0932L13.5098 23.6894L13.2702 23.2506ZM20.2854 7.39451C19.8663 7.16493 19.447 6.93579 19.0282 6.70694L18.5487 7.58448C18.9675 7.81337 19.3864 8.04226 19.805 8.27155L20.2854 7.39451ZM19.9945 8.43078L20.2853 8.27162L19.8051 7.39444L19.5144 7.5536L19.9945 8.43078ZM19.9907 8.43288L19.9946 8.43077L19.5144 7.55362L19.5105 7.55573L19.9907 8.43288ZM18.7135 9.1317C19.1397 8.89873 19.5653 8.66577 19.9907 8.43289L19.5105 7.55572C19.0851 7.78862 18.6598 8.02143 18.2339 8.25423L18.7135 9.1317ZM17.1601 9.98136C17.6782 9.69788 18.1961 9.41446 18.7135 9.13171L18.2339 8.25422C17.7163 8.53711 17.1981 8.82063 16.68 9.10409L17.1601 9.98136ZM17.1584 9.98224L17.1589 9.98199L16.6812 9.10347L16.6807 9.10371L17.1584 9.98224ZM17.1548 9.98424L17.1596 9.98161L16.6796 9.10434L16.6748 9.10696L17.1548 9.98424ZM15.6028 10.8331C16.1198 10.5506 16.6373 10.2674 17.1548 9.98423L16.6748 9.10697C16.1573 9.39011 15.6399 9.6732 15.1232 9.95562L15.6028 10.8331ZM14.2638 11.5659C14.7105 11.3214 15.157 11.0769 15.6029 10.8331L15.1231 9.95567C14.677 10.1996 14.2302 10.4443 13.7836 10.6888L14.2638 11.5659ZM12.9233 12.2996C13.3698 12.0554 13.8169 11.8106 14.2638 11.5659L13.7836 10.6888C13.3366 10.9335 12.8897 11.1782 12.4435 11.4222L12.9233 12.2996ZM12.7234 12.4086C12.7901 12.3724 12.8568 12.336 12.9236 12.2994L12.4432 11.4224C12.3777 11.4582 12.312 11.4941 12.246 11.5299L12.7234 12.4086ZM12.4783 12.5407C12.5594 12.497 12.641 12.4531 12.7225 12.4091L12.2469 11.5294C12.1664 11.5729 12.0858 11.6163 12.0046 11.66L12.4783 12.5407ZM12.4775 12.5411L12.4776 12.5411L12.0053 11.6596L12.0053 11.6596L12.4775 12.5411ZM12.2357 12.6714C12.3162 12.6279 12.397 12.5844 12.4783 12.5407L12.0045 11.6601C11.9234 11.7037 11.8417 11.7477 11.76 11.7918L12.2357 12.6714ZM11.3197 12.4301C11.466 12.5106 11.6122 12.5906 11.758 12.6703L12.2377 11.7929C12.0921 11.7133 11.9469 11.6338 11.8018 11.554L11.3197 12.4301ZM10.0411 11.731C10.4675 11.9642 10.8939 12.1976 11.3211 12.4309L11.8005 11.5533C11.3737 11.3201 10.9474 11.087 10.5211 10.8537L10.0411 11.731ZM9.09219 11.212C9.40863 11.385 9.72483 11.558 10.0411 11.731L10.5211 10.8537C10.2048 10.6807 9.88844 10.5076 9.57182 10.3346L9.09219 11.212ZM9.57229 11.2118C9.66569 11.1606 9.75909 11.1094 9.85248 11.0582L9.37188 10.1813C9.2785 10.2325 9.18511 10.2836 9.09172 10.3348L9.57229 11.2118ZM9.85248 11.0582C10.2794 10.8243 10.7061 10.5904 11.1334 10.3566L10.6533 9.47935C10.2257 9.71336 9.79872 9.94736 9.37189 10.1813L9.85248 11.0582ZM11.1334 10.3566C11.6514 10.0732 12.17 9.78907 12.6885 9.50505L12.2081 8.62801C11.6896 8.91205 11.1711 9.19603 10.6534 9.47934L11.1334 10.3566ZM12.6885 9.50505C13.2073 9.22089 13.7259 8.9368 14.2439 8.65336L13.7639 7.7761C13.2457 8.05967 12.7268 8.34387 12.2081 8.62801L12.6885 9.50505ZM14.244 8.65331C14.6902 8.40904 15.137 8.16412 15.5837 7.91928L15.103 7.04238C14.6563 7.28724 14.2097 7.53203 13.7638 7.77615L14.244 8.65331ZM15.5837 7.91928C16.0306 7.67431 16.4774 7.42942 16.9235 7.18518L16.4433 6.30803C15.9969 6.55241 15.5499 6.79743 15.103 7.04238L15.5837 7.91928ZM16.9238 7.18503C17.0721 7.10369 17.2216 7.02312 17.3731 6.94151L16.8988 6.06116C16.7479 6.14248 16.5951 6.22478 16.443 6.30819L16.9238 7.18503ZM17.3731 6.94151C17.4525 6.89872 17.5325 6.85564 17.6124 6.81236L17.1363 5.93297C17.0574 5.97568 16.9784 6.01828 16.8988 6.06116L17.3731 6.94151ZM18.3404 6.33102C18.0985 6.19881 17.8564 6.06645 17.6143 5.934L17.1344 6.81133C17.3766 6.94381 17.6188 7.07623 17.8608 7.2085L18.3404 6.33102ZM19.028 6.70686L18.3404 6.33102L17.8608 7.2085L18.5484 7.58434L19.028 6.70686ZM19.0289 6.70735L19.0287 6.70723L18.5477 7.58396L18.5479 7.58407L19.0289 6.70735ZM14.916 4.45807C14.5937 4.28178 14.2716 4.10547 13.9494 3.92912L13.4693 4.8063C13.7914 4.98263 14.1136 5.15902 14.4361 5.33541L14.916 4.45807ZM13.9494 3.92912C13.5228 3.69558 13.096 3.46196 12.6686 3.22832L12.189 4.10579C12.6161 4.33926 13.0426 4.57273 13.4693 4.8063L13.9494 3.92912ZM12.6675 3.22771C12.526 3.15085 12.3844 3.0735 12.2424 2.99585L11.7626 3.87325C11.9048 3.95099 12.0474 4.02887 12.1901 4.1064L12.6675 3.22771ZM11.7643 2.99491L11.5376 3.11773L12.014 3.997L12.2407 3.87419L11.7643 2.99491ZM11.5378 3.11763C11.384 3.20088 11.229 3.28478 11.0744 3.36943L11.5548 4.24651C11.7068 4.16325 11.8596 4.08054 12.0138 3.99709L11.5378 3.11763ZM11.0737 3.36982C10.4112 3.73403 9.74723 4.09686 9.08327 4.45967L9.56279 5.3372C10.2266 4.97449 10.8917 4.61105 11.5555 4.24612L11.0737 3.36982ZM9.08272 4.45997L9.08227 4.46021L9.5629 5.33714L9.56334 5.3369L9.08272 4.45997ZM9.08278 4.45994L8.39516 4.83577L8.87477 5.71325L9.56239 5.33742L9.08278 4.45994ZM8.39516 4.83577C7.87712 5.11891 7.35847 5.40269 6.83993 5.68641L7.31993 6.56368C7.8385 6.27994 8.35695 5.99627 8.87476 5.71326L8.39516 4.83577ZM6.83993 5.68641C6.32115 5.97026 5.8025 6.25405 5.28449 6.53717L5.76409 7.41466C6.28233 7.1314 6.80119 6.84751 7.31993 6.56368L6.83993 5.68641ZM5.28447 6.53718C4.85763 6.77049 4.43143 7.00379 4.0054 7.23701L4.48557 8.11418C4.91165 7.88094 5.33757 7.64779 5.7641 7.41465L5.28447 6.53718ZM4.00556 7.23692L4.00379 7.23789L4.48364 8.11524L4.48541 8.11427L4.00556 7.23692ZM4.00363 7.23798L3.71607 7.39539L4.19623 8.27257L4.4838 8.11515L4.00363 7.23798ZM3.71605 8.27256L4.11519 8.49107L4.5954 7.61392L4.19625 7.3954L3.71605 8.27256ZM4.11529 8.49113L4.31688 8.60143L4.79689 7.72417L4.5953 7.61386L4.11529 8.49113ZM4.31688 8.60143C4.76304 8.84556 5.20934 9.08976 5.65503 9.33332L6.13458 8.4558C5.68916 8.21239 5.2431 7.96832 4.7969 7.72417L4.31688 8.60143ZM5.65512 9.33337C5.90096 9.46765 6.14695 9.60208 6.39303 9.7366L6.87269 8.85914C6.62654 8.72459 6.38044 8.5901 6.13448 8.45575L5.65512 9.33337ZM6.62677 8.73301C6.54979 8.77448 6.47232 8.81623 6.39486 8.85815L6.87086 9.73759C6.94734 9.6962 7.02398 9.6549 7.10109 9.61336L6.62677 8.73301ZM7.07614 8.48948C6.92778 8.57082 6.77825 8.65139 6.62677 8.73301L7.10109 9.61336C7.25203 9.53203 7.4048 9.44973 7.55692 9.36632L7.07614 8.48948ZM8.41591 7.7554C7.96911 8.00031 7.52244 8.24515 7.07643 8.48932L7.55663 9.36648C8.00292 9.12215 8.44982 8.87719 8.89658 8.6323L8.41591 7.7554ZM9.75591 7.02119C9.3096 7.26552 8.86269 7.5105 8.41591 7.7554L8.89658 8.6323C9.3434 8.38738 9.79008 8.14253 10.2361 7.89835L9.75591 7.02119ZM11.3107 6.16981C10.7922 6.45385 10.2738 6.73783 9.756 7.02114L10.236 7.8984C10.754 7.61496 11.2726 7.33088 11.7911 7.04685L11.3107 6.16981ZM12.8665 5.31791C12.3483 5.60147 11.8295 5.88567 11.3107 6.16981L11.7911 7.04685C12.3099 6.76269 12.8285 6.4786 13.3465 6.19517L12.8665 5.31791ZM14.1465 4.61679C13.7199 4.85056 13.2935 5.08424 12.8665 5.31791L13.3465 6.19516C13.7739 5.96131 14.2006 5.72748 14.6271 5.49373L14.1465 4.61679ZM14.4358 4.45826C14.3393 4.51111 14.2429 4.56395 14.1465 4.61679L14.6271 5.49373C14.7235 5.44089 14.8199 5.38806 14.9163 5.33522L14.4358 4.45826ZM0.501422 7.88711C0.483082 7.55385 0.6284 7.27023 0.855945 7.14595L0.376607 6.26832C-0.267156 6.61992 -0.531237 7.32115 -0.497067 7.94206L0.501422 7.88711ZM0.502177 9.00398V7.91459H-0.497823V9.00398H0.502177ZM0.502177 11.7967V9.00398H-0.497823V11.7967H0.502177ZM0.502177 15.1756V11.7967H-0.497823V15.1756H0.502177ZM0.502177 18.109V15.1756H-0.497823V18.109H0.502177ZM0.501055 18.5849C0.501614 18.427 0.502177 18.268 0.502177 18.109H-0.497823C-0.497823 18.266 -0.498378 18.4231 -0.498939 18.5813L0.501055 18.5849ZM0.502149 19.5261C0.498835 19.2141 0.499934 18.9016 0.501055 18.5849L-0.498939 18.5813C-0.500056 18.8968 -0.501196 19.2165 -0.497794 19.5367L0.502149 19.5261ZM0.502177 19.5496V19.5314H-0.497823V19.5496H0.502177ZM0.865672 20.2358C0.666117 20.1273 0.502177 19.8428 0.502177 19.5496H-0.497823C-0.497823 20.1422 -0.188337 20.8008 0.387718 21.1142L0.865672 20.2358ZM1.39911 20.5268C1.22168 20.4298 1.04353 20.3324 0.86527 20.2356L0.38812 21.1144C0.564927 21.2104 0.741839 21.3071 0.919475 21.4042L1.39911 20.5268ZM1.93047 20.8166C1.75366 20.7206 1.57675 20.6239 1.39911 20.5268L0.919472 21.4042C1.0969 21.5012 1.27506 21.5986 1.45333 21.6954L1.93047 20.8166ZM3.20334 21.5126C2.77975 21.2808 2.35599 21.049 1.93159 20.8172L1.4522 21.6948C1.87629 21.9264 2.29977 22.1581 2.72341 22.3899L3.20334 21.5126ZM3.20455 21.5132L3.20425 21.5131L2.72249 22.3894L2.72279 22.3895L3.20455 21.5132ZM3.21112 21.5168L3.20364 21.5127L2.72371 22.39L2.73119 22.3941L3.21112 21.5168ZM3.2182 21.5207L3.21119 21.5169L2.73111 22.3941L2.73812 22.3979L3.2182 21.5207ZM3.21934 21.5213L3.21904 21.5212L2.73728 22.3975L2.73758 22.3976L3.21934 21.5213ZM4.4901 22.2162C4.06586 21.9844 3.64222 21.7527 3.21843 21.5208L2.73849 22.3981C3.16224 22.6299 3.58615 22.8618 4.01071 23.0938L4.4901 22.2162ZM5.28771 22.6516L4.49001 22.2161L4.0108 23.0938L4.8085 23.5293L5.28771 22.6516ZM5.28951 22.6526L5.28821 22.6519L4.808 23.5291L4.8093 23.5298L5.28951 22.6526ZM7.59841 23.9152C6.82906 23.493 6.05839 23.0723 5.28897 22.6523L4.80984 23.5301C5.57943 23.9502 6.34912 24.3703 7.11735 24.7919L7.59841 23.9152ZM8.93608 24.6455C8.48962 24.4018 8.04331 24.1583 7.59766 23.9147L7.11811 24.7923C7.56407 25.036 8.01064 25.2797 8.45706 25.5233L8.93608 24.6455ZM10.2745 25.3762C9.82873 25.1326 9.38233 24.889 8.93608 24.6455L8.45705 25.5233C8.90335 25.7668 9.34948 26.0103 9.79497 26.2538L10.2745 25.3762ZM10.6739 25.5958C10.5414 25.5228 10.4081 25.4494 10.2748 25.3764L9.79468 26.2536C9.92657 26.3258 10.0586 26.3985 10.1913 26.4717L10.6739 25.5958ZM11.5716 26.0848C11.273 25.9259 10.9752 25.7618 10.6739 25.5958L10.1913 26.4717C10.4915 26.6371 10.7957 26.8047 11.1018 26.9676L11.5716 26.0848ZM11.584 26.0925C11.5907 26.096 11.5959 26.0989 11.5993 26.1008C11.6028 26.1028 11.6055 26.1044 11.607 26.1053C11.6086 26.1062 11.6097 26.1069 11.6099 26.107C11.61 26.1071 11.6101 26.1072 11.6091 26.1066C11.6085 26.1062 11.6069 26.1052 11.6052 26.1041C11.6034 26.103 11.6008 26.1014 11.5977 26.0996C11.5947 26.0978 11.5906 26.0953 11.5857 26.0926C11.5809 26.0899 11.5743 26.0862 11.5664 26.0821L11.1069 26.9703C11.1003 26.9669 11.095 26.9639 11.0916 26.962C11.0882 26.96 11.0855 26.9584 11.0839 26.9575C11.0824 26.9566 11.0813 26.9559 11.0811 26.9558C11.0809 26.9557 11.0809 26.9557 11.0818 26.9562C11.0825 26.9566 11.0841 26.9576 11.0858 26.9587C11.0876 26.9598 11.0902 26.9614 11.0932 26.9632C11.0963 26.965 11.1004 26.9675 11.1053 26.9702C11.11 26.973 11.1166 26.9766 11.1245 26.9807L11.584 26.0925ZM11.7161 26.1541C11.6748 26.1383 11.6336 26.1193 11.5931 26.0973L11.1155 26.9759C11.194 27.0186 11.2757 27.0564 11.36 27.0885L11.7161 26.1541ZM11.944 26.2095C11.8864 26.2084 11.8117 26.1933 11.7288 26.1591L11.3473 27.0835C11.5229 27.156 11.721 27.2055 11.9254 27.2093L11.944 26.2095ZM11.997 26.2108C11.984 26.2108 11.9712 26.2106 11.9584 26.21L11.9111 27.2089C11.9419 27.2103 11.9726 27.2109 12.0033 27.2107L11.997 26.2108ZM12.1861 26.1862C12.1273 26.2031 12.0662 26.2112 12.0033 26.2108L11.997 27.2107C12.1506 27.2117 12.3068 27.1919 12.4615 27.1475L12.1861 26.1862ZM12.1934 26.1841L12.1843 26.1867L12.4633 27.147L12.4724 27.1444L12.1934 26.1841ZM12.407 26.0983C12.3385 26.1355 12.2694 26.1633 12.2012 26.1819L12.4645 27.1466C12.6104 27.1068 12.7511 27.0494 12.8844 26.977L12.407 26.0983ZM12.9368 25.8093C12.7597 25.9061 12.5833 26.0026 12.4071 26.0983L12.8843 26.9771C13.0621 26.8805 13.2397 26.7834 13.4166 26.6867L12.9368 25.8093ZM12.9389 25.8081L12.9374 25.809L13.416 26.687L13.4176 26.6862L12.9389 25.8081ZM13.4723 25.5172C13.294 25.614 13.1158 25.7114 12.9384 25.8085L13.4181 26.6859C13.5958 26.5887 13.7727 26.492 13.9495 26.3959L13.4723 25.5172ZM14.7429 24.8222C14.3191 25.0541 13.8954 25.286 13.4711 25.5178L13.9507 26.3953C14.3752 26.1633 14.7992 25.9313 15.2229 25.6994L14.7429 24.8222ZM14.7498 24.8184L14.7428 24.8223L15.2231 25.6994L15.2301 25.6955L14.7498 24.8184ZM16.0297 24.1184C15.6026 24.3518 15.1762 24.5851 14.7499 24.8184L15.2299 25.6956C15.6563 25.4623 16.0824 25.2291 16.5092 24.9959L16.0297 24.1184ZM16.8273 23.6828L16.0297 24.1183L16.5091 24.996L17.3066 24.5604L16.8273 23.6828ZM16.8272 23.6828L16.8266 23.6831L17.3073 24.56L17.3079 24.5597L16.8272 23.6828ZM16.8278 23.6825L16.8272 23.6828L17.3079 24.5597L17.3084 24.5594L16.8278 23.6825ZM19.1363 22.4198C18.368 22.8415 17.5982 23.2618 16.8285 23.6821L17.3078 24.5598C18.0773 24.1396 18.848 23.7187 19.6175 23.2964L19.1363 22.4198ZM20.4757 21.6882C20.0294 21.9319 19.5829 22.1756 19.1371 22.4193L19.6167 23.2968C20.0623 23.0532 20.5085 22.8096 20.9549 22.566L20.4757 21.6882ZM21.8139 20.9574C21.3683 21.201 20.9221 21.4446 20.4757 21.6882L20.9549 22.566C21.4012 22.3223 21.8477 22.0786 22.2936 21.8348L21.8139 20.9574ZM22.269 20.7111C22.1182 20.7922 21.9656 20.8744 21.8136 20.9576L22.2939 21.8347C22.4421 21.7535 22.5914 21.6732 22.7428 21.5918L22.269 20.7111ZM22.27 20.7106L22.2696 20.7108L22.7422 21.5921L22.7426 21.5919L22.27 20.7106ZM22.2827 20.704L22.2827 20.704L22.7299 21.5984L22.7299 21.5984L22.2827 20.704ZM23.009 20.3066C22.767 20.4432 22.5208 20.5757 22.2694 20.7109L22.7432 21.5915C22.993 21.4571 23.2483 21.3198 23.5005 21.1775L23.009 20.3066ZM23.258 20.1423C23.2064 20.1998 23.1393 20.2471 23.0559 20.2833L23.4537 21.2008C23.6509 21.1153 23.842 20.9888 24.0023 20.8101L23.258 20.1423ZM23.4538 19.8164C23.4147 19.9295 23.3489 20.0399 23.2562 20.1443L24.0041 20.8081C24.173 20.6178 24.3118 20.3952 24.3989 20.1431L23.4538 19.8164ZM23.4694 19.7663C23.4653 19.7815 23.4603 19.7977 23.4544 19.8146L24.3983 20.1448C24.4122 20.1051 24.4247 20.0647 24.4356 20.0239L23.4694 19.7663ZM23.4699 19.7644L23.4691 19.7674L24.4359 20.0228L24.4367 20.0197L23.4699 19.7644ZM23.4978 19.5537C23.4978 19.6268 23.4882 19.6961 23.4705 19.7621L24.4361 20.022C24.4764 19.8723 24.4978 19.7157 24.4978 19.5537H23.4978ZM23.4978 18.3836V19.5537H24.4978V18.3836H23.4978ZM23.4978 15.59V18.3836H24.4978V15.59H23.4978ZM23.4978 12.2101V15.59H24.4978V12.2101H23.4978ZM23.4978 9.27577V12.2101H24.4978V9.27577H23.4978ZM23.4989 8.79972C23.4984 8.95767 23.4978 9.11665 23.4978 9.27577H24.4978C24.4978 9.11871 24.4984 8.9615 24.4989 8.80326L23.4989 8.79972ZM23.4981 7.88396C23.5011 8.18754 23.5 8.49167 23.4989 8.79972L24.4989 8.80326C24.5 8.49633 24.5011 8.1855 24.4981 7.8741L23.4981 7.88396ZM23.4748 7.63584C23.4948 7.69896 23.5034 7.77067 23.4989 7.85086L24.4973 7.9072C24.5077 7.72203 24.4893 7.52715 24.428 7.33369L23.4748 7.63584ZM23.4733 7.63127L23.4741 7.63372L24.4287 7.33581L24.4279 7.33337L23.4733 7.63127ZM23.4003 7.44022C23.4242 7.47868 23.4479 7.53365 23.4657 7.60434L24.4355 7.3603C24.3974 7.2091 24.338 7.05491 24.2504 6.91347L23.4003 7.44022ZM23.3865 7.41855C23.3913 7.42588 23.3961 7.43336 23.4008 7.44099L24.2499 6.9127C24.2407 6.89797 24.2314 6.88337 24.2218 6.86889L23.3865 7.41855ZM23.3648 7.38405C23.3687 7.39009 23.3725 7.3962 23.3763 7.40239L24.232 6.88505C24.2239 6.87156 24.2155 6.85815 24.207 6.84482L23.3648 7.38405ZM23.1325 7.14367C23.2125 7.18719 23.2906 7.2628 23.3593 7.37512L24.2126 6.85375C24.0744 6.62759 23.8781 6.41097 23.6107 6.26537L23.1325 7.14367ZM22.5915 6.84861C22.7715 6.94699 22.9522 7.04576 23.133 7.14394L23.6102 6.26511C23.4308 6.16771 23.2513 6.06961 23.0711 5.97112L22.5915 6.84861ZM22.5909 6.84829L22.5913 6.84851L23.0713 5.97122L23.0709 5.971L22.5909 6.84829ZM22.0516 6.55419C22.2311 6.65166 22.4107 6.74983 22.5911 6.84839L23.0707 5.9709C22.8905 5.87245 22.7097 5.77361 22.5287 5.67536L22.0516 6.55419ZM20.7673 5.85225C21.1946 6.08614 21.6224 6.32028 22.0509 6.55381L22.5294 5.67574C22.1019 5.44272 21.6749 5.209 21.2474 4.97504L20.7673 5.85225ZM20.7661 5.85161L20.7674 5.85234L21.2472 4.97495L21.2459 4.97421L20.7661 5.85161ZM19.4822 5.14989C19.9103 5.38322 20.3379 5.61724 20.7659 5.85151L21.246 4.97431C20.8181 4.74011 20.3898 4.50566 19.9607 4.27183L19.4822 5.14989ZM16.3584 3.44301L19.4817 5.14963L19.9612 4.27209L16.8379 2.56547L16.3584 3.44301ZM15.0235 2.71227C15.4685 2.95563 15.9131 3.19882 16.3578 3.44265L16.8386 2.56584C16.3934 2.32169 15.9482 2.07823 15.5034 1.83492L15.0235 2.71227ZM13.6882 1.98133C14.1335 2.22548 14.5786 2.46895 15.0235 2.71227L15.5034 1.83492C15.0584 1.59156 14.6137 1.34835 14.1691 1.10451L13.6882 1.98133ZM13.295 1.76412C13.4251 1.83627 13.5565 1.90915 13.6884 1.98139L14.169 1.10445C14.0397 1.03362 13.9105 0.961966 13.7801 0.889612L13.295 1.76412ZM13.2976 1.76553L13.2976 1.76555L13.7775 0.888183L13.7774 0.888158L13.2976 1.76553ZM13.2947 1.76391L13.2947 1.76392L13.7803 0.889764L13.7803 0.88975L13.2947 1.76391ZM12.4122 1.28446C12.7051 1.43695 12.9966 1.5986 13.295 1.76408L13.78 0.889573C13.4836 0.725181 13.1805 0.557069 12.8739 0.397465L12.4122 1.28446ZM11.8964 1.17424C12.0639 1.15052 12.2175 1.18175 12.4097 1.2832L12.8763 0.398727C12.5443 0.223561 12.1786 0.124318 11.7562 0.184108L11.8964 1.17424ZM11.5806 1.28311C11.6966 1.22024 11.7901 1.1886 11.8932 1.17468L11.7594 0.183668C11.5147 0.216712 11.3056 0.294678 11.104 0.40403L11.5806 1.28311ZM11.5465 1.30187L11.5832 1.28171L11.1014 0.405428L11.0647 0.425588L11.5465 1.30187ZM11.4213 1.36818C11.4696 1.34451 11.5143 1.31969 11.5474 1.30141L11.0639 0.426055C11.0274 0.446235 11.0038 0.459138 10.981 0.470313L11.4213 1.36818ZM11.1083 1.53927C11.2194 1.4785 11.3293 1.41838 11.4391 1.35899L10.9632 0.4795C10.8511 0.540148 10.7392 0.601364 10.6285 0.661943L11.1083 1.53927ZM10.7736 1.72171C10.8857 1.66106 10.9976 1.59985 11.1083 1.53927L10.6284 0.661943C10.5174 0.722706 10.4074 0.782832 10.2977 0.842222L10.7736 1.72171ZM8.34487 3.04924C9.15439 2.60804 9.96645 2.16423 10.776 1.7204L10.2953 0.843532C9.48649 1.28694 8.67515 1.73036 7.86632 2.17118L8.34487 3.04924ZM6.80052 3.89415C7.31579 3.61214 7.83094 3.3302 8.34544 3.04892L7.86575 2.17149C7.35101 2.4529 6.83566 2.73495 6.32043 3.01693L6.80052 3.89415ZM6.79795 3.89556L6.80045 3.89418L6.3205 3.01689L6.31799 3.01826L6.79795 3.89556ZM5.24989 4.74249C5.76556 4.46058 6.28185 4.17801 6.79802 3.89552L6.31792 3.0183C5.80172 3.30082 5.28563 3.58327 4.77019 3.86506L5.24989 4.74249ZM3.85249 5.50687C4.31825 5.25176 4.7836 4.99689 5.24951 4.7427L4.77058 3.86485C4.30382 4.1195 3.83776 4.37477 3.37211 4.62981L3.85249 5.50687ZM2.45393 6.27187C2.92072 6.01721 3.38681 5.76192 3.85249 5.50687L3.37211 4.62981C2.90632 4.88493 2.44094 5.13982 1.975 5.39402L2.45393 6.27187ZM0.925527 7.10735C1.43574 6.83019 1.94581 6.5505 2.45487 6.27136L1.97407 5.39453C1.46472 5.67383 0.956381 5.95257 0.448191 6.22863L0.925527 7.10735ZM0.890779 7.12663C0.901753 7.12065 0.918909 7.11133 0.936138 7.10142L0.43758 6.23456C0.432121 6.2377 0.42533 6.24143 0.412356 6.2485L0.890779 7.12663ZM0.865553 7.14056C0.871013 7.13742 0.877805 7.13369 0.890779 7.12663L0.412356 6.2485C0.401382 6.25448 0.384226 6.2638 0.366999 6.2737L0.865553 7.14056ZM2.02291 10.0034V12.2083H3.02291V10.0034H2.02291ZM3.22219 9.8162L2.76298 9.56485L2.28284 10.442L2.74205 10.6934L3.22219 9.8162ZM4.5067 10.5195C4.07805 10.2846 3.65004 10.0504 3.22218 9.81619L2.74206 10.6934C3.16997 10.9276 3.59773 11.1617 4.0261 11.3965L4.5067 10.5195ZM6.0683 11.3741C5.54776 11.0891 5.02698 10.8038 4.50616 10.5192L4.02665 11.3968C4.54698 11.6811 5.06734 11.9661 5.58795 12.2512L6.0683 11.3741ZM6.06944 11.3748L6.06881 11.3744L5.58743 12.2509L5.58806 12.2513L6.06944 11.3748ZM7.62944 12.2285C7.10937 11.9443 6.58927 11.6595 6.06892 11.3745L5.58857 12.2516C6.10885 12.5365 6.62937 12.8216 7.14993 13.106L7.62944 12.2285ZM8.96437 12.9592C8.51941 12.7159 8.07473 12.4727 7.6301 12.2288L7.14927 13.1057C7.59448 13.3498 8.03965 13.5933 8.48453 13.8366L8.96437 12.9592ZM10.2996 13.6902C9.85442 13.446 9.40925 13.2025 8.96437 12.9592L8.48453 13.8366C8.92949 14.0799 9.37417 14.3231 9.8188 14.567L10.2996 13.6902ZM10.7299 13.928C10.5876 13.849 10.4438 13.7692 10.2995 13.6901L9.81892 14.567C9.96037 14.6446 10.1017 14.7231 10.2445 14.8023L10.7299 13.928ZM10.9742 14.0635C10.893 14.0185 10.8117 13.9734 10.7299 13.928L10.2445 14.8023C10.3261 14.8476 10.4082 14.8932 10.4904 14.9386L10.9742 14.0635ZM11.2323 14.8682V14.5011H10.2323V14.8682H11.2323ZM11.2323 17.6583V14.8682H10.2323V17.6583H11.2323ZM11.2323 21.0346V17.6583H10.2323V21.0346H11.2323ZM11.2323 23.2519V21.0346H10.2323V23.2519H11.2323ZM10.0416 23.444L10.4923 23.6906L10.9722 22.8133L10.5215 22.5667L10.0416 23.444ZM8.76258 22.7447C9.18926 22.9777 9.61533 23.2108 10.0416 23.444L10.5215 22.5667C10.0953 22.3335 9.66897 22.1003 9.24197 21.8671L8.76258 22.7447ZM7.96505 22.3092L8.76267 22.7447L9.24188 21.867L8.44425 21.4315L7.96505 22.3092ZM7.96298 22.3081L7.96455 22.309L8.44475 21.4318L8.44318 21.4309L7.96298 22.3081ZM5.65427 21.0457C6.42356 21.4678 7.19416 21.8884 7.96352 22.3084L8.44265 21.4306C7.67313 21.0106 6.90349 20.5905 6.13533 20.169L5.65427 21.0457ZM4.31593 20.315C4.76261 20.5587 5.20915 20.8024 5.65503 21.0461L6.13458 20.1686C5.68839 19.9247 5.2416 19.6809 4.79495 19.4372L4.31593 20.315ZM2.97816 19.5846C3.42373 19.8281 3.8699 20.0716 4.31593 20.315L4.79495 19.4372C4.34889 19.1937 3.90298 18.9504 3.45771 18.7071L2.97816 19.5846ZM2.56439 19.3562C2.70124 19.4321 2.83933 19.5086 2.97788 19.5844L3.458 18.7072C3.3221 18.6328 3.18627 18.5576 3.04905 18.4815L2.56439 19.3562ZM2.56411 19.3561L2.56479 19.3565L3.04864 18.4813L3.04796 18.4809L2.56411 19.3561ZM2.56333 19.3557L2.5645 19.3563L3.04757 18.4807L3.04641 18.4801L2.56333 19.3557ZM2.56288 19.3554L2.56367 19.3559L3.04608 18.4799L3.04529 18.4795L2.56288 19.3554ZM2.28165 19.1999C2.37485 19.2512 2.468 19.3028 2.56175 19.3548L3.04642 18.4801C2.95285 18.4282 2.85863 18.376 2.76418 18.324L2.28165 19.1999ZM2.02291 18.3799V18.7619H3.02291V18.3799H2.02291ZM2.02291 15.5872V18.3799H3.02291V15.5872H2.02291ZM2.02291 12.2083V15.5872H3.02291V12.2083H2.02291ZM12.7728 14.4872L12.7719 14.6676L13.7719 14.6726L13.7728 14.4922L12.7728 14.4872ZM13.2143 13.9524C13.1538 13.9851 13.0934 14.018 13.0333 14.0508L13.5123 14.9286C13.5718 14.8961 13.6311 14.8639 13.6902 14.8319L13.2143 13.9524ZM14.4278 13.2878C14.0224 13.5097 13.6168 13.7317 13.2119 13.9537L13.6926 14.8306C14.0972 14.6087 14.5025 14.3869 14.908 14.1649L14.4278 13.2878ZM15.6419 12.6228C15.2377 12.8444 14.8329 13.0661 14.4278 13.2878L14.908 14.1649C15.313 13.9433 15.7181 13.7215 16.1226 13.4997L15.6419 12.6228ZM17.1848 11.7788C16.6704 12.0603 16.1561 12.3418 15.6424 12.6226L16.1221 13.5C16.636 13.2191 17.1505 12.9375 17.6649 12.656L17.1848 11.7788ZM17.1901 11.7758L17.1849 11.7787L17.6648 12.656L17.67 12.6532L17.1901 11.7758ZM17.2 11.7704L17.19 11.7759L17.6701 12.6531L17.6801 12.6476L17.2 11.7704ZM18.738 10.929C18.2257 11.2091 17.7128 11.4898 17.2 11.7704L17.6801 12.6476C18.1929 12.367 18.7056 12.0864 19.2177 11.8064L18.738 10.929ZM20.1342 10.1653C19.6688 10.4202 19.2039 10.6748 18.7384 10.9288L19.2173 11.8066C19.6836 11.5522 20.1493 11.2972 20.6145 11.0424L20.1342 10.1653ZM20.1358 10.1644L20.1344 10.1652L20.6143 11.0425L20.6158 11.0417L20.1358 10.1644ZM21.2399 9.56018C20.8715 9.76147 20.5034 9.96305 20.1356 10.1645L20.616 11.0416C20.9839 10.8401 21.3515 10.6387 21.7193 10.4377L21.2399 9.56018ZM21.9796 11.7983V9.99896H20.9796V11.7983H21.9796ZM21.9796 15.1783V11.7983H20.9796V15.1783H21.9796ZM21.9796 18.1126V15.1783H20.9796V18.1126H21.9796ZM21.9785 18.5887C21.979 18.4307 21.9796 18.2717 21.9796 18.1126H20.9796C20.9796 18.2697 20.979 18.4269 20.9785 18.5851L21.9785 18.5887ZM21.9779 18.7662L21.9785 18.5886L20.9785 18.5852L20.9779 18.7628L21.9779 18.7662ZM21.2775 19.4432C21.4245 19.3634 21.5713 19.2832 21.7177 19.2032L21.238 18.3257C21.0918 18.4057 20.946 18.4853 20.8003 18.5645L21.2775 19.4432ZM20.004 20.1398C20.4288 19.9073 20.8534 19.675 21.2787 19.4426L20.7992 18.5651C20.3736 18.7976 19.9487 19.0301 19.524 19.2626L20.004 20.1398ZM20.0001 20.142L20.0039 20.1399L19.524 19.2625L19.5202 19.2646L20.0001 20.142ZM18.7202 20.842C19.1473 20.6086 19.5738 20.3752 20.0002 20.1419L19.5201 19.2647C19.0937 19.498 18.6675 19.7312 18.2406 19.9645L18.7202 20.842ZM17.9225 21.2777L18.7201 20.8421L18.2407 19.9644L17.4432 20.4L17.9225 21.2777ZM15.6135 22.5407C16.3822 22.1187 17.1524 21.6982 17.9225 21.2777L17.4432 20.4C16.6733 20.8204 15.9022 21.2415 15.1323 21.664L15.6135 22.5407ZM14.2745 23.272C14.7207 23.0284 15.167 22.7847 15.6128 22.5411L15.1331 21.6636C14.6877 21.9071 14.2416 22.1506 13.7953 22.3942L14.2745 23.272ZM13.5098 23.6894L14.2745 23.2719L13.7953 22.3942L13.0306 22.8117L13.5098 23.6894ZM12.7702 21.4535V23.2506H13.7702V21.4535H12.7702ZM12.7702 18.0761V21.4535H13.7702V18.0761H12.7702ZM12.7702 15.1444V18.0761H13.7702V15.1444H12.7702ZM12.7719 14.6675C12.7711 14.8253 12.7702 14.9848 12.7702 15.1444H13.7702C13.7702 14.9879 13.771 14.8311 13.7719 14.6728L12.7719 14.6675Z" fill="#5F67EC" mask="url(#path-1-inside-1_11_945)"/>
</svg>
