<svg width="28" height="28" viewBox="0 0 28 28" fill="none" xmlns="http://www.w3.org/2000/svg">
<path fill-rule="evenodd" clip-rule="evenodd" d="M9.64589 14.9005C9.92027 15.0263 10.2184 15.0918 10.5202 15.0929C11.0349 15.0947 11.5325 14.9081 11.9191 14.5683L14 12.7584L16.0809 14.5595C16.3869 14.8321 16.7657 15.0096 17.171 15.0701C17.5763 15.1307 17.9905 15.0717 18.3628 14.9005C18.7466 14.7262 19.0715 14.4442 19.2981 14.0888C19.5247 13.7334 19.6432 13.3198 19.6393 12.8983V2.85245H22.6907C23.3423 2.85245 23.9672 3.11129 24.428 3.57204C24.8887 4.03278 25.1476 4.65769 25.1476 5.30928V22.682C25.1487 23.0054 25.086 23.3258 24.9631 23.6249C24.8401 23.9239 24.6593 24.1958 24.4311 24.4249C24.2028 24.6539 23.9316 24.8357 23.6329 24.9597C23.3343 25.0837 23.0141 25.1476 22.6907 25.1476H5.31803C4.66412 25.1476 4.03699 24.8878 3.5746 24.4254C3.11222 23.963 2.85245 23.3359 2.85245 22.682V5.30928C2.85245 4.98591 2.91629 4.66572 3.0403 4.36707C3.16431 4.06842 3.34606 3.79719 3.57513 3.56894C3.80419 3.34069 4.07607 3.1599 4.37515 3.03695C4.67424 2.914 4.99466 2.8513 5.31803 2.85245H8.36938V12.8983C8.36549 13.3198 8.48404 13.7334 8.71064 14.0888C8.93723 14.4442 9.26213 14.7262 9.64589 14.9005ZM10.5552 2.85245V12.8983L12.6098 11.0798C12.996 10.735 13.4955 10.5445 14.0131 10.5445C14.5307 10.5445 15.0302 10.735 15.4164 11.0798L17.5235 12.9071L17.4604 2.85245H10.5552ZM18.5386 0.666654H9.47011C9.4675 0.666635 9.46489 0.666626 9.46228 0.666626C9.45967 0.666626 9.45706 0.666635 9.45445 0.666654H5.31803C4.08592 0.666652 2.90415 1.15551 2.0321 2.02592C1.16005 2.89633 0.668972 4.07718 0.666656 5.30928V22.682C0.666656 23.9156 1.15671 25.0987 2.02901 25.971C2.90131 26.8433 4.08441 27.3334 5.31803 27.3334H22.6907C23.9228 27.331 25.1037 26.84 25.9741 25.9679C26.8445 25.0959 27.3334 23.9141 27.3334 22.682V5.30928C27.3334 4.6996 27.2133 4.09589 26.98 3.53262C26.7466 2.96936 26.4047 2.45756 25.9736 2.02645C25.5424 1.59534 25.0307 1.25337 24.4674 1.02005C23.9041 0.786739 23.3004 0.666654 22.6907 0.666654H18.5543C18.5517 0.666635 18.5491 0.666626 18.5464 0.666626C18.5438 0.666626 18.5412 0.666635 18.5386 0.666654ZM7.44261 21.93H15.3115C15.6013 21.93 15.8793 21.8149 16.0843 21.6099C16.2892 21.405 16.4044 21.127 16.4044 20.8371C16.4044 20.5473 16.2892 20.2693 16.0843 20.0643C15.8793 19.8594 15.6013 19.7442 15.3115 19.7442H7.44261C7.15275 19.7442 6.87477 19.8594 6.66981 20.0643C6.46485 20.2693 6.34971 20.5473 6.34971 20.8371C6.34971 21.127 6.46485 21.405 6.66981 21.6099C6.87477 21.8149 7.15275 21.93 7.44261 21.93Z" fill="white"/>
</svg>
