<svg width="26" height="26" viewBox="0 0 26 26" fill="none" xmlns="http://www.w3.org/2000/svg">
<path d="M13 26C10.4288 26 7.91543 25.2376 5.77759 23.8091C3.63975 22.3806 1.97351 20.3503 0.989572 17.9749C0.00563268 15.5994 -0.251811 12.9856 0.249797 10.4638C0.751405 7.94208 1.98953 5.6257 3.80762 3.80762C5.6257 1.98953 7.94208 0.751405 10.4638 0.249797C12.9856 -0.251811 15.5994 0.00563268 17.9749 0.989572C20.3503 1.97351 22.3806 3.63975 23.8091 5.77759C25.2376 7.91543 26 10.4288 26 13C26 16.4478 24.6304 19.7544 22.1924 22.1924C19.7544 24.6304 16.4478 26 13 26ZM13 1.85715C10.7962 1.85715 8.6418 2.51067 6.80936 3.73506C4.97693 4.95945 3.54872 6.69973 2.70535 8.73582C1.86197 10.7719 1.64131 13.0124 2.07126 15.1739C2.5012 17.3354 3.56246 19.3208 5.12081 20.8792C6.67917 22.4375 8.66464 23.4988 10.8261 23.9287C12.9876 24.3587 15.2281 24.138 17.2642 23.2947C19.3003 22.4513 21.0406 21.0231 22.2649 19.1906C23.4893 17.3582 24.1429 15.2039 24.1429 13C24.1429 10.0447 22.9689 7.21051 20.8792 5.12081C18.7895 3.03112 15.9553 1.85715 13 1.85715ZM11.7557 17.4107L20.1129 9.98215L18.8871 8.58929L11.1429 15.4421L7.15929 11.4121L5.84072 12.7307L10.4836 17.3736C10.5703 17.4596 10.6732 17.5277 10.7864 17.5739C10.8995 17.6201 11.0207 17.6436 11.1429 17.6429C11.3686 17.6425 11.5864 17.56 11.7557 17.4107Z" fill="white"/>
</svg>
