<svg width="24" height="24" viewBox="0 0 24 24" fill="none" xmlns="http://www.w3.org/2000/svg">
<path d="M12.0003 1V2.37283H10.2263V14.7299H20.8712V13.0136H22.6452V4.28267L19.3519 1.09698L19.241 1.00043L12.0003 1ZM12.71 1.68629H18.7423V4.77573H21.9361V12.3274H12.7103L12.71 1.68629ZM19.452 2.16902L21.437 4.08915H19.452V2.16902ZM10.9358 3.05943H12.0003V13.0138H20.1621V14.0438H10.9363L10.9358 3.05943ZM14.1295 5.08915V5.77573H16.9683V5.08915H14.1295ZM14.1295 8.20801V8.89459H20.5165V8.20801H14.1295ZM1 14.7297V21.938H6.67748V16.1028H9.4495L11.8559 17.1003L11.9224 17.1326H15.5485C15.9752 17.1326 16.2583 17.4021 16.2583 17.8192C16.2583 18.2359 15.9752 18.5055 15.5485 18.5055H10.5807V19.192H15.5485C16.2489 19.192 16.8304 18.7036 16.9458 18.055L21.348 16.1348C21.4209 16.1102 21.4976 16.1029 21.5807 16.1029C21.977 16.1029 22.2905 16.4061 22.2905 16.7894C22.2905 17.0335 22.1641 17.2353 21.9688 17.3577L13.741 22.2384L9.64903 20.5864L9.58259 20.5652H8.80641V21.2515H9.46057L13.6413 22.9354L13.8075 23L13.9627 22.9142L22.3456 17.9369H22.3567C22.7468 17.6923 23 17.2699 23 16.7894C23 16.0352 22.3602 15.4163 21.5805 15.4163C21.4172 15.4163 21.2624 15.4412 21.1148 15.4913H21.0926L21.0815 15.5021L16.868 17.3257C16.6622 16.8112 16.1509 16.446 15.5483 16.446H12.0884L9.66005 15.4378L9.59361 15.4163H6.67728V14.7297L1 14.7297ZM1.70977 15.4163H5.96775V21.2515H1.70977V15.4163Z" fill="white" stroke="white" stroke-width="0.2"/>
</svg>
