<svg width="24" height="24" viewBox="0 0 24 24" fill="none" xmlns="http://www.w3.org/2000/svg">
<path d="M9.20405 14.2124C9.48158 15.7841 10.2373 17.2232 11.3573 18.3393L11.6415 16.0665L11.1499 15.0832H13.1165L12.6249 16.0665L12.9088 18.3393C14.0288 17.2231 14.7847 15.7841 15.0622 14.2124C17.9557 14.5063 20 15.5362 20 19.0167V20.0001H4.26655V19.0167C4.26655 15.5363 6.31074 14.5064 9.20397 14.2124H9.20405Z" fill="#6C728D"/>
<path d="M12.1334 4.2666C14.3058 4.2666 16.0667 6.02752 16.0667 8.19996C16.0667 11.6834 14.3058 14.1 12.1334 14.1C9.96091 14.1 8.19999 11.6834 8.19999 8.19996C8.19999 6.02752 9.96091 4.2666 12.1334 4.2666Z" fill="#6C728D"/>
</svg>
