<svg width="204" height="252" viewBox="0 0 204 252" fill="none" xmlns="http://www.w3.org/2000/svg">
<rect width="204" height="252" rx="8" fill="#68A4FF"/>
<path d="M93.6122 66.6372C94.4447 71.3524 96.712 75.6695 100.072 79.0178L100.925 72.1996L99.4496 69.2496H105.35L103.875 72.1996L104.727 79.0178C108.087 75.6694 110.354 71.3522 111.187 66.6372C119.867 67.5188 126 70.6087 126 81.0501V84.0002H78.7996V81.0501C78.7996 70.609 84.9322 67.5191 93.6119 66.6372H93.6122Z" fill="#F4F2FF"/>
<path d="M102.4 36.7998C108.917 36.7998 114.2 42.0826 114.2 48.5999C114.2 59.0501 108.917 66.3 102.4 66.3C95.8828 66.3 90.6 59.0501 90.6 48.5999C90.6 42.0826 95.8828 36.7998 102.4 36.7998Z" fill="#F4F2FF"/>
<mask id="mask0_36_6488" style="mask-type:alpha" maskUnits="userSpaceOnUse" x="108" y="108" width="96" height="144">
<rect x="108" y="108" width="96" height="144" fill="#7D73FB"/>
</mask>
<g mask="url(#mask0_36_6488)">
<g opacity="0.05">
<path d="M148.398 195.192C147.594 207.42 150.6 219.532 156.912 229.902L163.186 213.473L161.316 205.242L175.982 208.836L170.519 215.271L168.482 232.738C178.874 226.462 187.141 217.112 192.083 205.899C213.124 213.379 226.485 224.796 220.124 250.75L218.327 258.083L101 229.327L102.797 221.994C109.158 196.04 126.284 192.096 148.397 195.192L148.398 195.192Z" fill="#F4F2FF"/>
<path d="M188.42 126.378C204.62 130.349 214.533 146.699 210.563 162.899C204.196 188.875 186.648 203.678 170.447 199.708C154.247 195.737 145.533 174.497 151.899 148.521C155.87 132.32 172.22 122.407 188.42 126.378Z" fill="#F4F2FF"/>
</g>
</g>
<rect x="20" y="196" width="164" height="36" rx="18" fill="white"/>
<path d="M95.6836 219L94.959 216.621H91.3154L90.5908 219H88.3076L91.835 208.965H94.4258L97.9668 219H95.6836ZM94.4531 214.844L93.7285 212.52C93.6829 212.365 93.6214 212.166 93.5439 211.925C93.471 211.679 93.3958 211.43 93.3184 211.18C93.2454 210.924 93.1862 210.703 93.1406 210.517C93.0951 210.703 93.0312 210.936 92.9492 211.214C92.8717 211.487 92.7965 211.747 92.7236 211.993C92.6507 212.239 92.5983 212.415 92.5664 212.52L91.8486 214.844H94.4531ZM101.487 219.137C100.635 219.137 99.9401 218.804 99.4023 218.139C98.8691 217.469 98.6025 216.487 98.6025 215.192C98.6025 213.884 98.8737 212.896 99.416 212.226C99.9583 211.551 100.667 211.214 101.542 211.214C101.907 211.214 102.228 211.264 102.506 211.364C102.784 211.465 103.023 211.599 103.224 211.768C103.429 211.936 103.602 212.125 103.743 212.335H103.812C103.784 212.189 103.75 211.975 103.709 211.692C103.673 211.405 103.654 211.111 103.654 210.811V208.363H105.746V219H104.146L103.743 218.009H103.654C103.522 218.218 103.356 218.41 103.155 218.583C102.959 218.752 102.725 218.886 102.451 218.986C102.178 219.087 101.856 219.137 101.487 219.137ZM102.219 217.476C102.788 217.476 103.189 217.307 103.422 216.97C103.659 216.628 103.784 216.115 103.798 215.432V215.206C103.798 214.463 103.684 213.896 103.456 213.504C103.228 213.107 102.804 212.909 102.185 212.909C101.724 212.909 101.364 213.107 101.104 213.504C100.845 213.9 100.715 214.472 100.715 215.22C100.715 215.967 100.845 216.53 101.104 216.908C101.369 217.286 101.74 217.476 102.219 217.476ZM110.347 219.137C109.494 219.137 108.799 218.804 108.262 218.139C107.729 217.469 107.462 216.487 107.462 215.192C107.462 213.884 107.733 212.896 108.275 212.226C108.818 211.551 109.526 211.214 110.401 211.214C110.766 211.214 111.087 211.264 111.365 211.364C111.643 211.465 111.882 211.599 112.083 211.768C112.288 211.936 112.461 212.125 112.603 212.335H112.671C112.644 212.189 112.609 211.975 112.568 211.692C112.532 211.405 112.514 211.111 112.514 210.811V208.363H114.605V219H113.006L112.603 218.009H112.514C112.382 218.218 112.215 218.41 112.015 218.583C111.819 218.752 111.584 218.886 111.311 218.986C111.037 219.087 110.716 219.137 110.347 219.137ZM111.078 217.476C111.648 217.476 112.049 217.307 112.281 216.97C112.518 216.628 112.644 216.115 112.657 215.432V215.206C112.657 214.463 112.543 213.896 112.315 213.504C112.088 213.107 111.664 212.909 111.044 212.909C110.584 212.909 110.224 213.107 109.964 213.504C109.704 213.9 109.574 214.472 109.574 215.22C109.574 215.967 109.704 216.53 109.964 216.908C110.228 217.286 110.6 217.476 111.078 217.476Z" fill="#7E5AE8"/>
<path d="M68.254 132.198C67.306 132.198 66.424 132.036 65.608 131.712C64.804 131.376 64.096 130.908 63.484 130.308C62.884 129.708 62.416 129.012 62.08 128.22C61.744 127.416 61.576 126.552 61.576 125.628C61.576 124.704 61.744 123.846 62.08 123.054C62.416 122.25 62.884 121.554 63.484 120.966C64.084 120.378 64.786 119.922 65.59 119.598C66.406 119.262 67.288 119.094 68.236 119.094C69.244 119.094 70.138 119.256 70.918 119.58C71.71 119.904 72.4 120.348 72.988 120.912L71.098 122.82C70.762 122.46 70.354 122.178 69.874 121.974C69.406 121.77 68.86 121.668 68.236 121.668C67.684 121.668 67.174 121.764 66.706 121.956C66.25 122.136 65.854 122.4 65.518 122.748C65.194 123.096 64.936 123.516 64.744 124.008C64.564 124.5 64.474 125.04 64.474 125.628C64.474 126.228 64.564 126.774 64.744 127.266C64.936 127.758 65.194 128.178 65.518 128.526C65.854 128.874 66.25 129.144 66.706 129.336C67.174 129.528 67.684 129.624 68.236 129.624C68.884 129.624 69.448 129.522 69.928 129.318C70.408 129.114 70.822 128.832 71.17 128.472L73.078 130.38C72.466 130.944 71.764 131.388 70.972 131.712C70.192 132.036 69.286 132.198 68.254 132.198ZM78.2702 132.198C77.4662 132.198 76.7522 132.036 76.1282 131.712C75.5162 131.376 75.0362 130.92 74.6882 130.344C74.3402 129.756 74.1662 129.084 74.1662 128.328V123.252H76.9202V128.292C76.9202 128.592 76.9682 128.85 77.0642 129.066C77.1722 129.282 77.3282 129.45 77.5322 129.57C77.7362 129.69 77.9822 129.75 78.2702 129.75C78.6782 129.75 79.0022 129.624 79.2422 129.372C79.4822 129.108 79.6022 128.748 79.6022 128.292V123.252H82.3562V128.31C82.3562 129.078 82.1822 129.756 81.8342 130.344C81.4862 130.92 81.0062 131.376 80.3942 131.712C79.7822 132.036 79.0742 132.198 78.2702 132.198ZM87.2713 132.216C86.7553 132.216 86.2453 132.15 85.7413 132.018C85.2493 131.886 84.7873 131.7 84.3553 131.46C83.9353 131.208 83.5753 130.92 83.2753 130.596L84.8413 129.012C85.1293 129.324 85.4713 129.57 85.8673 129.75C86.2633 129.918 86.6953 130.002 87.1633 130.002C87.4873 130.002 87.7333 129.954 87.9013 129.858C88.0813 129.762 88.1713 129.63 88.1713 129.462C88.1713 129.246 88.0633 129.084 87.8473 128.976C87.6433 128.856 87.3793 128.754 87.0553 128.67C86.7313 128.574 86.3893 128.472 86.0293 128.364C85.6693 128.256 85.3273 128.106 85.0033 127.914C84.6793 127.722 84.4153 127.458 84.2113 127.122C84.0073 126.774 83.9053 126.336 83.9053 125.808C83.9053 125.244 84.0493 124.758 84.3373 124.35C84.6253 123.93 85.0333 123.6 85.5613 123.36C86.0893 123.12 86.7073 123 87.4153 123C88.1593 123 88.8433 123.132 89.4673 123.396C90.1033 123.648 90.6193 124.026 91.0153 124.53L89.4493 126.114C89.1733 125.79 88.8613 125.562 88.5133 125.43C88.1773 125.298 87.8473 125.232 87.5233 125.232C87.2113 125.232 86.9773 125.28 86.8213 125.376C86.6653 125.46 86.5873 125.586 86.5873 125.754C86.5873 125.934 86.6893 126.078 86.8933 126.186C87.0973 126.294 87.3613 126.39 87.6853 126.474C88.0093 126.558 88.3513 126.66 88.7113 126.78C89.0713 126.9 89.4133 127.062 89.7373 127.266C90.0613 127.47 90.3253 127.746 90.5293 128.094C90.7333 128.43 90.8353 128.874 90.8353 129.426C90.8353 130.278 90.5113 130.956 89.8633 131.46C89.2273 131.964 88.3633 132.216 87.2713 132.216ZM93.5714 132V119.634H96.3254V132H93.5714ZM91.5914 125.592V123.252H98.3054V125.592H91.5914ZM103.555 132.198C102.655 132.198 101.839 132 101.107 131.604C100.387 131.196 99.8171 130.644 99.3971 129.948C98.9771 129.252 98.7671 128.472 98.7671 127.608C98.7671 126.744 98.9771 125.97 99.3971 125.286C99.8171 124.602 100.387 124.062 101.107 123.666C101.827 123.258 102.643 123.054 103.555 123.054C104.467 123.054 105.283 123.252 106.003 123.648C106.723 124.044 107.293 124.59 107.713 125.286C108.133 125.97 108.343 126.744 108.343 127.608C108.343 128.472 108.133 129.252 107.713 129.948C107.293 130.644 106.723 131.196 106.003 131.604C105.283 132 104.467 132.198 103.555 132.198ZM103.555 129.696C103.951 129.696 104.299 129.612 104.599 129.444C104.899 129.264 105.127 129.018 105.283 128.706C105.451 128.382 105.535 128.016 105.535 127.608C105.535 127.2 105.451 126.846 105.283 126.546C105.115 126.234 104.881 125.994 104.581 125.826C104.293 125.646 103.951 125.556 103.555 125.556C103.171 125.556 102.829 125.646 102.529 125.826C102.229 125.994 101.995 126.234 101.827 126.546C101.659 126.858 101.575 127.218 101.575 127.626C101.575 128.022 101.659 128.382 101.827 128.706C101.995 129.018 102.229 129.264 102.529 129.444C102.829 129.612 103.171 129.696 103.555 129.696ZM109.714 132V123.252H112.468V132H109.714ZM115.312 132V126.888C115.312 126.444 115.174 126.102 114.898 125.862C114.634 125.61 114.304 125.484 113.908 125.484C113.632 125.484 113.386 125.544 113.17 125.664C112.954 125.772 112.78 125.928 112.648 126.132C112.528 126.336 112.468 126.588 112.468 126.888L111.406 126.42C111.406 125.724 111.556 125.13 111.856 124.638C112.156 124.134 112.564 123.75 113.08 123.486C113.596 123.21 114.178 123.072 114.826 123.072C115.438 123.072 115.984 123.21 116.464 123.486C116.956 123.762 117.346 124.146 117.634 124.638C117.922 125.13 118.066 125.718 118.066 126.402V132H115.312ZM120.91 132V126.888C120.91 126.444 120.772 126.102 120.496 125.862C120.232 125.61 119.902 125.484 119.506 125.484C119.23 125.484 118.984 125.544 118.768 125.664C118.552 125.772 118.378 125.928 118.246 126.132C118.126 126.336 118.066 126.588 118.066 126.888L116.482 126.672C116.506 125.928 116.68 125.292 117.004 124.764C117.34 124.224 117.778 123.81 118.318 123.522C118.87 123.222 119.488 123.072 120.172 123.072C120.844 123.072 121.438 123.216 121.954 123.504C122.482 123.78 122.896 124.182 123.196 124.71C123.508 125.226 123.664 125.85 123.664 126.582V132H120.91ZM129.749 132.198C128.801 132.198 127.955 132.006 127.211 131.622C126.479 131.226 125.903 130.68 125.483 129.984C125.063 129.288 124.853 128.502 124.853 127.626C124.853 126.75 125.057 125.97 125.465 125.286C125.885 124.59 126.449 124.044 127.157 123.648C127.865 123.252 128.663 123.054 129.551 123.054C130.415 123.054 131.177 123.24 131.837 123.612C132.497 123.984 133.013 124.5 133.385 125.16C133.769 125.82 133.961 126.576 133.961 127.428C133.961 127.584 133.949 127.752 133.925 127.932C133.913 128.1 133.883 128.298 133.835 128.526L126.293 128.544V126.654L132.665 126.636L131.477 127.428C131.465 126.924 131.387 126.51 131.243 126.186C131.099 125.85 130.883 125.598 130.595 125.43C130.319 125.25 129.977 125.16 129.569 125.16C129.137 125.16 128.759 125.262 128.435 125.466C128.123 125.658 127.877 125.934 127.697 126.294C127.529 126.654 127.445 127.092 127.445 127.608C127.445 128.124 127.535 128.568 127.715 128.94C127.907 129.3 128.171 129.582 128.507 129.786C128.855 129.978 129.263 130.074 129.731 130.074C130.163 130.074 130.553 130.002 130.901 129.858C131.249 129.702 131.555 129.474 131.819 129.174L133.331 130.686C132.899 131.19 132.377 131.568 131.765 131.82C131.153 132.072 130.481 132.198 129.749 132.198ZM135.29 132V123.252H138.044V132H135.29ZM138.044 127.194L136.892 126.294C137.12 125.274 137.504 124.482 138.044 123.918C138.584 123.354 139.334 123.072 140.294 123.072C140.714 123.072 141.08 123.138 141.392 123.27C141.716 123.39 141.998 123.582 142.238 123.846L140.6 125.916C140.48 125.784 140.33 125.682 140.15 125.61C139.97 125.538 139.766 125.502 139.538 125.502C139.082 125.502 138.716 125.646 138.44 125.934C138.176 126.21 138.044 126.63 138.044 127.194Z" fill="white"/>
<path d="M24.1992 158V149.434H25.1953V157.109H28.998V158H24.1992ZM35.8594 154.777C35.8594 155.305 35.791 155.775 35.6543 156.189C35.5176 156.604 35.3203 156.953 35.0625 157.238C34.8047 157.523 34.4922 157.742 34.125 157.895C33.7617 158.043 33.3496 158.117 32.8887 158.117C32.459 158.117 32.0645 158.043 31.7051 157.895C31.3496 157.742 31.041 157.523 30.7793 157.238C30.5215 156.953 30.3203 156.604 30.1758 156.189C30.0352 155.775 29.9648 155.305 29.9648 154.777C29.9648 154.074 30.084 153.477 30.3223 152.984C30.5605 152.488 30.9004 152.111 31.3418 151.854C31.7871 151.592 32.3164 151.461 32.9297 151.461C33.5156 151.461 34.0273 151.592 34.4648 151.854C34.9062 152.115 35.248 152.494 35.4902 152.99C35.7363 153.482 35.8594 154.078 35.8594 154.777ZM30.9727 154.777C30.9727 155.293 31.041 155.74 31.1777 156.119C31.3145 156.498 31.5254 156.791 31.8105 156.998C32.0957 157.205 32.4629 157.309 32.9121 157.309C33.3574 157.309 33.7227 157.205 34.0078 156.998C34.2969 156.791 34.5098 156.498 34.6465 156.119C34.7832 155.74 34.8516 155.293 34.8516 154.777C34.8516 154.266 34.7832 153.824 34.6465 153.453C34.5098 153.078 34.2988 152.789 34.0137 152.586C33.7285 152.383 33.3594 152.281 32.9062 152.281C32.2383 152.281 31.748 152.502 31.4355 152.943C31.127 153.385 30.9727 153.996 30.9727 154.777ZM40.459 151.461C40.5879 151.461 40.7227 151.469 40.8633 151.484C41.0039 151.496 41.1289 151.514 41.2383 151.537L41.1152 152.439C41.0098 152.412 40.8926 152.391 40.7637 152.375C40.6348 152.359 40.5137 152.352 40.4004 152.352C40.1426 152.352 39.8984 152.404 39.668 152.51C39.4414 152.611 39.2422 152.76 39.0703 152.955C38.8984 153.146 38.7637 153.379 38.666 153.652C38.5684 153.922 38.5195 154.223 38.5195 154.555V158H37.541V151.578H38.3496L38.4551 152.762H38.4961C38.6289 152.523 38.7891 152.307 38.9766 152.111C39.1641 151.912 39.3809 151.754 39.627 151.637C39.877 151.52 40.1543 151.461 40.459 151.461ZM44.9238 151.461C45.4707 151.461 45.9395 151.582 46.3301 151.824C46.7207 152.066 47.0195 152.406 47.2266 152.844C47.4336 153.277 47.5371 153.785 47.5371 154.367V154.971H43.1016C43.1133 155.725 43.3008 156.299 43.6641 156.693C44.0273 157.088 44.5391 157.285 45.1992 157.285C45.6055 157.285 45.9648 157.248 46.2773 157.174C46.5898 157.1 46.9141 156.99 47.25 156.846V157.701C46.9258 157.846 46.6035 157.951 46.2832 158.018C45.9668 158.084 45.5918 158.117 45.1582 158.117C44.541 158.117 44.002 157.992 43.541 157.742C43.084 157.488 42.7285 157.117 42.4746 156.629C42.2207 156.141 42.0938 155.543 42.0938 154.836C42.0938 154.145 42.209 153.547 42.4395 153.043C42.6738 152.535 43.002 152.145 43.4238 151.871C43.8496 151.598 44.3496 151.461 44.9238 151.461ZM44.9121 152.258C44.3926 152.258 43.9785 152.428 43.6699 152.768C43.3613 153.107 43.1777 153.582 43.1191 154.191H46.5176C46.5137 153.809 46.4531 153.473 46.3359 153.184C46.2227 152.891 46.0488 152.664 45.8145 152.504C45.5801 152.34 45.2793 152.258 44.9121 152.258ZM56.1621 151.461C56.8691 151.461 57.4023 151.646 57.7617 152.018C58.1211 152.385 58.3008 152.977 58.3008 153.793V158H57.3398V153.84C57.3398 153.32 57.2266 152.932 57 152.674C56.7773 152.412 56.4453 152.281 56.0039 152.281C55.3828 152.281 54.9316 152.461 54.6504 152.82C54.3691 153.18 54.2285 153.709 54.2285 154.408V158H53.2617V153.84C53.2617 153.492 53.2109 153.203 53.1094 152.973C53.0117 152.742 52.8633 152.57 52.6641 152.457C52.4688 152.34 52.2207 152.281 51.9199 152.281C51.4941 152.281 51.1523 152.369 50.8945 152.545C50.6367 152.721 50.4492 152.982 50.332 153.33C50.2188 153.674 50.1621 154.098 50.1621 154.602V158H49.1895V151.578H49.9746L50.1211 152.486H50.1738C50.3027 152.264 50.4648 152.076 50.6602 151.924C50.8555 151.771 51.0742 151.656 51.3164 151.578C51.5586 151.5 51.8164 151.461 52.0898 151.461C52.5781 151.461 52.9863 151.553 53.3145 151.736C53.6465 151.916 53.8867 152.191 54.0352 152.562H54.0879C54.2988 152.191 54.5879 151.916 54.9551 151.736C55.3223 151.553 55.7246 151.461 56.1621 151.461ZM64.3887 151.578V158H63.416V151.578H64.3887ZM63.9141 149.176C64.0742 149.176 64.2109 149.229 64.3242 149.334C64.4414 149.436 64.5 149.596 64.5 149.814C64.5 150.029 64.4414 150.189 64.3242 150.295C64.2109 150.4 64.0742 150.453 63.9141 150.453C63.7461 150.453 63.6055 150.4 63.4922 150.295C63.3828 150.189 63.3281 150.029 63.3281 149.814C63.3281 149.596 63.3828 149.436 63.4922 149.334C63.6055 149.229 63.7461 149.176 63.9141 149.176ZM69.4688 151.461C70.2695 151.461 70.9082 151.736 71.3848 152.287C71.8613 152.838 72.0996 153.666 72.0996 154.771C72.0996 155.502 71.9902 156.115 71.7715 156.611C71.5527 157.107 71.2441 157.482 70.8457 157.736C70.4512 157.99 69.9844 158.117 69.4453 158.117C69.1055 158.117 68.8066 158.072 68.5488 157.982C68.291 157.893 68.0703 157.771 67.8867 157.619C67.7031 157.467 67.5508 157.301 67.4297 157.121H67.3594C67.3711 157.273 67.3848 157.457 67.4004 157.672C67.4199 157.887 67.4297 158.074 67.4297 158.234V160.871H66.4512V151.578H67.2539L67.3828 152.527H67.4297C67.5547 152.332 67.707 152.154 67.8867 151.994C68.0664 151.83 68.2852 151.701 68.543 151.607C68.8047 151.51 69.1133 151.461 69.4688 151.461ZM69.2988 152.281C68.8535 152.281 68.4941 152.367 68.2207 152.539C67.9512 152.711 67.7539 152.969 67.6289 153.312C67.5039 153.652 67.4375 154.08 67.4297 154.596V154.783C67.4297 155.326 67.4883 155.785 67.6055 156.16C67.7266 156.535 67.9238 156.82 68.1973 157.016C68.4746 157.211 68.8457 157.309 69.3105 157.309C69.709 157.309 70.041 157.201 70.3066 156.986C70.5723 156.771 70.7695 156.473 70.8984 156.09C71.0312 155.703 71.0977 155.26 71.0977 154.76C71.0977 154.002 70.9492 153.4 70.6523 152.955C70.3594 152.506 69.9082 152.281 69.2988 152.281ZM77.9531 156.242C77.9531 156.652 77.8496 156.998 77.6426 157.279C77.4395 157.557 77.1465 157.766 76.7637 157.906C76.3848 158.047 75.9316 158.117 75.4043 158.117C74.9551 158.117 74.5664 158.082 74.2383 158.012C73.9102 157.941 73.623 157.842 73.377 157.713V156.816C73.6387 156.945 73.9512 157.062 74.3145 157.168C74.6777 157.273 75.0488 157.326 75.4277 157.326C75.9824 157.326 76.3848 157.236 76.6348 157.057C76.8848 156.877 77.0098 156.633 77.0098 156.324C77.0098 156.148 76.959 155.994 76.8574 155.861C76.7598 155.725 76.5938 155.594 76.3594 155.469C76.125 155.34 75.8008 155.199 75.3867 155.047C74.9766 154.891 74.6211 154.736 74.3203 154.584C74.0234 154.428 73.793 154.238 73.6289 154.016C73.4688 153.793 73.3887 153.504 73.3887 153.148C73.3887 152.605 73.6074 152.189 74.0449 151.9C74.4863 151.607 75.0645 151.461 75.7793 151.461C76.166 151.461 76.5273 151.5 76.8633 151.578C77.2031 151.652 77.5195 151.754 77.8125 151.883L77.4844 152.662C77.2188 152.549 76.9355 152.453 76.6348 152.375C76.334 152.297 76.0273 152.258 75.7148 152.258C75.2656 152.258 74.9199 152.332 74.6777 152.48C74.4395 152.629 74.3203 152.832 74.3203 153.09C74.3203 153.289 74.375 153.453 74.4844 153.582C74.5977 153.711 74.7773 153.832 75.0234 153.945C75.2695 154.059 75.5938 154.191 75.9961 154.344C76.3984 154.492 76.7461 154.646 77.0391 154.807C77.332 154.963 77.5566 155.154 77.7129 155.381C77.873 155.604 77.9531 155.891 77.9531 156.242ZM84.8203 151.578V158H84.0234L83.8828 157.098H83.8301C83.6973 157.32 83.5254 157.508 83.3145 157.66C83.1035 157.812 82.8652 157.926 82.5996 158C82.3379 158.078 82.0586 158.117 81.7617 158.117C81.2539 158.117 80.8281 158.035 80.4844 157.871C80.1406 157.707 79.8809 157.453 79.7051 157.109C79.5332 156.766 79.4473 156.324 79.4473 155.785V151.578H80.4316V155.715C80.4316 156.25 80.5527 156.65 80.7949 156.916C81.0371 157.178 81.4062 157.309 81.9023 157.309C82.3789 157.309 82.7578 157.219 83.0391 157.039C83.3242 156.859 83.5293 156.596 83.6543 156.248C83.7793 155.896 83.8418 155.467 83.8418 154.959V151.578H84.8203ZM93.8496 151.461C94.5566 151.461 95.0898 151.646 95.4492 152.018C95.8086 152.385 95.9883 152.977 95.9883 153.793V158H95.0273V153.84C95.0273 153.32 94.9141 152.932 94.6875 152.674C94.4648 152.412 94.1328 152.281 93.6914 152.281C93.0703 152.281 92.6191 152.461 92.3379 152.82C92.0566 153.18 91.916 153.709 91.916 154.408V158H90.9492V153.84C90.9492 153.492 90.8984 153.203 90.7969 152.973C90.6992 152.742 90.5508 152.57 90.3516 152.457C90.1562 152.34 89.9082 152.281 89.6074 152.281C89.1816 152.281 88.8398 152.369 88.582 152.545C88.3242 152.721 88.1367 152.982 88.0195 153.33C87.9062 153.674 87.8496 154.098 87.8496 154.602V158H86.877V151.578H87.6621L87.8086 152.486H87.8613C87.9902 152.264 88.1523 152.076 88.3477 151.924C88.543 151.771 88.7617 151.656 89.0039 151.578C89.2461 151.5 89.5039 151.461 89.7773 151.461C90.2656 151.461 90.6738 151.553 91.002 151.736C91.334 151.916 91.5742 152.191 91.7227 152.562H91.7754C91.9863 152.191 92.2754 151.916 92.6426 151.736C93.0098 151.553 93.4121 151.461 93.8496 151.461ZM103.389 158.117C102.576 158.117 101.932 157.84 101.455 157.285C100.982 156.73 100.746 155.906 100.746 154.812C100.746 153.707 100.988 152.873 101.473 152.311C101.957 151.744 102.602 151.461 103.406 151.461C103.746 151.461 104.043 151.506 104.297 151.596C104.551 151.686 104.77 151.807 104.953 151.959C105.137 152.107 105.291 152.277 105.416 152.469H105.486C105.471 152.348 105.455 152.182 105.439 151.971C105.424 151.76 105.416 151.588 105.416 151.455V148.883H106.389V158H105.604L105.457 157.086H105.416C105.295 157.277 105.141 157.451 104.953 157.607C104.77 157.764 104.549 157.889 104.291 157.982C104.037 158.072 103.736 158.117 103.389 158.117ZM103.541 157.309C104.229 157.309 104.715 157.113 105 156.723C105.285 156.332 105.428 155.752 105.428 154.982V154.807C105.428 153.99 105.291 153.363 105.018 152.926C104.748 152.488 104.256 152.27 103.541 152.27C102.943 152.27 102.496 152.5 102.199 152.961C101.902 153.418 101.754 154.043 101.754 154.836C101.754 155.625 101.9 156.234 102.193 156.664C102.49 157.094 102.939 157.309 103.541 157.309ZM113.988 154.777C113.988 155.305 113.92 155.775 113.783 156.189C113.646 156.604 113.449 156.953 113.191 157.238C112.934 157.523 112.621 157.742 112.254 157.895C111.891 158.043 111.479 158.117 111.018 158.117C110.588 158.117 110.193 158.043 109.834 157.895C109.479 157.742 109.17 157.523 108.908 157.238C108.65 156.953 108.449 156.604 108.305 156.189C108.164 155.775 108.094 155.305 108.094 154.777C108.094 154.074 108.213 153.477 108.451 152.984C108.689 152.488 109.029 152.111 109.471 151.854C109.916 151.592 110.445 151.461 111.059 151.461C111.645 151.461 112.156 151.592 112.594 151.854C113.035 152.115 113.377 152.494 113.619 152.99C113.865 153.482 113.988 154.078 113.988 154.777ZM109.102 154.777C109.102 155.293 109.17 155.74 109.307 156.119C109.443 156.498 109.654 156.791 109.939 156.998C110.225 157.205 110.592 157.309 111.041 157.309C111.486 157.309 111.852 157.205 112.137 156.998C112.426 156.791 112.639 156.498 112.775 156.119C112.912 155.74 112.98 155.293 112.98 154.777C112.98 154.266 112.912 153.824 112.775 153.453C112.639 153.078 112.428 152.789 112.143 152.586C111.857 152.383 111.488 152.281 111.035 152.281C110.367 152.281 109.877 152.502 109.564 152.943C109.256 153.385 109.102 153.996 109.102 154.777ZM116.648 158H115.67V148.883H116.648V158ZM124.242 154.777C124.242 155.305 124.174 155.775 124.037 156.189C123.9 156.604 123.703 156.953 123.445 157.238C123.188 157.523 122.875 157.742 122.508 157.895C122.145 158.043 121.732 158.117 121.271 158.117C120.842 158.117 120.447 158.043 120.088 157.895C119.732 157.742 119.424 157.523 119.162 157.238C118.904 156.953 118.703 156.604 118.559 156.189C118.418 155.775 118.348 155.305 118.348 154.777C118.348 154.074 118.467 153.477 118.705 152.984C118.943 152.488 119.283 152.111 119.725 151.854C120.17 151.592 120.699 151.461 121.312 151.461C121.898 151.461 122.41 151.592 122.848 151.854C123.289 152.115 123.631 152.494 123.873 152.99C124.119 153.482 124.242 154.078 124.242 154.777ZM119.355 154.777C119.355 155.293 119.424 155.74 119.561 156.119C119.697 156.498 119.908 156.791 120.193 156.998C120.479 157.205 120.846 157.309 121.295 157.309C121.74 157.309 122.105 157.205 122.391 156.998C122.68 156.791 122.893 156.498 123.029 156.119C123.166 155.74 123.234 155.293 123.234 154.777C123.234 154.266 123.166 153.824 123.029 153.453C122.893 153.078 122.682 152.789 122.396 152.586C122.111 152.383 121.742 152.281 121.289 152.281C120.621 152.281 120.131 152.502 119.818 152.943C119.51 153.385 119.355 153.996 119.355 154.777ZM128.842 151.461C128.971 151.461 129.105 151.469 129.246 151.484C129.387 151.496 129.512 151.514 129.621 151.537L129.498 152.439C129.393 152.412 129.275 152.391 129.146 152.375C129.018 152.359 128.896 152.352 128.783 152.352C128.525 152.352 128.281 152.404 128.051 152.51C127.824 152.611 127.625 152.76 127.453 152.955C127.281 153.146 127.146 153.379 127.049 153.652C126.951 153.922 126.902 154.223 126.902 154.555V158H125.924V151.578H126.732L126.838 152.762H126.879C127.012 152.523 127.172 152.307 127.359 152.111C127.547 151.912 127.764 151.754 128.01 151.637C128.26 151.52 128.537 151.461 128.842 151.461ZM138.105 156.242C138.105 156.652 138.002 156.998 137.795 157.279C137.592 157.557 137.299 157.766 136.916 157.906C136.537 158.047 136.084 158.117 135.557 158.117C135.107 158.117 134.719 158.082 134.391 158.012C134.062 157.941 133.775 157.842 133.529 157.713V156.816C133.791 156.945 134.104 157.062 134.467 157.168C134.83 157.273 135.201 157.326 135.58 157.326C136.135 157.326 136.537 157.236 136.787 157.057C137.037 156.877 137.162 156.633 137.162 156.324C137.162 156.148 137.111 155.994 137.01 155.861C136.912 155.725 136.746 155.594 136.512 155.469C136.277 155.34 135.953 155.199 135.539 155.047C135.129 154.891 134.773 154.736 134.473 154.584C134.176 154.428 133.945 154.238 133.781 154.016C133.621 153.793 133.541 153.504 133.541 153.148C133.541 152.605 133.76 152.189 134.197 151.9C134.639 151.607 135.217 151.461 135.932 151.461C136.318 151.461 136.68 151.5 137.016 151.578C137.355 151.652 137.672 151.754 137.965 151.883L137.637 152.662C137.371 152.549 137.088 152.453 136.787 152.375C136.486 152.297 136.18 152.258 135.867 152.258C135.418 152.258 135.072 152.332 134.83 152.48C134.592 152.629 134.473 152.832 134.473 153.09C134.473 153.289 134.527 153.453 134.637 153.582C134.75 153.711 134.93 153.832 135.176 153.945C135.422 154.059 135.746 154.191 136.148 154.344C136.551 154.492 136.898 154.646 137.191 154.807C137.484 154.963 137.709 155.154 137.865 155.381C138.025 155.604 138.105 155.891 138.105 156.242ZM140.643 151.578V158H139.67V151.578H140.643ZM140.168 149.176C140.328 149.176 140.465 149.229 140.578 149.334C140.695 149.436 140.754 149.596 140.754 149.814C140.754 150.029 140.695 150.189 140.578 150.295C140.465 150.4 140.328 150.453 140.168 150.453C140 150.453 139.859 150.4 139.746 150.295C139.637 150.189 139.582 150.029 139.582 149.814C139.582 149.596 139.637 149.436 139.746 149.334C139.859 149.229 140 149.176 140.168 149.176ZM144.779 157.32C144.939 157.32 145.104 157.307 145.271 157.279C145.439 157.252 145.576 157.219 145.682 157.18V157.936C145.568 157.986 145.41 158.029 145.207 158.064C145.008 158.1 144.812 158.117 144.621 158.117C144.281 158.117 143.973 158.059 143.695 157.941C143.418 157.82 143.195 157.617 143.027 157.332C142.863 157.047 142.781 156.652 142.781 156.148V152.34H141.867V151.865L142.787 151.484L143.174 150.09H143.76V151.578H145.641V152.34H143.76V156.119C143.76 156.521 143.852 156.822 144.035 157.021C144.223 157.221 144.471 157.32 144.779 157.32ZM152.502 151.473C153.268 151.473 153.836 151.645 154.207 151.988C154.578 152.332 154.764 152.881 154.764 153.635V158H154.055L153.867 157.051H153.82C153.641 157.285 153.453 157.482 153.258 157.643C153.062 157.799 152.836 157.918 152.578 158C152.324 158.078 152.012 158.117 151.641 158.117C151.25 158.117 150.902 158.049 150.598 157.912C150.297 157.775 150.059 157.568 149.883 157.291C149.711 157.014 149.625 156.662 149.625 156.236C149.625 155.596 149.879 155.104 150.387 154.76C150.895 154.416 151.668 154.229 152.707 154.197L153.814 154.15V153.758C153.814 153.203 153.695 152.814 153.457 152.592C153.219 152.369 152.883 152.258 152.449 152.258C152.113 152.258 151.793 152.307 151.488 152.404C151.184 152.502 150.895 152.617 150.621 152.75L150.322 152.012C150.611 151.863 150.943 151.736 151.318 151.631C151.693 151.525 152.088 151.473 152.502 151.473ZM153.803 154.836L152.824 154.877C152.023 154.908 151.459 155.039 151.131 155.27C150.803 155.5 150.639 155.826 150.639 156.248C150.639 156.615 150.75 156.887 150.973 157.062C151.195 157.238 151.49 157.326 151.857 157.326C152.428 157.326 152.895 157.168 153.258 156.852C153.621 156.535 153.803 156.061 153.803 155.428V154.836ZM163.74 151.461C164.447 151.461 164.98 151.646 165.34 152.018C165.699 152.385 165.879 152.977 165.879 153.793V158H164.918V153.84C164.918 153.32 164.805 152.932 164.578 152.674C164.355 152.412 164.023 152.281 163.582 152.281C162.961 152.281 162.51 152.461 162.229 152.82C161.947 153.18 161.807 153.709 161.807 154.408V158H160.84V153.84C160.84 153.492 160.789 153.203 160.688 152.973C160.59 152.742 160.441 152.57 160.242 152.457C160.047 152.34 159.799 152.281 159.498 152.281C159.072 152.281 158.73 152.369 158.473 152.545C158.215 152.721 158.027 152.982 157.91 153.33C157.797 153.674 157.74 154.098 157.74 154.602V158H156.768V151.578H157.553L157.699 152.486H157.752C157.881 152.264 158.043 152.076 158.238 151.924C158.434 151.771 158.652 151.656 158.895 151.578C159.137 151.5 159.395 151.461 159.668 151.461C160.156 151.461 160.564 151.553 160.893 151.736C161.225 151.916 161.465 152.191 161.613 152.562H161.666C161.877 152.191 162.166 151.916 162.533 151.736C162.9 151.553 163.303 151.461 163.74 151.461ZM170.35 151.461C170.896 151.461 171.365 151.582 171.756 151.824C172.146 152.066 172.445 152.406 172.652 152.844C172.859 153.277 172.963 153.785 172.963 154.367V154.971H168.527C168.539 155.725 168.727 156.299 169.09 156.693C169.453 157.088 169.965 157.285 170.625 157.285C171.031 157.285 171.391 157.248 171.703 157.174C172.016 157.1 172.34 156.99 172.676 156.846V157.701C172.352 157.846 172.029 157.951 171.709 158.018C171.393 158.084 171.018 158.117 170.584 158.117C169.967 158.117 169.428 157.992 168.967 157.742C168.51 157.488 168.154 157.117 167.9 156.629C167.646 156.141 167.52 155.543 167.52 154.836C167.52 154.145 167.635 153.547 167.865 153.043C168.1 152.535 168.428 152.145 168.85 151.871C169.275 151.598 169.775 151.461 170.35 151.461ZM170.338 152.258C169.818 152.258 169.404 152.428 169.096 152.768C168.787 153.107 168.604 153.582 168.545 154.191H171.943C171.939 153.809 171.879 153.473 171.762 153.184C171.648 152.891 171.475 152.664 171.24 152.504C171.006 152.34 170.705 152.258 170.338 152.258ZM176.689 157.32C176.85 157.32 177.014 157.307 177.182 157.279C177.35 157.252 177.486 157.219 177.592 157.18V157.936C177.479 157.986 177.32 158.029 177.117 158.064C176.918 158.1 176.723 158.117 176.531 158.117C176.191 158.117 175.883 158.059 175.605 157.941C175.328 157.82 175.105 157.617 174.938 157.332C174.773 157.047 174.691 156.652 174.691 156.148V152.34H173.777V151.865L174.697 151.484L175.084 150.09H175.67V151.578H177.551V152.34H175.67V156.119C175.67 156.521 175.762 156.822 175.945 157.021C176.133 157.221 176.381 157.32 176.689 157.32ZM180.006 156.605L180.082 156.74C180.012 157.025 179.922 157.33 179.812 157.654C179.707 157.979 179.59 158.303 179.461 158.627C179.336 158.955 179.209 159.262 179.08 159.547H178.354C178.436 159.234 178.516 158.904 178.594 158.557C178.672 158.213 178.742 157.873 178.805 157.537C178.871 157.197 178.924 156.887 178.963 156.605H180.006ZM43.0781 176.117C42.5 176.117 41.9902 175.998 41.5488 175.76C41.1074 175.521 40.7637 175.158 40.5176 174.67C40.2715 174.182 40.1484 173.566 40.1484 172.824C40.1484 172.047 40.2773 171.412 40.5352 170.92C40.7969 170.424 41.1562 170.057 41.6133 169.818C42.0703 169.58 42.5898 169.461 43.1719 169.461C43.4922 169.461 43.8008 169.494 44.0977 169.561C44.3984 169.623 44.6445 169.703 44.8359 169.801L44.543 170.615C44.3477 170.537 44.1211 170.467 43.8633 170.404C43.6094 170.342 43.3711 170.311 43.1484 170.311C42.7031 170.311 42.332 170.406 42.0352 170.598C41.7422 170.789 41.5215 171.07 41.373 171.441C41.2285 171.812 41.1562 172.27 41.1562 172.812C41.1562 173.332 41.2266 173.775 41.3672 174.143C41.5117 174.51 41.7246 174.791 42.0059 174.986C42.291 175.178 42.6465 175.273 43.0723 175.273C43.4121 175.273 43.7188 175.238 43.9922 175.168C44.2656 175.094 44.5137 175.008 44.7363 174.91V175.777C44.5215 175.887 44.2812 175.971 44.0156 176.029C43.7539 176.088 43.4414 176.117 43.0781 176.117ZM51.7969 172.777C51.7969 173.305 51.7285 173.775 51.5918 174.189C51.4551 174.604 51.2578 174.953 51 175.238C50.7422 175.523 50.4297 175.742 50.0625 175.895C49.6992 176.043 49.2871 176.117 48.8262 176.117C48.3965 176.117 48.002 176.043 47.6426 175.895C47.2871 175.742 46.9785 175.523 46.7168 175.238C46.459 174.953 46.2578 174.604 46.1133 174.189C45.9727 173.775 45.9023 173.305 45.9023 172.777C45.9023 172.074 46.0215 171.477 46.2598 170.984C46.498 170.488 46.8379 170.111 47.2793 169.854C47.7246 169.592 48.2539 169.461 48.8672 169.461C49.4531 169.461 49.9648 169.592 50.4023 169.854C50.8438 170.115 51.1855 170.494 51.4277 170.99C51.6738 171.482 51.7969 172.078 51.7969 172.777ZM46.9102 172.777C46.9102 173.293 46.9785 173.74 47.1152 174.119C47.252 174.498 47.4629 174.791 47.748 174.998C48.0332 175.205 48.4004 175.309 48.8496 175.309C49.2949 175.309 49.6602 175.205 49.9453 174.998C50.2344 174.791 50.4473 174.498 50.584 174.119C50.7207 173.74 50.7891 173.293 50.7891 172.777C50.7891 172.266 50.7207 171.824 50.584 171.453C50.4473 171.078 50.2363 170.789 49.9512 170.586C49.666 170.383 49.2969 170.281 48.8438 170.281C48.1758 170.281 47.6855 170.502 47.373 170.943C47.0645 171.385 46.9102 171.996 46.9102 172.777ZM56.5195 169.461C57.2812 169.461 57.8574 169.648 58.248 170.023C58.6387 170.395 58.834 170.992 58.834 171.816V176H57.873V171.881C57.873 171.346 57.75 170.945 57.5039 170.68C57.2617 170.414 56.8887 170.281 56.3848 170.281C55.6738 170.281 55.1738 170.482 54.8848 170.885C54.5957 171.287 54.4512 171.871 54.4512 172.637V176H53.4785V169.578H54.2637L54.4102 170.504H54.4629C54.5996 170.277 54.7734 170.088 54.9844 169.936C55.1953 169.779 55.4316 169.662 55.6934 169.584C55.9551 169.502 56.2305 169.461 56.5195 169.461ZM64.9922 174.242C64.9922 174.652 64.8887 174.998 64.6816 175.279C64.4785 175.557 64.1855 175.766 63.8027 175.906C63.4238 176.047 62.9707 176.117 62.4434 176.117C61.9941 176.117 61.6055 176.082 61.2773 176.012C60.9492 175.941 60.6621 175.842 60.416 175.713V174.816C60.6777 174.945 60.9902 175.062 61.3535 175.168C61.7168 175.273 62.0879 175.326 62.4668 175.326C63.0215 175.326 63.4238 175.236 63.6738 175.057C63.9238 174.877 64.0488 174.633 64.0488 174.324C64.0488 174.148 63.998 173.994 63.8965 173.861C63.7988 173.725 63.6328 173.594 63.3984 173.469C63.1641 173.34 62.8398 173.199 62.4258 173.047C62.0156 172.891 61.6602 172.736 61.3594 172.584C61.0625 172.428 60.832 172.238 60.668 172.016C60.5078 171.793 60.4277 171.504 60.4277 171.148C60.4277 170.605 60.6465 170.189 61.084 169.9C61.5254 169.607 62.1035 169.461 62.8184 169.461C63.2051 169.461 63.5664 169.5 63.9023 169.578C64.2422 169.652 64.5586 169.754 64.8516 169.883L64.5234 170.662C64.2578 170.549 63.9746 170.453 63.6738 170.375C63.373 170.297 63.0664 170.258 62.7539 170.258C62.3047 170.258 61.959 170.332 61.7168 170.48C61.4785 170.629 61.3594 170.832 61.3594 171.09C61.3594 171.289 61.4141 171.453 61.5234 171.582C61.6367 171.711 61.8164 171.832 62.0625 171.945C62.3086 172.059 62.6328 172.191 63.0352 172.344C63.4375 172.492 63.7852 172.646 64.0781 172.807C64.3711 172.963 64.5957 173.154 64.752 173.381C64.9121 173.604 64.9922 173.891 64.9922 174.242ZM69.0293 169.461C69.5762 169.461 70.0449 169.582 70.4355 169.824C70.8262 170.066 71.125 170.406 71.332 170.844C71.5391 171.277 71.6426 171.785 71.6426 172.367V172.971H67.207C67.2188 173.725 67.4062 174.299 67.7695 174.693C68.1328 175.088 68.6445 175.285 69.3047 175.285C69.7109 175.285 70.0703 175.248 70.3828 175.174C70.6953 175.1 71.0195 174.99 71.3555 174.846V175.701C71.0312 175.846 70.709 175.951 70.3887 176.018C70.0723 176.084 69.6973 176.117 69.2637 176.117C68.6465 176.117 68.1074 175.992 67.6465 175.742C67.1895 175.488 66.834 175.117 66.5801 174.629C66.3262 174.141 66.1992 173.543 66.1992 172.836C66.1992 172.145 66.3145 171.547 66.5449 171.043C66.7793 170.535 67.1074 170.145 67.5293 169.871C67.9551 169.598 68.4551 169.461 69.0293 169.461ZM69.0176 170.258C68.498 170.258 68.084 170.428 67.7754 170.768C67.4668 171.107 67.2832 171.582 67.2246 172.191H70.623C70.6191 171.809 70.5586 171.473 70.4414 171.184C70.3281 170.891 70.1543 170.664 69.9199 170.504C69.6855 170.34 69.3848 170.258 69.0176 170.258ZM75.8672 176.117C75.2891 176.117 74.7793 175.998 74.3379 175.76C73.8965 175.521 73.5527 175.158 73.3066 174.67C73.0605 174.182 72.9375 173.566 72.9375 172.824C72.9375 172.047 73.0664 171.412 73.3242 170.92C73.5859 170.424 73.9453 170.057 74.4023 169.818C74.8594 169.58 75.3789 169.461 75.9609 169.461C76.2812 169.461 76.5898 169.494 76.8867 169.561C77.1875 169.623 77.4336 169.703 77.625 169.801L77.332 170.615C77.1367 170.537 76.9102 170.467 76.6523 170.404C76.3984 170.342 76.1602 170.311 75.9375 170.311C75.4922 170.311 75.1211 170.406 74.8242 170.598C74.5312 170.789 74.3105 171.07 74.1621 171.441C74.0176 171.812 73.9453 172.27 73.9453 172.812C73.9453 173.332 74.0156 173.775 74.1562 174.143C74.3008 174.51 74.5137 174.791 74.7949 174.986C75.0801 175.178 75.4355 175.273 75.8613 175.273C76.2012 175.273 76.5078 175.238 76.7812 175.168C77.0547 175.094 77.3027 175.008 77.5254 174.91V175.777C77.3105 175.887 77.0703 175.971 76.8047 176.029C76.543 176.088 76.2305 176.117 75.8672 176.117ZM81.123 175.32C81.2832 175.32 81.4473 175.307 81.6152 175.279C81.7832 175.252 81.9199 175.219 82.0254 175.18V175.936C81.9121 175.986 81.7539 176.029 81.5508 176.064C81.3516 176.1 81.1562 176.117 80.9648 176.117C80.625 176.117 80.3164 176.059 80.0391 175.941C79.7617 175.82 79.5391 175.617 79.3711 175.332C79.207 175.047 79.125 174.652 79.125 174.148V170.34H78.2109V169.865L79.1309 169.484L79.5176 168.09H80.1035V169.578H81.9844V170.34H80.1035V174.119C80.1035 174.521 80.1953 174.822 80.3789 175.021C80.5664 175.221 80.8145 175.32 81.123 175.32ZM85.7988 169.461C86.3457 169.461 86.8145 169.582 87.2051 169.824C87.5957 170.066 87.8945 170.406 88.1016 170.844C88.3086 171.277 88.4121 171.785 88.4121 172.367V172.971H83.9766C83.9883 173.725 84.1758 174.299 84.5391 174.693C84.9023 175.088 85.4141 175.285 86.0742 175.285C86.4805 175.285 86.8398 175.248 87.1523 175.174C87.4648 175.1 87.7891 174.99 88.125 174.846V175.701C87.8008 175.846 87.4785 175.951 87.1582 176.018C86.8418 176.084 86.4668 176.117 86.0332 176.117C85.416 176.117 84.877 175.992 84.416 175.742C83.959 175.488 83.6035 175.117 83.3496 174.629C83.0957 174.141 82.9688 173.543 82.9688 172.836C82.9688 172.145 83.084 171.547 83.3145 171.043C83.5488 170.535 83.877 170.145 84.2988 169.871C84.7246 169.598 85.2246 169.461 85.7988 169.461ZM85.7871 170.258C85.2676 170.258 84.8535 170.428 84.5449 170.768C84.2363 171.107 84.0527 171.582 83.9941 172.191H87.3926C87.3887 171.809 87.3281 171.473 87.2109 171.184C87.0977 170.891 86.9238 170.664 86.6895 170.504C86.4551 170.34 86.1543 170.258 85.7871 170.258ZM92.1387 175.32C92.2988 175.32 92.4629 175.307 92.6309 175.279C92.7988 175.252 92.9355 175.219 93.041 175.18V175.936C92.9277 175.986 92.7695 176.029 92.5664 176.064C92.3672 176.1 92.1719 176.117 91.9805 176.117C91.6406 176.117 91.332 176.059 91.0547 175.941C90.7773 175.82 90.5547 175.617 90.3867 175.332C90.2227 175.047 90.1406 174.652 90.1406 174.148V170.34H89.2266V169.865L90.1465 169.484L90.5332 168.09H91.1191V169.578H93V170.34H91.1191V174.119C91.1191 174.521 91.2109 174.822 91.3945 175.021C91.582 175.221 91.8301 175.32 92.1387 175.32ZM99.6445 169.578V176H98.8477L98.707 175.098H98.6543C98.5215 175.32 98.3496 175.508 98.1387 175.66C97.9277 175.812 97.6895 175.926 97.4238 176C97.1621 176.078 96.8828 176.117 96.5859 176.117C96.0781 176.117 95.6523 176.035 95.3086 175.871C94.9648 175.707 94.7051 175.453 94.5293 175.109C94.3574 174.766 94.2715 174.324 94.2715 173.785V169.578H95.2559V173.715C95.2559 174.25 95.377 174.65 95.6191 174.916C95.8613 175.178 96.2305 175.309 96.7266 175.309C97.2031 175.309 97.582 175.219 97.8633 175.039C98.1484 174.859 98.3535 174.596 98.4785 174.248C98.6035 173.896 98.666 173.467 98.666 172.959V169.578H99.6445ZM104.619 169.461C104.748 169.461 104.883 169.469 105.023 169.484C105.164 169.496 105.289 169.514 105.398 169.537L105.275 170.439C105.17 170.412 105.053 170.391 104.924 170.375C104.795 170.359 104.674 170.352 104.561 170.352C104.303 170.352 104.059 170.404 103.828 170.51C103.602 170.611 103.402 170.76 103.23 170.955C103.059 171.146 102.924 171.379 102.826 171.652C102.729 171.922 102.68 172.223 102.68 172.555V176H101.701V169.578H102.51L102.615 170.762H102.656C102.789 170.523 102.949 170.307 103.137 170.111C103.324 169.912 103.541 169.754 103.787 169.637C104.037 169.52 104.314 169.461 104.619 169.461ZM112.131 169.473C112.896 169.473 113.465 169.645 113.836 169.988C114.207 170.332 114.393 170.881 114.393 171.635V176H113.684L113.496 175.051H113.449C113.27 175.285 113.082 175.482 112.887 175.643C112.691 175.799 112.465 175.918 112.207 176C111.953 176.078 111.641 176.117 111.27 176.117C110.879 176.117 110.531 176.049 110.227 175.912C109.926 175.775 109.688 175.568 109.512 175.291C109.34 175.014 109.254 174.662 109.254 174.236C109.254 173.596 109.508 173.104 110.016 172.76C110.523 172.416 111.297 172.229 112.336 172.197L113.443 172.15V171.758C113.443 171.203 113.324 170.814 113.086 170.592C112.848 170.369 112.512 170.258 112.078 170.258C111.742 170.258 111.422 170.307 111.117 170.404C110.812 170.502 110.523 170.617 110.25 170.75L109.951 170.012C110.24 169.863 110.572 169.736 110.947 169.631C111.322 169.525 111.717 169.473 112.131 169.473ZM113.432 172.836L112.453 172.877C111.652 172.908 111.088 173.039 110.76 173.27C110.432 173.5 110.268 173.826 110.268 174.248C110.268 174.615 110.379 174.887 110.602 175.062C110.824 175.238 111.119 175.326 111.486 175.326C112.057 175.326 112.523 175.168 112.887 174.852C113.25 174.535 113.432 174.061 113.432 173.428V172.836ZM118.682 176.117C117.869 176.117 117.225 175.84 116.748 175.285C116.275 174.73 116.039 173.906 116.039 172.812C116.039 171.707 116.281 170.873 116.766 170.311C117.25 169.744 117.895 169.461 118.699 169.461C119.039 169.461 119.336 169.506 119.59 169.596C119.844 169.686 120.062 169.807 120.246 169.959C120.43 170.107 120.584 170.277 120.709 170.469H120.779C120.764 170.348 120.748 170.182 120.732 169.971C120.717 169.76 120.709 169.588 120.709 169.455V166.883H121.682V176H120.896L120.75 175.086H120.709C120.588 175.277 120.434 175.451 120.246 175.607C120.062 175.764 119.842 175.889 119.584 175.982C119.33 176.072 119.029 176.117 118.682 176.117ZM118.834 175.309C119.521 175.309 120.008 175.113 120.293 174.723C120.578 174.332 120.721 173.752 120.721 172.982V172.807C120.721 171.99 120.584 171.363 120.311 170.926C120.041 170.488 119.549 170.27 118.834 170.27C118.236 170.27 117.789 170.5 117.492 170.961C117.195 171.418 117.047 172.043 117.047 172.836C117.047 173.625 117.193 174.234 117.486 174.664C117.783 175.094 118.232 175.309 118.834 175.309ZM124.717 169.578V176H123.744V169.578H124.717ZM124.242 167.176C124.402 167.176 124.539 167.229 124.652 167.334C124.77 167.436 124.828 167.596 124.828 167.814C124.828 168.029 124.77 168.189 124.652 168.295C124.539 168.4 124.402 168.453 124.242 168.453C124.074 168.453 123.934 168.4 123.82 168.295C123.711 168.189 123.656 168.029 123.656 167.814C123.656 167.596 123.711 167.436 123.82 167.334C123.934 167.229 124.074 167.176 124.242 167.176ZM129.797 169.461C130.598 169.461 131.236 169.736 131.713 170.287C132.189 170.838 132.428 171.666 132.428 172.771C132.428 173.502 132.318 174.115 132.1 174.611C131.881 175.107 131.572 175.482 131.174 175.736C130.779 175.99 130.312 176.117 129.773 176.117C129.434 176.117 129.135 176.072 128.877 175.982C128.619 175.893 128.398 175.771 128.215 175.619C128.031 175.467 127.879 175.301 127.758 175.121H127.688C127.699 175.273 127.713 175.457 127.729 175.672C127.748 175.887 127.758 176.074 127.758 176.234V178.871H126.779V169.578H127.582L127.711 170.527H127.758C127.883 170.332 128.035 170.154 128.215 169.994C128.395 169.83 128.613 169.701 128.871 169.607C129.133 169.51 129.441 169.461 129.797 169.461ZM129.627 170.281C129.182 170.281 128.822 170.367 128.549 170.539C128.279 170.711 128.082 170.969 127.957 171.312C127.832 171.652 127.766 172.08 127.758 172.596V172.783C127.758 173.326 127.816 173.785 127.934 174.16C128.055 174.535 128.252 174.82 128.525 175.016C128.803 175.211 129.174 175.309 129.639 175.309C130.037 175.309 130.369 175.201 130.635 174.986C130.9 174.771 131.098 174.473 131.227 174.09C131.359 173.703 131.426 173.26 131.426 172.76C131.426 172.002 131.277 171.4 130.98 170.955C130.688 170.506 130.236 170.281 129.627 170.281ZM135.1 169.578V176H134.127V169.578H135.1ZM134.625 167.176C134.785 167.176 134.922 167.229 135.035 167.334C135.152 167.436 135.211 167.596 135.211 167.814C135.211 168.029 135.152 168.189 135.035 168.295C134.922 168.4 134.785 168.453 134.625 168.453C134.457 168.453 134.316 168.4 134.203 168.295C134.094 168.189 134.039 168.029 134.039 167.814C134.039 167.596 134.094 167.436 134.203 167.334C134.316 167.229 134.457 167.176 134.625 167.176ZM141.316 174.242C141.316 174.652 141.213 174.998 141.006 175.279C140.803 175.557 140.51 175.766 140.127 175.906C139.748 176.047 139.295 176.117 138.768 176.117C138.318 176.117 137.93 176.082 137.602 176.012C137.273 175.941 136.986 175.842 136.74 175.713V174.816C137.002 174.945 137.314 175.062 137.678 175.168C138.041 175.273 138.412 175.326 138.791 175.326C139.346 175.326 139.748 175.236 139.998 175.057C140.248 174.877 140.373 174.633 140.373 174.324C140.373 174.148 140.322 173.994 140.221 173.861C140.123 173.725 139.957 173.594 139.723 173.469C139.488 173.34 139.164 173.199 138.75 173.047C138.34 172.891 137.984 172.736 137.684 172.584C137.387 172.428 137.156 172.238 136.992 172.016C136.832 171.793 136.752 171.504 136.752 171.148C136.752 170.605 136.971 170.189 137.408 169.9C137.85 169.607 138.428 169.461 139.143 169.461C139.529 169.461 139.891 169.5 140.227 169.578C140.566 169.652 140.883 169.754 141.176 169.883L140.848 170.662C140.582 170.549 140.299 170.453 139.998 170.375C139.697 170.297 139.391 170.258 139.078 170.258C138.629 170.258 138.283 170.332 138.041 170.48C137.803 170.629 137.684 170.832 137.684 171.09C137.684 171.289 137.738 171.453 137.848 171.582C137.961 171.711 138.141 171.832 138.387 171.945C138.633 172.059 138.957 172.191 139.359 172.344C139.762 172.492 140.109 172.646 140.402 172.807C140.695 172.963 140.92 173.154 141.076 173.381C141.236 173.604 141.316 173.891 141.316 174.242ZM145.453 176.117C144.875 176.117 144.365 175.998 143.924 175.76C143.482 175.521 143.139 175.158 142.893 174.67C142.646 174.182 142.523 173.566 142.523 172.824C142.523 172.047 142.652 171.412 142.91 170.92C143.172 170.424 143.531 170.057 143.988 169.818C144.445 169.58 144.965 169.461 145.547 169.461C145.867 169.461 146.176 169.494 146.473 169.561C146.773 169.623 147.02 169.703 147.211 169.801L146.918 170.615C146.723 170.537 146.496 170.467 146.238 170.404C145.984 170.342 145.746 170.311 145.523 170.311C145.078 170.311 144.707 170.406 144.41 170.598C144.117 170.789 143.896 171.07 143.748 171.441C143.604 171.812 143.531 172.27 143.531 172.812C143.531 173.332 143.602 173.775 143.742 174.143C143.887 174.51 144.1 174.791 144.381 174.986C144.666 175.178 145.021 175.273 145.447 175.273C145.787 175.273 146.094 175.238 146.367 175.168C146.641 175.094 146.889 175.008 147.111 174.91V175.777C146.896 175.887 146.656 175.971 146.391 176.029C146.129 176.088 145.816 176.117 145.453 176.117ZM149.607 169.578V176H148.635V169.578H149.607ZM149.133 167.176C149.293 167.176 149.43 167.229 149.543 167.334C149.66 167.436 149.719 167.596 149.719 167.814C149.719 168.029 149.66 168.189 149.543 168.295C149.43 168.4 149.293 168.453 149.133 168.453C148.965 168.453 148.824 168.4 148.711 168.295C148.602 168.189 148.547 168.029 148.547 167.814C148.547 167.596 148.602 167.436 148.711 167.334C148.824 167.229 148.965 167.176 149.133 167.176ZM154.711 169.461C155.473 169.461 156.049 169.648 156.439 170.023C156.83 170.395 157.025 170.992 157.025 171.816V176H156.064V171.881C156.064 171.346 155.941 170.945 155.695 170.68C155.453 170.414 155.08 170.281 154.576 170.281C153.865 170.281 153.365 170.482 153.076 170.885C152.787 171.287 152.643 171.871 152.643 172.637V176H151.67V169.578H152.455L152.602 170.504H152.654C152.791 170.277 152.965 170.088 153.176 169.936C153.387 169.779 153.623 169.662 153.885 169.584C154.146 169.502 154.422 169.461 154.711 169.461ZM160.822 178.883C159.979 178.883 159.328 178.725 158.871 178.408C158.414 178.096 158.186 177.656 158.186 177.09C158.186 176.688 158.312 176.344 158.566 176.059C158.824 175.773 159.18 175.584 159.633 175.49C159.465 175.412 159.32 175.295 159.199 175.139C159.082 174.982 159.023 174.803 159.023 174.6C159.023 174.365 159.088 174.16 159.217 173.984C159.35 173.805 159.551 173.633 159.82 173.469C159.484 173.332 159.211 173.102 159 172.777C158.793 172.449 158.689 172.068 158.689 171.635C158.689 171.174 158.785 170.781 158.977 170.457C159.168 170.129 159.445 169.879 159.809 169.707C160.172 169.535 160.611 169.449 161.127 169.449C161.24 169.449 161.354 169.455 161.467 169.467C161.584 169.475 161.695 169.488 161.801 169.508C161.906 169.523 161.998 169.543 162.076 169.566H164.279V170.193L163.096 170.34C163.213 170.492 163.311 170.676 163.389 170.891C163.467 171.105 163.506 171.344 163.506 171.605C163.506 172.246 163.289 172.756 162.855 173.135C162.422 173.51 161.826 173.697 161.068 173.697C160.889 173.697 160.705 173.682 160.518 173.65C160.326 173.756 160.18 173.873 160.078 174.002C159.98 174.131 159.932 174.279 159.932 174.447C159.932 174.572 159.969 174.672 160.043 174.746C160.121 174.82 160.232 174.875 160.377 174.91C160.521 174.941 160.695 174.957 160.898 174.957H162.029C162.729 174.957 163.264 175.104 163.635 175.396C164.01 175.689 164.197 176.117 164.197 176.68C164.197 177.391 163.908 177.936 163.33 178.314C162.752 178.693 161.916 178.883 160.822 178.883ZM160.852 178.121C161.383 178.121 161.822 178.066 162.17 177.957C162.521 177.852 162.783 177.697 162.955 177.494C163.131 177.295 163.219 177.057 163.219 176.779C163.219 176.521 163.16 176.326 163.043 176.193C162.926 176.064 162.754 175.979 162.527 175.936C162.301 175.889 162.023 175.865 161.695 175.865H160.582C160.293 175.865 160.041 175.91 159.826 176C159.611 176.09 159.445 176.223 159.328 176.398C159.215 176.574 159.158 176.793 159.158 177.055C159.158 177.402 159.305 177.666 159.598 177.846C159.891 178.029 160.309 178.121 160.852 178.121ZM161.104 172.988C161.568 172.988 161.918 172.871 162.152 172.637C162.387 172.402 162.504 172.061 162.504 171.611C162.504 171.131 162.385 170.771 162.146 170.533C161.908 170.291 161.557 170.17 161.092 170.17C160.646 170.17 160.303 170.295 160.061 170.545C159.822 170.791 159.703 171.152 159.703 171.629C159.703 172.066 159.824 172.402 160.066 172.637C160.309 172.871 160.654 172.988 161.104 172.988Z" fill="white"/>
</svg>
