<svg width="24" height="24" viewBox="0 0 24 24" fill="none" xmlns="http://www.w3.org/2000/svg">
<g clip-path="url(#clip0_151_4969)">
<path d="M10.0413 19.0393V14.236H13.9543V19.0393C13.9543 19.5677 14.3945 20 14.9326 20H17.8673C18.4054 20 18.8456 19.5677 18.8456 19.0393V12.3146H20.5086C20.9586 12.3146 21.1738 11.767 20.8315 11.4788L12.6533 4.24497C12.2815 3.91834 11.7141 3.91834 11.3424 4.24497L3.1642 11.4788C2.8316 11.767 3.03703 12.3146 3.48703 12.3146H5.15006V19.0393C5.15006 19.5677 5.59027 20 6.12831 20H9.06307C9.60111 20 10.0413 19.5677 10.0413 19.0393Z" fill="#707A8C"/>
</g>
<defs>
<clipPath id="clip0_151_4969">
<rect width="24" height="24" fill="white"/>
</clipPath>
</defs>
</svg>
