<svg width="32" height="32" viewBox="0 0 32 32" fill="none" xmlns="http://www.w3.org/2000/svg">
<path fill-rule="evenodd" clip-rule="evenodd" d="M0.117858 0.15124C-0.262941 0.530982 0.280618 1.62024 1.72544 3.37228L2.55813 4.38214L2.145 5.25634C0.912062 7.86457 1.30672 10.8711 3.14242 12.857C4.40251 14.2204 5.79653 14.8381 7.87728 14.9553L9.22414 15.0313L9.52741 15.761C9.97188 16.8305 10.6695 17.5631 11.7466 18.0919C12.5829 18.5025 12.8092 18.5514 13.8749 18.5514C14.8687 18.5514 15.1974 18.4905 15.8479 18.1864L16.6284 17.8213L20.2563 21.2452C22.2516 23.1281 23.9005 24.7075 23.9207 24.7547C23.9866 24.9099 22.4413 25.7615 21.7012 25.9778C21.2052 26.1228 20.5906 26.1713 19.7536 26.1314C18.7304 26.0826 18.3812 25.9997 17.6164 25.6243C15.7268 24.6966 14.2456 22.632 14.064 20.6725C13.9372 19.305 13.6679 19.6941 13.6679 21.2449C13.6679 22.2645 13.7264 22.582 14.0332 23.2266C14.7906 24.818 16.4352 26.1857 18.2542 26.7367C20.1274 27.3041 22.5367 26.9194 23.9766 25.8229L24.5862 25.3587L25.518 26.2115C28.1667 28.6362 31.0686 31.2762 31.4325 31.5921L31.8437 31.9491L31.4118 31.3909C30.8207 30.6269 27.7165 27.282 22.2779 21.5484L17.7074 16.7301L18.1013 15.8962C18.318 15.4376 18.4954 14.9132 18.4957 14.7308L18.4961 14.3992L20.0705 14.4595C21.4907 14.5138 21.744 14.5653 22.6568 14.9848C23.8826 15.5483 25.0432 16.6901 25.6042 17.8841C25.9444 18.608 25.9834 18.8486 25.9834 20.2261C25.9834 21.7124 25.9673 21.7933 25.4762 22.7673C25.0022 23.708 24.9847 23.7875 25.2073 23.9885C25.3383 24.1068 25.487 24.2035 25.5375 24.2035C25.7032 24.2035 26.4716 22.5485 26.6846 21.7329C27.0752 20.2375 26.8778 18.424 26.1747 17.0497C25.7636 16.2461 24.3728 14.8332 23.5571 14.3904C22.5524 13.8451 21.4037 13.597 19.8841 13.597H18.5319L18.4406 13.0272C18.2277 11.7 17.0737 10.2636 15.7218 9.6434C14.77 9.20672 12.9578 9.2183 11.9885 9.66727L11.2888 9.99133L8.10931 6.73512C6.36066 4.94414 4.92787 3.42838 4.92549 3.36656C4.91738 3.15764 6.38459 2.58698 7.30265 2.44183C9.22624 2.13787 11.2002 2.8086 12.475 4.19959C13.343 5.14665 13.8126 6.03564 14.1472 7.36481L14.3987 8.3635L14.5041 7.56284C14.7055 6.03159 14.2064 4.71219 12.9651 3.49398C10.7588 1.32857 7.22638 0.882114 4.68646 2.44756L4.20014 2.74719L3.68598 2.26055C2.3741 1.0186 0.411469 -0.141696 0.117858 0.15124ZM1.86119 1.56093C2.06398 1.69463 2.55519 2.10801 2.95279 2.47924C3.54994 3.03678 3.64595 3.18988 3.5053 3.35916C3.36759 3.52454 3.39166 3.6207 3.63056 3.85879C3.87449 4.10204 3.96349 4.12283 4.13899 3.97769C4.31882 3.82878 4.4771 3.93526 5.16131 4.666C6.4652 6.05853 6.83775 6.89882 5.97819 6.50819C5.5498 6.3135 2.73447 3.61902 1.82131 2.52962C0.913883 1.44705 0.934316 0.949243 1.86119 1.56093ZM4.28076 6.02824C4.82543 6.54769 6.30356 7.95752 7.56547 9.16122L9.85993 11.3498L9.57457 12.0198C9.41755 12.3883 9.24513 13.0196 9.19125 13.4225L9.09329 14.1552H8.34359C6.10679 14.1552 4.06831 13.0382 2.99561 11.2245C2.13801 9.77431 2.03585 7.53758 2.75434 5.94088C2.9665 5.46958 3.1739 5.08384 3.21533 5.08384C3.25675 5.08384 3.73622 5.5088 4.28076 6.02824ZM15.6384 10.1649C16.0308 10.3441 16.6142 10.763 16.935 11.0958C17.517 11.7 18.0862 12.9095 18.0652 13.4976C18.0591 13.6694 17.9257 13.4383 17.7645 12.9765C16.7946 10.1979 13.1479 9.36038 10.962 11.414C10.4432 11.9013 10.14 12.4131 9.87518 13.2481C9.70766 13.7762 9.69772 13.7837 9.69184 13.3877C9.68835 13.1574 9.81332 12.6882 9.96936 12.3449C11.0153 10.0455 13.3827 9.13512 15.6384 10.1649ZM14.4096 11.3919C14.502 11.4841 14.5776 11.7227 14.5776 11.9223C14.5776 12.3905 14.3392 12.6201 13.8531 12.6201C13.5929 12.6201 13.3886 12.5047 13.2352 12.2712C13.0229 11.948 13.0229 11.8966 13.2352 11.5734C13.485 11.1932 14.1131 11.0962 14.4096 11.3919ZM12.3384 13.4574C12.4923 13.6109 12.6183 13.8308 12.6183 13.9459C12.6183 14.2271 12.1155 14.7135 11.8247 14.7135C11.4773 14.7135 11.0789 14.2961 11.0789 13.9322C11.0789 13.6135 11.5411 13.1783 11.8798 13.1783C11.978 13.1783 12.1845 13.3039 12.3384 13.4574ZM16.3969 13.4574C16.5508 13.6109 16.6768 13.8308 16.6768 13.9459C16.6768 14.2271 16.174 14.7135 15.8832 14.7135C15.5358 14.7135 15.1374 14.2961 15.1374 13.9322C15.1374 13.6135 15.5996 13.1783 15.9383 13.1783C16.0365 13.1783 16.243 13.3039 16.3969 13.4574ZM14.4096 15.4392C14.502 15.5313 14.5776 15.7699 14.5776 15.9695C14.5776 16.4377 14.3392 16.6673 13.8531 16.6673C13.5929 16.6673 13.3886 16.5519 13.2352 16.3184C13.0229 15.9952 13.0229 15.9438 13.2352 15.6206C13.485 15.2405 14.1131 15.1435 14.4096 15.4392Z" fill="#FF7126"/>
</svg>
