<svg width="16" height="14" viewBox="0 0 16 14" fill="none" xmlns="http://www.w3.org/2000/svg">
<path d="M3.3822 3.35181C3.38086 3.35219 3.37951 3.35258 3.37817 3.35315C3.37759 3.35335 3.3772 3.35354 3.37682 3.35373C3.34778 3.36142 3.31931 3.36508 3.29047 3.37085C3.07968 3.41354 2.8687 3.40931 2.66425 3.35469C2.66098 3.35373 2.6579 3.35277 2.65463 3.35181V3.56855H3.38218L3.3822 3.35181Z" fill="#071245"/>
<path d="M3.45115 3.07745C3.90311 2.88225 4.19391 2.41741 4.19391 1.89198C4.19391 1.18866 3.66675 0.616699 3.01902 0.616699C2.37089 0.616699 1.84393 1.18886 1.84393 1.89198C1.84393 2.41761 2.13472 2.88263 2.58497 3.07667C2.63343 3.09878 2.68036 3.11571 2.72883 3.13032C2.77979 3.14378 2.83249 3.15282 2.88614 3.15898C3.02693 3.17513 3.17405 3.16609 3.31291 3.12917C3.35772 3.11532 3.40427 3.09859 3.45119 3.07724C3.451 3.07743 3.45119 3.07743 3.45119 3.07743L3.45115 3.07745Z" fill="#071245"/>
<path d="M3.99621 13.9087C4.20584 13.9087 4.37662 13.7381 4.37662 13.5283V12.8838H3.6156V13.5283C3.61579 13.7381 3.78658 13.9087 3.99621 13.9087H3.99621Z" fill="#071245"/>
<path d="M13.2602 10.0177H14.8168V8.00562H11.139L11.1325 8.09447V10.0177L13.2602 10.0177Z" fill="#071245"/>
<path d="M15.0499 7.88923L15.1232 8.90356H16L15.5148 4.92825C15.4355 4.28628 14.8876 3.802 14.2406 3.802H13.5773C13.5763 3.81739 13.5723 3.83181 13.5702 3.84681C13.5677 3.86451 13.5657 3.88239 13.5617 3.89951C13.5569 3.92009 13.55 3.9397 13.543 3.95952C13.5373 3.97586 13.5323 3.9924 13.5253 4.00817C13.5167 4.02741 13.5059 4.0451 13.4955 4.06318C13.4871 4.0778 13.4794 4.0926 13.4698 4.10645C13.4576 4.12376 13.4434 4.13915 13.4296 4.15511C13.4188 4.16742 13.4088 4.1805 13.3971 4.19204C13.3817 4.20704 13.3644 4.21973 13.3473 4.233C13.3346 4.24281 13.3228 4.25377 13.3096 4.26262C13.2907 4.27512 13.2701 4.28474 13.2499 4.29493C13.2365 4.30185 13.2238 4.30993 13.2097 4.31589C13.1863 4.3257 13.1613 4.33185 13.1365 4.33859C13.124 4.34186 13.1124 4.34705 13.0995 4.34955C13.0613 4.35724 13.022 4.36147 12.9816 4.36147C12.9413 4.36147 12.9018 4.35724 12.8636 4.34955C12.8509 4.34705 12.8391 4.34186 12.8266 4.33859C12.8018 4.33185 12.7768 4.32551 12.7534 4.31589C12.7393 4.31012 12.7266 4.30185 12.7132 4.29493C12.693 4.28474 12.6724 4.27493 12.6535 4.26243C12.6401 4.25358 12.6285 4.24281 12.6159 4.233C12.5987 4.21973 12.5814 4.20684 12.566 4.19184C12.5543 4.1805 12.5443 4.16742 12.5335 4.15511C12.5197 4.13915 12.5055 4.12376 12.4933 4.10645C12.4837 4.0928 12.476 4.0778 12.4676 4.06318C12.457 4.0451 12.4462 4.02741 12.4376 4.00817C12.4305 3.9926 12.4255 3.97606 12.4199 3.95971C12.413 3.9399 12.406 3.92028 12.4012 3.8997C12.3972 3.88239 12.3953 3.8647 12.3928 3.847C12.3906 3.832 12.3866 3.81758 12.3856 3.80219H11.7246C11.0773 3.80219 10.5297 4.28646 10.4507 4.92864L9.96332 8.90375H10.8399L10.8992 8.08463L10.8994 7.88923C10.8994 7.86711 10.9073 7.8475 10.9178 7.83L11.0792 5.60749C11.084 5.54325 11.1461 5.49518 11.204 5.4996C11.2682 5.50421 11.3165 5.55999 11.3119 5.62422L11.1559 7.77248H14.808L14.6516 5.62402C14.647 5.55979 14.6953 5.50401 14.7595 5.4994C14.8182 5.49517 14.8795 5.54286 14.8843 5.60729L15.0499 7.88076C15.0501 7.8823 15.0493 7.88364 15.0493 7.88518C15.0491 7.88653 15.0499 7.88768 15.0499 7.88922L15.0499 7.88923Z" fill="#071245"/>
<path d="M4.52348 3.59104C4.54368 3.59431 4.56349 3.59796 4.58368 3.60219C4.66157 3.61816 4.73812 3.63816 4.81216 3.66585C4.81428 3.66662 4.81658 3.66682 4.81889 3.66778V1.82014C4.81889 1.3401 4.63157 0.888326 4.29115 0.547916C3.95035 0.20731 3.49856 0.0197754 3.01833 0.0197754C2.02575 0.0197754 1.21835 0.827324 1.21835 1.8199V3.66753C1.22085 3.66657 1.22374 3.66638 1.22624 3.66542C1.29951 3.63811 1.37548 3.6181 1.45261 3.60234C1.47299 3.5981 1.49319 3.59445 1.51396 3.59099C1.59492 3.57791 1.67666 3.56868 1.75936 3.56868H2.42152V3.25366C1.92839 3.0071 1.61048 2.48303 1.61048 1.89202C1.61048 1.0602 2.24226 0.383415 3.01884 0.383415C3.79527 0.383415 4.42705 1.0602 4.42705 1.89202C4.42705 2.48244 4.10972 3.00615 3.61547 3.25385V3.56868H4.27762C4.36032 3.56868 4.44225 3.57772 4.52341 3.59099L4.52348 3.59104Z" fill="#071245"/>
<path d="M11.1323 13.2603C11.1323 13.6574 11.4554 13.9805 11.8525 13.9805H11.8987C12.2958 13.9805 12.6187 13.6574 12.6187 13.2603V10.251H11.1323L11.1323 13.2603Z" fill="#071245"/>
<path d="M5.14682 12.6502L4.95065 9.30664H1.08552L0.88916 12.6502H5.14682Z" fill="#071245"/>
<path d="M14.0967 13.9805C14.4939 13.9805 14.817 13.6574 14.817 13.2603V10.251H13.3765V13.2603C13.3765 13.6574 13.6996 13.9805 14.0967 13.9805Z" fill="#071245"/>
<path d="M2.3286 13.9087C2.53823 13.9087 2.70902 13.7381 2.70902 13.5283V12.8838H1.948V13.5283C1.94819 13.7381 2.11897 13.9087 2.32861 13.9087H2.3286Z" fill="#071245"/>
<path d="M8.58632 13.9806C8.66941 13.9806 8.74826 13.9449 8.80288 13.8822C8.85769 13.8197 8.8825 13.7364 8.87173 13.6541L8.71421 12.4941H8.13339L8.3009 13.7316C8.32033 13.8735 8.44303 13.9806 8.58631 13.9806L8.58632 13.9806Z" fill="#071245"/>
<path d="M10.1703 9.37654C10.236 9.30923 10.237 9.2048 10.1724 9.13903C10.1716 9.13826 10.171 9.13749 10.1701 9.13672H9.9264L8.92728 10.1422L8.92747 10.1424C9.02132 10.2153 9.09037 10.3143 9.12518 10.4276L10.1703 9.37654Z" fill="#071245"/>
<path d="M12.9826 0.616716C12.3344 0.616716 11.8075 1.18887 11.8075 1.892C11.8075 2.41763 12.0983 2.88265 12.5485 3.07668C12.5972 3.0988 12.6437 3.11553 12.6924 3.13034C12.7843 3.15476 12.882 3.16746 12.9808 3.16746C13.0797 3.16746 13.1795 3.15496 13.2755 3.12938C13.3205 3.11553 13.367 3.0988 13.4134 3.07764C13.414 3.07745 13.4145 3.07764 13.4151 3.07726C13.8671 2.88185 14.1577 2.41722 14.1577 1.89198C14.1579 1.18886 13.6307 0.616699 12.9826 0.616699L12.9826 0.616716Z" fill="#071245"/>
<path d="M13.3454 3.35175C13.3437 3.35233 13.3423 3.3531 13.3406 3.35348C13.2802 3.36964 13.2208 3.38137 13.1609 3.38906C12.9807 3.4131 12.8013 3.40099 12.6276 3.35445C12.6242 3.35348 12.6211 3.35252 12.6178 3.35156V3.5685H13.3454L13.3454 3.35175Z" fill="#071245"/>
<path d="M8.5686 12.2607C8.76151 12.2607 8.91844 12.1037 8.91844 11.9108V10.6874C8.91844 10.6863 8.91748 10.6855 8.91748 10.6844V10.6003C8.91748 10.4557 8.83036 10.328 8.69554 10.2751C8.69535 10.2751 8.69535 10.2749 8.69535 10.2749C8.65342 10.2586 8.61188 10.2505 8.5688 10.2505H7.43083C7.38737 10.2505 7.34563 10.2586 7.30333 10.2751C7.16832 10.328 7.081 10.4555 7.081 10.6001L7.08081 11.911C7.08081 12.1039 7.23775 12.2608 7.43065 12.2608H8.00029L8.5686 12.2607Z" fill="#071245"/>
<path d="M6.87295 10.4277C6.87353 10.4258 6.87487 10.4243 6.87564 10.4224C6.89257 10.3693 6.9168 10.3193 6.94776 10.2737C6.95026 10.27 6.95315 10.2668 6.95584 10.2633C6.98738 10.2191 7.02469 10.1791 7.06777 10.145C7.06892 10.1441 7.0695 10.1429 7.07065 10.1419L6.07153 9.13647H5.82786C5.82671 9.13744 5.82574 9.13859 5.82459 9.13955C5.76266 9.20436 5.7642 9.30937 5.82997 9.37669L6.87295 10.4277Z" fill="#071245"/>
<path d="M8.83105 9.01133C8.83105 9.56675 8.4591 10.0168 8.00041 10.0168C7.54172 10.0168 7.16977 9.56677 7.16977 9.01133C7.16977 8.45611 7.54172 8.00586 8.00041 8.00586C8.4591 8.00586 8.83105 8.45609 8.83105 9.01133Z" fill="#071245"/>
<path d="M7.41358 13.9806C7.55705 13.9806 7.67956 13.8737 7.69879 13.7316L7.8667 12.4941H7.28587L7.12855 13.6542C7.1174 13.7365 7.1424 13.8196 7.19683 13.8821C7.25145 13.9446 7.33049 13.9806 7.41357 13.9806L7.41358 13.9806Z" fill="#071245"/>
<path d="M0.487721 4.92772L0.000183105 8.90323H0.876808L1.11606 5.60721C1.12087 5.54297 1.17645 5.49489 1.24088 5.49931C1.30512 5.50393 1.35339 5.55971 1.34877 5.62394L1.10164 9.02828C1.10164 9.02847 1.10145 9.02866 1.10145 9.02885L1.09914 9.07347H4.93793L4.93562 9.02885C4.93562 9.02866 4.93543 9.02847 4.93543 9.02828L4.6881 5.62394C4.68348 5.5597 4.73176 5.50393 4.79599 5.49931C4.86023 5.49508 4.916 5.54278 4.92081 5.60721L5.16026 8.90323H6.03708L5.55165 4.92791C5.49973 4.51365 5.24875 4.14843 4.88024 3.9509C4.69753 3.8532 4.48925 3.80146 4.2777 3.80146H3.61436C3.6134 3.81685 3.60936 3.83127 3.60725 3.84627C3.60475 3.86397 3.60282 3.88185 3.59879 3.89897C3.59398 3.91955 3.58705 3.93917 3.58013 3.95898C3.57436 3.97533 3.56936 3.99187 3.56244 4.00764C3.55378 4.02687 3.54301 4.04456 3.53243 4.06264C3.52397 4.07706 3.51628 4.09207 3.50666 4.10572C3.49454 4.12303 3.48031 4.13861 3.46647 4.15438C3.4557 4.16669 3.44569 4.17976 3.43396 4.19111C3.41858 4.20611 3.40108 4.219 3.38415 4.23227C3.37146 4.24208 3.35992 4.25285 3.34646 4.26169C3.32761 4.2742 3.30703 4.28381 3.28684 4.29401C3.27338 4.30093 3.26068 4.30901 3.24664 4.31497C3.22318 4.32478 3.19818 4.33112 3.17337 4.33785C3.16086 4.34112 3.14933 4.34632 3.13663 4.34882C3.09836 4.35651 3.05913 4.36074 3.01855 4.36074C2.97816 4.36074 2.93873 4.35651 2.90066 4.34882C2.88796 4.34632 2.87623 4.34112 2.86373 4.33785C2.83892 4.33112 2.81392 4.32478 2.79065 4.31516C2.77661 4.30939 2.76391 4.30112 2.75045 4.2942C2.73026 4.284 2.70968 4.2742 2.69083 4.26189C2.67737 4.25304 2.66564 4.24227 2.65314 4.23227C2.63621 4.219 2.6189 4.20631 2.60352 4.1913C2.59179 4.17976 2.58179 4.16688 2.57101 4.15438C2.55717 4.13842 2.54293 4.12303 2.53082 4.10572C2.5212 4.09207 2.51351 4.07706 2.50505 4.06245C2.49447 4.04437 2.4837 4.02668 2.47524 4.00744C2.46812 3.99167 2.46312 3.97513 2.45754 3.95879C2.45062 3.93898 2.4437 3.91936 2.43889 3.89878C2.43485 3.88147 2.43293 3.86377 2.43043 3.84608C2.42831 3.83108 2.42427 3.81666 2.42331 3.80127H1.75997C1.54822 3.80127 1.33994 3.85301 1.15743 3.95071C0.787597 4.1488 0.537567 4.514 0.487742 4.92772L0.487721 4.92772Z" fill="#071245"/>
</svg>
