<svg width="360" height="800" viewBox="0 0 360 800" fill="none" xmlns="http://www.w3.org/2000/svg">
<g clip-path="url(#clip0_15_1240)">
<rect width="360" height="800" fill="url(#paint0_linear_15_1240)"/>
<path opacity="0.08" fill-rule="evenodd" clip-rule="evenodd" d="M425.361 94.0414C428.505 76.836 423.36 64.9023 409.3 56.7847C397.833 50.1643 392.82 51.0565 375.287 62.8391C363.94 70.4649 361.205 71.5628 356.515 70.3749C349.142 68.5075 346.612 71.0463 348.01 78.9111C350.125 90.8082 336.607 106.15 318.319 112.604C309.033 115.881 289.294 115.628 283.273 112.154C281.556 111.165 272.742 109.679 263.685 108.854C254.629 108.029 247.173 106.518 247.115 105.495C247.059 104.471 243.339 99.5143 238.85 94.4783C234.362 89.4424 230.94 84.4529 231.246 83.3898C231.553 82.3252 234.76 72.9602 238.372 62.5769C241.983 52.1937 245.371 39.2034 245.9 33.7115C247.089 21.3969 245.266 -10.908 242.324 -29.7131C239.329 -48.8588 235.93 -55.8026 226.914 -61.1853C220.648 -64.929 218.661 -65.2288 211.717 -63.4857C203.385 -61.3945 195.589 -54.8388 190.077 -45.2924C187.477 -40.7875 186.421 -40.2635 182.478 -41.519C175.009 -43.8931 173.586 -44.0428 172.723 -42.5481C171.907 -41.1347 178.828 -9.58621 187.039 22.7089C193.139 46.7066 195.494 50.5123 209.562 59.1413C222.744 67.2269 222.943 67.8545 216.185 79.9671C212.643 86.3138 212.366 89.4109 213.826 106.485C214.734 117.118 215.066 126.53 214.563 127.402C214.06 128.273 190.842 146.97 162.969 168.951C86.6831 229.107 78.4839 236.244 69.0755 250.669C64.7095 257.364 60.219 265.735 59.0952 269.27L57.0526 275.699L91.4739 252.48C110.404 239.711 144.976 216.35 168.3 200.567C191.623 184.784 212.598 170.917 214.912 169.749C219.023 167.676 219.287 169.342 226.273 241.313C235.237 333.661 237.879 354.313 240.551 352.925C244.111 351.075 253.708 332.976 256.496 322.855C259.668 311.346 259.374 296.381 254.345 212.771L250.539 149.488L262.331 141.899C271.486 136.008 275.706 134.394 281.209 134.679C292.696 135.276 310.991 131.47 326.149 125.333L340.299 119.603L350.422 126.619C362.338 134.878 370.47 136.07 387.036 131.98C407.531 126.92 421.961 112.635 425.361 94.0414ZM396.012 118.997C389.497 123.964 373.206 128.001 367.273 126.116C364.466 125.225 360.657 122.169 357.75 118.474C348.931 107.263 353.682 90.9422 368.653 81.0282C373.192 78.0225 379.633 75.303 382.967 74.9846C396.052 73.7355 408.724 83.3622 408.998 94.7603C409.178 102.304 403.151 113.553 396.012 118.997ZM239.04 324.24C238.046 322.392 232.367 262.327 228.893 216.921C227.641 200.557 227.1 188.068 227.691 189.168C228.284 190.268 231.136 218.905 234.028 252.806C236.922 286.708 239.53 316.801 239.826 319.682C240.439 325.678 240.288 326.557 239.04 324.24ZM232.317 146.172C228.466 145.802 227.411 144.96 226.241 141.332C223.818 133.808 229.734 128.556 236.337 132.368C243.441 136.469 240.388 146.95 232.317 146.172ZM141.152 213.181C94.051 246.474 75.9037 258.778 76.8974 256.75C77.8048 254.898 177.149 184.453 186.144 179.284C196.999 173.045 182.785 183.754 141.152 213.181ZM219.137 50.9493C216.581 50.8143 212.787 49.7315 210.703 48.544C204.463 44.9908 196.133 30.5851 193.899 19.4862C189.625 -1.73022 192.093 -31.7117 199.113 -43.8705C205.727 -55.3271 218.035 -59.761 224.267 -52.9339C228.053 -48.7868 234.064 13.6566 232.901 36.7486C232.57 43.3408 231.905 44.8849 228.15 47.8045C225.748 49.6704 221.693 51.0867 219.137 50.9493Z" fill="white"/>
<path opacity="0.2" fill-rule="evenodd" clip-rule="evenodd" d="M0.976647 708.27C0.198562 709.209 0.538412 710.539 2.28837 713.393C5.29359 718.297 5.2975 721.156 2.30201 726.03C-0.759688 731.012 -0.766506 734.095 2.27669 738.229C5.37638 742.44 5.35593 746.05 2.20171 751.444C0.820831 753.805 -0.0303001 756.189 0.311512 756.742C0.714675 757.396 11.5942 757.747 31.5489 757.747H62.1669V770.965C62.1669 783.717 62.2516 784.27 64.5693 786.592L66.9717 789L180.54 788.743L294.109 788.488L295.97 786.184C297.597 784.172 297.832 782.224 297.832 770.813V757.747H328.508C358.409 757.747 359.183 757.698 359.183 755.818C359.183 754.758 358.309 752.453 357.239 750.695C354.668 746.468 354.823 742.499 357.748 737.741C360.757 732.845 360.753 731.329 357.722 726.518C354.688 721.701 354.685 718.33 357.711 713.393C359.461 710.539 359.801 709.209 359.023 708.27C358.19 707.264 349.559 707 317.645 707C274.742 707 272.056 707.265 269.669 711.733C269.065 712.866 268.618 719.325 268.618 726.942V740.181H180H91.3816V727.557C91.3816 720.615 90.9463 713.786 90.4136 712.384C88.4611 707.237 86.343 707 42.3544 707C10.4403 707 1.80927 707.264 0.976647 708.27ZM16.3971 712.31C16.3971 715.149 14.579 716.582 13.3822 714.688C11.8601 712.281 12.3879 709.928 14.4495 709.928C15.8654 709.928 16.3971 710.579 16.3971 712.31ZM26.93 712.536C26.4821 716.335 24.1877 716.67 24.1877 712.936C24.1877 710.856 24.6581 709.928 25.7128 709.928C26.7947 709.928 27.1491 710.688 26.93 712.536ZM37.6421 712.398C37.4726 713.756 36.8961 714.868 36.3605 714.868C35.8249 714.868 35.2484 713.756 35.079 712.398C34.8589 710.637 35.227 709.928 36.3605 709.928C37.4941 709.928 37.8622 710.637 37.6421 712.398ZM48.5333 722.207C48.5333 731.598 48.247 734.393 47.3161 734.083C46.4523 733.795 46.0199 730.233 45.8251 721.802C45.5924 711.673 45.7706 709.928 47.0424 709.928C48.3016 709.928 48.5333 711.833 48.5333 722.207ZM60.2046 711.636C60.1822 714.114 58.6621 716.14 57.4068 715.362C56.8108 714.994 56.3239 713.621 56.3239 712.31C56.3239 710.579 56.8556 709.928 58.2716 709.928C59.483 709.928 60.2134 710.574 60.2046 711.636ZM70.9313 712.31C70.9313 715.149 69.1131 716.582 67.9163 714.688C66.3942 712.281 66.9221 709.928 68.9836 709.928C70.3996 709.928 70.9313 710.579 70.9313 712.31ZM81.4642 712.536C81.0162 716.335 78.7219 716.67 78.7219 712.936C78.7219 710.856 79.1922 709.928 80.2469 709.928C81.3288 709.928 81.6833 710.688 81.4642 712.536ZM281.098 712.398C280.929 713.756 280.352 714.868 279.817 714.868C279.281 714.868 278.704 713.756 278.535 712.398C278.315 710.637 278.683 709.928 279.817 709.928C280.95 709.928 281.318 710.637 281.098 712.398ZM291.989 712.936C291.989 716.67 289.695 716.335 289.247 712.536C289.028 710.688 289.382 709.928 290.464 709.928C291.519 709.928 291.989 710.856 291.989 712.936ZM303.496 712.611C303.313 714.209 302.597 715.295 301.728 715.295C300.858 715.295 300.142 714.209 299.959 712.611C299.708 710.426 300.036 709.928 301.728 709.928C303.419 709.928 303.747 710.426 303.496 712.611ZM314.387 721.581C314.387 732.89 313.448 736.516 311.372 733.23C310.383 731.666 310.178 711.544 311.142 710.579C311.498 710.22 312.374 709.928 313.089 709.928C314.098 709.928 314.387 712.521 314.387 721.581ZM324.92 712.536C324.472 716.335 322.178 716.67 322.178 712.936C322.178 710.856 322.648 709.928 323.703 709.928C324.785 709.928 325.139 710.688 324.92 712.536ZM335.632 712.398C335.463 713.756 334.886 714.868 334.351 714.868C333.815 714.868 333.239 713.756 333.069 712.398C332.849 710.637 333.217 709.928 334.351 709.928C335.484 709.928 335.852 710.637 335.632 712.398ZM346.523 712.936C346.523 716.67 344.229 716.335 343.781 712.536C343.562 710.688 343.917 709.928 344.998 709.928C346.053 709.928 346.523 710.856 346.523 712.936ZM89.4339 731.012V740.387L77.6623 740.038C66.1625 739.698 65.8372 739.626 63.5419 736.953C60.7383 733.687 60.6253 732.316 62.9255 729.469C64.318 727.747 66.2569 727.146 72.7952 726.414C77.2709 725.911 82.736 724.669 84.9398 723.652C87.1435 722.635 89.0571 721.766 89.1905 721.72C89.3239 721.676 89.4339 725.856 89.4339 731.012ZM282.974 725.671C286.593 726.205 290.982 726.854 292.727 727.113C297.013 727.751 299.524 731.482 297.969 734.904C296.229 738.727 291.375 740.181 280.335 740.181H270.565V730.985V721.788L273.479 723.245C275.082 724.046 279.355 725.138 282.974 725.671ZM77.5659 744.328C77.3984 746.073 76.8229 747.5 76.2873 747.5C75.7517 747.5 75.1762 746.073 75.0087 744.328C74.7769 741.925 75.0866 741.157 76.2873 741.157C77.488 741.157 77.7977 741.925 77.5659 744.328ZM88.278 744.328C87.9664 747.575 86.2846 748.366 85.6993 745.542C85.2621 743.43 86.2048 741.157 87.5175 741.157C88.1339 741.157 88.4543 742.495 88.278 744.328ZM99.9357 752.807C100.202 763.427 99.3582 767.363 97.1145 765.974C96.1076 765.35 95.9264 742.782 96.9207 741.787C98.9073 739.796 99.6795 742.619 99.9357 752.807ZM110.371 744.572C110.371 746.093 109.839 747.514 109.19 747.732C107.829 748.186 106.45 743.754 107.447 742.136C108.615 740.243 110.371 741.706 110.371 744.572ZM121.388 744.328C121.221 746.073 120.645 747.5 120.109 747.5C119.574 747.5 118.998 746.073 118.831 744.328C118.599 741.925 118.909 741.157 120.109 741.157C121.31 741.157 121.62 741.925 121.388 744.328ZM132.1 744.328C131.933 746.073 131.357 747.5 130.821 747.5C130.286 747.5 129.71 746.073 129.543 744.328C129.311 741.925 129.621 741.157 130.821 741.157C132.022 741.157 132.332 741.925 132.1 744.328ZM142.812 744.328C142.645 746.073 142.069 747.5 141.534 747.5C140.998 747.5 140.422 746.073 140.255 744.328C140.023 741.925 140.333 741.157 141.534 741.157C142.734 741.157 143.044 741.925 142.812 744.328ZM154.47 752.807C154.737 763.427 153.892 767.363 151.649 765.974C150.642 765.35 150.461 742.782 151.455 741.787C153.441 739.796 154.214 742.619 154.47 752.807ZM164.905 744.409C164.905 745.841 164.515 747.122 164.038 747.256C162.644 747.648 161.129 744.502 161.829 742.672C162.777 740.197 164.905 741.4 164.905 744.409ZM175.922 744.328C175.755 746.073 175.179 747.5 174.644 747.5C174.108 747.5 173.532 746.073 173.365 744.328C173.133 741.925 173.443 741.157 174.644 741.157C175.844 741.157 176.154 741.925 175.922 744.328ZM186.634 744.328C186.467 746.073 185.891 747.5 185.356 747.5C184.82 747.5 184.244 746.073 184.077 744.328C183.845 741.925 184.155 741.157 185.356 741.157C186.556 741.157 186.866 741.925 186.634 744.328ZM197.346 744.328C197.179 746.073 196.603 747.5 196.068 747.5C195.532 747.5 194.957 746.073 194.789 744.328C194.557 741.925 194.867 741.157 196.068 741.157C197.268 741.157 197.578 741.925 197.346 744.328ZM209.004 752.807C209.271 763.427 208.426 767.363 206.183 765.974C205.176 765.35 204.995 742.782 205.989 741.787C207.976 739.796 208.748 742.619 209.004 752.807ZM219.439 744.409C219.439 745.841 219.049 747.122 218.572 747.256C217.178 747.648 215.663 744.502 216.363 742.672C217.311 740.197 219.439 741.4 219.439 744.409ZM230.456 744.328C230.289 746.073 229.713 747.5 229.178 747.5C228.642 747.5 228.067 746.073 227.899 744.328C227.667 741.925 227.977 741.157 229.178 741.157C230.378 741.157 230.688 741.925 230.456 744.328ZM241.168 744.328C241.001 746.073 240.425 747.5 239.89 747.5C239.354 747.5 238.779 746.073 238.611 744.328C238.379 741.925 238.689 741.157 239.89 741.157C241.09 741.157 241.4 741.925 241.168 744.328ZM251.88 744.328C251.713 746.073 251.137 747.5 250.602 747.5C250.066 747.5 249.491 746.073 249.323 744.328C249.091 741.925 249.401 741.157 250.602 741.157C251.803 741.157 252.112 741.925 251.88 744.328ZM263.538 752.807C263.805 763.427 262.961 767.363 260.717 765.974C259.71 765.35 259.529 742.782 260.523 741.787C262.51 739.796 263.282 742.619 263.538 752.807ZM274.3 743.49C274.856 746.365 273.663 748.373 272.148 747.113C271.094 746.237 270.706 743.174 271.414 741.319C271.781 740.363 274.02 742.048 274.3 743.49ZM284.99 744.328C284.823 746.073 284.247 747.5 283.712 747.5C283.176 747.5 282.601 746.073 282.433 744.328C282.201 741.925 282.511 741.157 283.712 741.157C284.913 741.157 285.222 741.925 284.99 744.328Z" fill="white"/>
<path fill-rule="evenodd" clip-rule="evenodd" d="M115.672 316.186C114.126 317.728 116.332 322.15 122.198 329.262L125.578 333.362L123.901 336.911C118.896 347.5 120.498 359.705 127.95 367.768C133.066 373.302 138.725 375.81 147.172 376.286L152.64 376.594L153.872 379.557C155.676 383.898 158.508 386.873 162.881 389.02C166.276 390.686 167.195 390.885 171.521 390.885C175.555 390.885 176.89 390.638 179.531 389.403L182.699 387.921L197.427 401.821C205.528 409.465 212.222 415.877 212.304 416.068C212.571 416.698 206.298 420.155 203.293 421.034C201.28 421.622 198.785 421.819 195.386 421.657C191.233 421.459 189.815 421.122 186.71 419.598C179.039 415.832 173.026 407.451 172.288 399.496C171.774 393.944 170.681 395.524 170.681 401.819C170.681 405.959 170.918 407.248 172.163 409.865C175.238 416.325 181.915 421.878 189.299 424.114C196.904 426.418 206.685 424.856 212.531 420.405L215.006 418.52L218.788 421.982C229.541 431.826 241.322 442.543 242.799 443.826L244.469 445.275L242.715 443.009C240.315 439.908 227.713 426.328 205.635 403.052L187.08 383.491L188.679 380.106C189.558 378.244 190.279 376.115 190.28 375.374L190.282 374.028L196.673 374.273C202.439 374.493 203.467 374.702 207.173 376.405C212.149 378.693 216.861 383.328 219.138 388.176C220.519 391.115 220.677 392.091 220.677 397.683C220.677 403.717 220.612 404.046 218.618 408C216.694 411.819 216.623 412.142 217.527 412.958C218.059 413.438 218.662 413.831 218.867 413.831C219.54 413.831 222.66 407.112 223.524 403.801C225.11 397.73 224.308 390.367 221.454 384.788C219.785 381.526 214.139 375.79 210.827 373.992C206.749 371.779 202.085 370.771 195.917 370.771H190.427L190.056 368.458C189.192 363.07 184.507 357.239 179.019 354.721C175.155 352.948 167.798 352.995 163.863 354.818L161.022 356.134L148.114 342.914C141.016 335.644 135.199 329.49 135.189 329.239C135.156 328.391 141.113 326.074 144.84 325.485C152.649 324.251 160.663 326.974 165.838 332.621C169.361 336.466 171.268 340.075 172.627 345.471L173.647 349.525L174.075 346.275C174.893 340.058 172.867 334.702 167.827 329.756C158.871 320.966 144.53 319.153 134.219 325.508L132.244 326.725L130.157 324.749C124.831 319.707 116.864 314.997 115.672 316.186ZM122.749 321.909C123.572 322.452 125.567 324.13 127.181 325.637C129.605 327.9 129.995 328.522 129.424 329.209C128.865 329.88 128.962 330.271 129.932 331.237C130.922 332.225 131.284 332.309 131.996 331.72C132.726 331.116 133.369 331.548 136.147 334.514C141.44 340.168 142.952 343.579 139.463 341.993C137.724 341.203 126.294 330.264 122.587 325.841C118.903 321.447 118.986 319.426 122.749 321.909ZM132.572 340.045C134.783 342.153 140.784 347.877 145.907 352.764L155.221 361.649L154.063 364.369C153.426 365.864 152.726 368.428 152.507 370.063L152.109 373.038H149.066C139.985 373.038 131.709 368.503 127.354 361.14C123.873 355.253 123.458 346.172 126.375 339.69C127.236 337.777 128.078 336.211 128.246 336.211C128.415 336.211 130.361 337.936 132.572 340.045ZM178.68 356.838C180.273 357.566 182.642 359.266 183.944 360.617C186.307 363.07 188.618 367.981 188.532 370.368C188.507 371.066 187.966 370.127 187.311 368.252C183.374 356.972 168.569 353.572 159.696 361.909C157.589 363.888 156.358 365.965 155.283 369.355C154.603 371.499 154.563 371.53 154.539 369.922C154.525 368.987 155.032 367.082 155.666 365.688C159.912 356.353 169.523 352.658 178.68 356.838ZM173.692 361.82C174.067 362.194 174.374 363.162 174.374 363.973C174.374 365.873 173.406 366.805 171.432 366.805C170.376 366.805 169.547 366.337 168.924 365.389C168.062 364.077 168.062 363.868 168.924 362.556C169.938 361.013 172.488 360.619 173.692 361.82ZM165.283 370.205C165.908 370.828 166.42 371.72 166.42 372.188C166.42 373.33 164.378 375.304 163.198 375.304C161.787 375.304 160.17 373.609 160.17 372.132C160.17 370.838 162.047 369.072 163.421 369.072C163.82 369.072 164.658 369.582 165.283 370.205ZM181.759 370.205C182.384 370.828 182.896 371.72 182.896 372.188C182.896 373.33 180.854 375.304 179.674 375.304C178.264 375.304 176.646 373.609 176.646 372.132C176.646 370.838 178.523 369.072 179.898 369.072C180.297 369.072 181.135 369.582 181.759 370.205ZM173.692 378.25C174.067 378.624 174.374 379.593 174.374 380.403C174.374 382.304 173.406 383.236 171.432 383.236C170.376 383.236 169.547 382.767 168.924 381.82C168.062 380.507 168.062 380.299 168.924 378.987C169.938 377.443 172.488 377.05 173.692 378.25Z" fill="white"/>
<path d="M108.984 477.453V459.734H113.771V477.453H108.984ZM103 460.318V456.144H119.785V460.318H103Z" fill="white"/>
<path d="M131.112 477.453V472.724H130.324V467.587C130.324 466.769 130.129 466.156 129.74 465.748C129.351 465.339 128.728 465.135 127.872 465.135C127.444 465.135 126.879 465.144 126.179 465.164C125.478 465.183 124.758 465.212 124.019 465.251C123.279 465.29 122.608 465.329 122.005 465.368V461.427C122.452 461.388 122.978 461.35 123.581 461.311C124.184 461.272 124.807 461.243 125.449 461.223C126.091 461.204 126.695 461.194 127.259 461.194C128.894 461.194 130.266 461.427 131.375 461.894C132.504 462.362 133.36 463.072 133.944 464.025C134.527 464.959 134.819 466.166 134.819 467.645V477.453H131.112ZM126.004 477.862C124.856 477.862 123.844 477.657 122.968 477.249C122.112 476.84 121.44 476.256 120.954 475.497C120.467 474.719 120.224 473.794 120.224 472.724C120.224 471.557 120.526 470.603 121.129 469.863C121.732 469.105 122.579 468.55 123.669 468.2C124.758 467.83 126.013 467.645 127.434 467.645H130.849V470.243H127.405C126.588 470.243 125.955 470.447 125.508 470.856C125.079 471.245 124.865 471.78 124.865 472.461C124.865 473.104 125.079 473.629 125.508 474.038C125.955 474.427 126.588 474.622 127.405 474.622C127.93 474.622 128.397 474.534 128.806 474.359C129.234 474.164 129.584 473.843 129.857 473.396C130.129 472.948 130.285 472.325 130.324 471.527L131.433 472.695C131.336 473.804 131.063 474.738 130.616 475.497C130.188 476.256 129.584 476.84 128.806 477.249C128.047 477.657 127.113 477.862 126.004 477.862Z" fill="white"/>
<path d="M139.541 477.453V461.457H144.211V477.453H139.541ZM137.41 464.901V461.457H144.211V464.901H137.41ZM141.351 459.88C140.475 459.88 139.823 459.657 139.395 459.209C138.986 458.742 138.782 458.158 138.782 457.457C138.782 456.737 138.986 456.154 139.395 455.706C139.823 455.239 140.475 455.005 141.351 455.005C142.226 455.005 142.869 455.239 143.277 455.706C143.705 456.154 143.919 456.737 143.919 457.457C143.919 458.158 143.705 458.742 143.277 459.209C142.869 459.657 142.226 459.88 141.351 459.88Z" fill="white"/>
<path d="M148.735 477.453V456.144H153.435V477.453H148.735ZM146.838 459.588V456.144H153.435V459.588H146.838Z" fill="white"/>
<path d="M165.533 478.008C164.131 478.008 162.886 477.794 161.796 477.365C160.706 476.918 159.782 476.315 159.023 475.556C158.284 474.797 157.719 473.931 157.33 472.958C156.941 471.965 156.746 470.924 156.746 469.834V469.163C156.746 468.054 156.941 467.003 157.33 466.01C157.739 464.998 158.322 464.113 159.081 463.354C159.86 462.595 160.794 462.001 161.884 461.573C162.973 461.126 164.19 460.902 165.533 460.902C166.914 460.902 168.14 461.126 169.211 461.573C170.3 462.001 171.225 462.595 171.984 463.354C172.743 464.113 173.326 464.998 173.735 466.01C174.144 467.003 174.348 468.054 174.348 469.163V469.834C174.348 470.924 174.153 471.965 173.764 472.958C173.375 473.931 172.801 474.797 172.042 475.556C171.303 476.315 170.388 476.918 169.298 477.365C168.208 477.794 166.953 478.008 165.533 478.008ZM165.533 474.067C166.447 474.067 167.206 473.872 167.809 473.483C168.413 473.094 168.87 472.549 169.181 471.848C169.512 471.148 169.678 470.369 169.678 469.513C169.678 468.599 169.512 467.801 169.181 467.12C168.851 466.419 168.374 465.864 167.751 465.456C167.148 465.047 166.408 464.843 165.533 464.843C164.676 464.843 163.937 465.047 163.314 465.456C162.691 465.864 162.215 466.419 161.884 467.12C161.572 467.801 161.417 468.599 161.417 469.513C161.417 470.369 161.572 471.148 161.884 471.848C162.195 472.549 162.662 473.094 163.285 473.483C163.908 473.872 164.657 474.067 165.533 474.067Z" fill="white"/>
<path d="M177.608 477.453V461.457H181.315V468.316H181.227C181.227 466.059 181.704 464.317 182.658 463.091C183.631 461.865 185.032 461.252 186.861 461.252H187.474V465.281H186.306C185.022 465.281 184.03 465.631 183.329 466.331C182.628 467.013 182.278 468.005 182.278 469.309V477.453H177.608Z" fill="white"/>
<path d="M194.271 477.453L201.306 456.144H209.042L216.339 477.453H211.377L205.48 459.442L206.998 460.055H203.233L204.809 459.442L199.059 477.453H194.271ZM199.613 472.17L201.073 468.2H209.421L210.91 472.17H199.613Z" fill="white"/>
<path d="M218.856 483.291V461.457H222.564V468.375L222.067 468.346C222.145 466.75 222.476 465.407 223.06 464.317C223.644 463.208 224.432 462.381 225.424 461.836C226.417 461.272 227.536 460.99 228.781 460.99C229.89 460.99 230.893 461.194 231.788 461.603C232.702 462.011 233.481 462.585 234.123 463.325C234.785 464.045 235.281 464.901 235.612 465.894C235.962 466.867 236.137 467.937 236.137 469.105V469.776C236.137 470.924 235.972 472.004 235.641 473.016C235.31 474.009 234.824 474.875 234.181 475.614C233.559 476.354 232.79 476.937 231.875 477.365C230.98 477.774 229.949 477.978 228.781 477.978C227.575 477.978 226.485 477.735 225.512 477.249C224.558 476.743 223.79 475.984 223.206 474.972C222.622 473.94 222.301 472.637 222.242 471.06L223.527 472.812V483.291H218.856ZM227.468 474.067C228.265 474.067 228.956 473.872 229.54 473.483C230.143 473.094 230.61 472.549 230.941 471.848C231.272 471.148 231.437 470.34 231.437 469.426C231.437 468.511 231.272 467.713 230.941 467.032C230.61 466.351 230.153 465.825 229.569 465.456C228.985 465.067 228.285 464.872 227.468 464.872C226.767 464.872 226.105 465.037 225.483 465.368C224.86 465.699 224.354 466.176 223.965 466.798C223.595 467.402 223.41 468.141 223.41 469.017V470.097C223.41 470.934 223.605 471.654 223.994 472.257C224.403 472.841 224.918 473.289 225.541 473.6C226.164 473.911 226.806 474.067 227.468 474.067Z" fill="white"/>
<path d="M239.381 483.291V461.457H243.088V468.375L242.592 468.346C242.67 466.75 243.001 465.407 243.584 464.317C244.168 463.208 244.956 462.381 245.949 461.836C246.941 461.272 248.06 460.99 249.306 460.99C250.415 460.99 251.417 461.194 252.312 461.603C253.227 462.011 254.005 462.585 254.648 463.325C255.309 464.045 255.805 464.901 256.136 465.894C256.487 466.867 256.662 467.937 256.662 469.105V469.776C256.662 470.924 256.496 472.004 256.166 473.016C255.835 474.009 255.348 474.875 254.706 475.614C254.083 476.354 253.315 476.937 252.4 477.365C251.505 477.774 250.473 477.978 249.306 477.978C248.099 477.978 247.009 477.735 246.036 477.249C245.083 476.743 244.314 475.984 243.73 474.972C243.147 473.94 242.825 472.637 242.767 471.06L244.051 472.812V483.291H239.381ZM247.992 474.067C248.79 474.067 249.481 473.872 250.065 473.483C250.668 473.094 251.135 472.549 251.466 471.848C251.797 471.148 251.962 470.34 251.962 469.426C251.962 468.511 251.797 467.713 251.466 467.032C251.135 466.351 250.678 465.825 250.094 465.456C249.51 465.067 248.809 464.872 247.992 464.872C247.292 464.872 246.63 465.037 246.007 465.368C245.384 465.699 244.879 466.176 244.489 466.798C244.12 467.402 243.935 468.141 243.935 469.017V470.097C243.935 470.934 244.129 471.654 244.518 472.257C244.927 472.841 245.443 473.289 246.066 473.6C246.688 473.911 247.331 474.067 247.992 474.067Z" fill="white"/>
<path opacity="0.5" fill-rule="evenodd" clip-rule="evenodd" d="M295.659 6H296.524C297.121 6 297.604 6.515 297.604 7.149V15.419C297.604 16.053 297.121 16.568 296.524 16.568H295.659C295.061 16.568 294.578 16.053 294.578 15.419V7.149C294.578 6.515 295.061 6 295.659 6Z" fill="#1F172E"/>
<path fill-rule="evenodd" clip-rule="evenodd" d="M291.335 8.29724H292.2C292.798 8.29724 293.281 8.81124 293.281 9.44624V15.4192C293.281 16.0532 292.798 16.5682 292.2 16.5682H291.335C290.738 16.5682 290.255 16.0532 290.255 15.4192V9.44624C290.255 8.81124 290.738 8.29724 291.335 8.29724Z" fill="#1F172E"/>
<path fill-rule="evenodd" clip-rule="evenodd" d="M287.011 10.5945H287.876C288.473 10.5945 288.956 11.1085 288.956 11.7425V15.4185C288.956 16.0525 288.473 16.5675 287.876 16.5675H287.011C286.413 16.5675 285.93 16.0525 285.93 15.4185V11.7425C285.93 11.1085 286.413 10.5945 287.011 10.5945Z" fill="#1F172E"/>
<path fill-rule="evenodd" clip-rule="evenodd" d="M282.686 11.9729H283.551C284.149 11.9729 284.631 12.4869 284.631 13.1209V15.4189C284.631 16.0529 284.149 16.5679 283.551 16.5679H282.686C282.089 16.5679 281.605 16.0529 281.605 15.4189V13.1209C281.605 12.4869 282.089 11.9729 282.686 11.9729Z" fill="#1F172E"/>
<path fill-rule="evenodd" clip-rule="evenodd" d="M308.257 12.6006C307.261 12.6006 306.43 13.3256 306.2 14.2996L308.354 16.5686L310.348 14.4686C310.18 13.4096 309.311 12.6006 308.257 12.6006Z" fill="#1F172E"/>
<path fill-rule="evenodd" clip-rule="evenodd" d="M308.256 9.39001C306.432 9.39001 304.831 10.387 303.91 11.889L305.239 13.287C305.787 12.108 306.925 11.29 308.256 11.29C309.638 11.29 310.823 12.167 311.344 13.42L312.677 12.016C311.769 10.444 310.131 9.39001 308.256 9.39001Z" fill="#1F172E"/>
<path opacity="0.5" fill-rule="evenodd" clip-rule="evenodd" d="M308.256 6C305.545 6 303.14 7.36 301.605 9.462L302.942 10.869C304.124 9.119 306.061 7.973 308.256 7.973C310.501 7.973 312.481 9.168 313.654 10.986L314.991 9.579C313.461 7.411 311.018 6 308.256 6Z" fill="#1F172E"/>
<path fill-rule="evenodd" clip-rule="evenodd" d="M331.579 14.9996H322.993C322.183 14.9996 321.525 14.3156 321.525 13.4716V9.52763C321.525 8.68463 322.183 7.99963 322.993 7.99963H331.579C332.389 7.99963 333.045 8.68463 333.045 9.52763V13.4716C333.045 14.3156 332.389 14.9996 331.579 14.9996Z" fill="#1F172E"/>
<path opacity="0.5" fill-rule="evenodd" clip-rule="evenodd" d="M339.765 14.4148C339.765 15.2898 339.084 15.9998 338.244 15.9998H322.087C321.247 15.9998 320.565 15.2898 320.565 14.4148V8.58481C320.565 7.70981 321.247 6.99981 322.087 6.99981H338.244C339.084 6.99981 339.765 7.70981 339.765 8.58481V14.4148ZM338.561 6H321.77C320.575 6 319.605 7.01 319.605 8.255V14.745C319.605 15.99 320.575 17 321.77 17H338.561C339.756 17 340.725 15.99 340.725 14.745V8.255C340.725 7.01 339.756 6 338.561 6Z" fill="#1F172E"/>
<path opacity="0.5" fill-rule="evenodd" clip-rule="evenodd" d="M341.445 13.4998V9.49976C342.24 9.49976 342.885 10.1718 342.885 10.9998V11.9998C342.885 12.8288 342.24 13.4998 341.445 13.4998Z" fill="#1F172E"/>
<path d="M17.7535 13.672C17.8335 14.128 18.0175 14.48 18.3055 14.728C18.6015 14.976 18.9975 15.1 19.4935 15.1C20.1575 15.1 20.6455 14.84 20.9575 14.32C21.2775 13.8 21.4295 12.924 21.4135 11.692C21.2455 12.052 20.9655 12.336 20.5735 12.544C20.1815 12.744 19.7455 12.844 19.2655 12.844C18.7295 12.844 18.2495 12.736 17.8255 12.52C17.4095 12.296 17.0815 11.972 16.8415 11.548C16.6015 11.124 16.4815 10.612 16.4815 10.012C16.4815 9.156 16.7295 8.468 17.2255 7.948C17.7215 7.42 18.4255 7.156 19.3375 7.156C20.4575 7.156 21.2415 7.52 21.6895 8.248C22.1455 8.976 22.3735 10.06 22.3735 11.5C22.3735 12.508 22.2815 13.34 22.0975 13.996C21.9215 14.652 21.6175 15.152 21.1855 15.496C20.7615 15.84 20.1775 16.012 19.4335 16.012C18.6175 16.012 17.9815 15.792 17.5255 15.352C17.0695 14.912 16.8095 14.352 16.7455 13.672H17.7535ZM19.4455 11.92C19.9815 11.92 20.4215 11.756 20.7655 11.428C21.1095 11.092 21.2815 10.64 21.2815 10.072C21.2815 9.472 21.1135 8.988 20.7775 8.62C20.4415 8.252 19.9695 8.068 19.3615 8.068C18.8015 8.068 18.3535 8.244 18.0175 8.596C17.6895 8.948 17.5255 9.412 17.5255 9.988C17.5255 10.572 17.6895 11.04 18.0175 11.392C18.3455 11.744 18.8215 11.92 19.4455 11.92ZM24.5064 16.072C24.2984 16.072 24.1224 16 23.9784 15.856C23.8344 15.712 23.7624 15.536 23.7624 15.328C23.7624 15.12 23.8344 14.944 23.9784 14.8C24.1224 14.656 24.2984 14.584 24.5064 14.584C24.7064 14.584 24.8744 14.656 25.0104 14.8C25.1544 14.944 25.2264 15.12 25.2264 15.328C25.2264 15.536 25.1544 15.712 25.0104 15.856C24.8744 16 24.7064 16.072 24.5064 16.072ZM24.5064 10.936C24.2984 10.936 24.1224 10.864 23.9784 10.72C23.8344 10.576 23.7624 10.4 23.7624 10.192C23.7624 9.984 23.8344 9.808 23.9784 9.664C24.1224 9.52 24.2984 9.448 24.5064 9.448C24.7064 9.448 24.8744 9.52 25.0104 9.664C25.1544 9.808 25.2264 9.984 25.2264 10.192C25.2264 10.4 25.1544 10.576 25.0104 10.72C24.8744 10.864 24.7064 10.936 24.5064 10.936ZM26.3395 14.068V13.24L30.5515 7.408H31.8595V13.12H33.0595V14.068H31.8595V16H30.7795V14.068H26.3395ZM30.8275 8.548L27.5995 13.12H30.8275V8.548ZM33.9328 8.32V7.324H36.1888V16H35.0848V8.32H33.9328Z" fill="#1F172E"/>
</g>
<defs>
<linearGradient id="paint0_linear_15_1240" x1="180" y1="0" x2="180" y2="800" gradientUnits="userSpaceOnUse">
<stop stop-color="#FF9D69"/>
<stop offset="1" stop-color="#FF7126"/>
</linearGradient>
<clipPath id="clip0_15_1240">
<rect width="360" height="800" fill="white"/>
</clipPath>
</defs>
</svg>
