<svg width="24" height="24" viewBox="0 0 24 24" fill="none" xmlns="http://www.w3.org/2000/svg">
<path d="M8.448 5C8.29884 5.00061 8.15597 5.05873 8.0509 5.16179C7.94581 5.26472 7.88718 5.40404 7.88768 5.54911V7.51177H3.56474C3.41484 7.51128 3.27083 7.56891 3.16488 7.67197C3.05879 7.77514 2.99953 7.91519 3.00016 8.06097V10.6539H21V8.06097C21.0006 7.91567 20.9417 7.77611 20.8364 7.67319C20.7312 7.57013 20.588 7.51214 20.4386 7.51177H16.1125V5.5491C16.113 5.40405 16.0544 5.26473 15.9493 5.16179C15.8442 5.05873 15.7013 5.00061 15.5522 5L8.448 5ZM9.01258 6.09513H14.9879V7.51174H9.01258V6.09513ZM3 11.7478V18.4552L3.00013 18.4551C3.00063 18.6002 3.06052 18.7391 3.16635 18.8413C3.27232 18.9435 3.41557 19.0006 3.56474 19H20.4387C20.5873 18.9998 20.7297 18.9422 20.8349 18.8402C20.9401 18.7381 20.9995 18.5996 21 18.4551V11.7477L3 11.7478Z" fill="#757575"/>
</svg>
