<svg width="24" height="24" viewBox="0 0 24 24" fill="none" xmlns="http://www.w3.org/2000/svg">
<g clip-path="url(#clip0_10_2698)">
<path d="M12 12.6875C13.4942 12.6875 14.8142 13.045 15.8867 13.5125C16.8767 13.9525 17.5 14.9425 17.5 16.015V17.5H6.5V16.0242C6.5 14.9425 7.12333 13.9525 8.11333 13.5217C9.18583 13.045 10.5058 12.6875 12 12.6875ZM4.66667 12.9167C5.675 12.9167 6.5 12.0917 6.5 11.0833C6.5 10.075 5.675 9.25 4.66667 9.25C3.65833 9.25 2.83333 10.075 2.83333 11.0833C2.83333 12.0917 3.65833 12.9167 4.66667 12.9167ZM5.7025 13.925C5.36333 13.87 5.02417 13.8333 4.66667 13.8333C3.75917 13.8333 2.8975 14.0258 2.11833 14.365C1.44 14.6583 1 15.3183 1 16.0608V17.5H5.125V16.0242C5.125 15.2633 5.33583 14.5483 5.7025 13.925ZM19.3333 12.9167C20.3417 12.9167 21.1667 12.0917 21.1667 11.0833C21.1667 10.075 20.3417 9.25 19.3333 9.25C18.325 9.25 17.5 10.075 17.5 11.0833C17.5 12.0917 18.325 12.9167 19.3333 12.9167ZM23 16.0608C23 15.3183 22.56 14.6583 21.8817 14.365C21.1025 14.0258 20.2408 13.8333 19.3333 13.8333C18.9758 13.8333 18.6367 13.87 18.2975 13.925C18.6642 14.5483 18.875 15.2633 18.875 16.0242V17.5H23V16.0608ZM12 6.5C13.5217 6.5 14.75 7.72833 14.75 9.25C14.75 10.7717 13.5217 12 12 12C10.4783 12 9.25 10.7717 9.25 9.25C9.25 7.72833 10.4783 6.5 12 6.5Z" fill="#757575"/>
</g>
<defs>
<clipPath id="clip0_10_2698">
<rect width="24" height="24" fill="white"/>
</clipPath>
</defs>
</svg>
