<svg width="24" height="24" viewBox="0 0 24 24" fill="none" xmlns="http://www.w3.org/2000/svg">
<path d="M21 11.4481C21 10.7581 20.358 10.2002 19.572 10.2002H14.034C13.242 10.2002 12.606 10.7581 12.606 11.4481V12.5581C12.606 12.798 12.6841 13.014 12.822 13.2061C12.69 13.3981 12.606 13.6141 12.606 13.8541V14.9641C12.606 15.2041 12.6841 15.4201 12.822 15.6122C12.69 15.8041 12.606 16.0201 12.606 16.2602V17.3702C12.606 17.6101 12.6841 17.8261 12.822 18.0182C12.69 18.2101 12.606 18.4261 12.606 18.6662V19.7762C12.606 20.4662 13.248 21.0241 14.034 21.0241H19.572C20.364 21.0241 21 20.4662 21 19.7762V18.6662C21 18.4263 20.922 18.2103 20.784 18.0182C20.9161 17.8262 21 17.6103 21 17.3702V16.2602C21 16.0202 20.922 15.8042 20.784 15.6122C20.9161 15.4202 21 15.2042 21 14.9641V13.8541C21 13.6142 20.922 13.3982 20.784 13.2061C20.9161 13.0142 21 12.7982 21 12.5581V11.4481Z" fill="#707A8C"/>
<path d="M9.97221 12.6H4.42812C3.64214 12.6 3.00012 13.1579 3.00012 13.8479V14.9579C3.00012 15.1978 3.0782 15.4138 3.21613 15.6059C3.08406 15.7978 3.00012 16.0138 3.00012 16.2539V17.3639C3.00012 17.6038 3.0782 17.8198 3.21613 18.0119C3.08406 18.2039 3.00012 18.4199 3.00012 18.66V19.7699C3.00012 20.46 3.64214 21.0179 4.42812 21.0179H9.97221C10.7582 21.0179 11.4002 20.4599 11.4002 19.7699V18.66C11.4002 18.42 11.3221 18.204 11.1842 18.0119C11.3163 17.82 11.4002 17.604 11.4002 17.3639V16.2539C11.4002 16.014 11.3221 15.798 11.1842 15.6059C11.3163 15.414 11.4002 15.198 11.4002 14.9579V13.8479C11.4002 13.1579 10.7582 12.6 9.97221 12.6Z" fill="#707A8C"/>
<path d="M5.39427 9.25204C5.51431 9.37208 5.66428 9.42608 5.82028 9.42608C5.97627 9.42608 6.12624 9.36606 6.24629 9.25204C6.48035 9.01797 6.48035 8.6401 6.24629 8.40605H13.2C13.53 8.40004 13.8001 8.13002 13.8001 7.79999C13.8001 7.46997 13.5301 7.19994 13.2 7.19994L6.09021 7.20009L6.26425 7.02605C6.49831 6.79199 6.49831 6.41411 6.26425 6.18006C6.03019 5.946 5.65231 5.946 5.41827 6.18006L4.29023 7.3081C4.05617 7.54216 4.05617 7.92004 4.29023 8.15408L5.39418 9.25803L5.39427 9.25204Z" fill="#707A8C"/>
<path d="M10.8001 5.40015H17.7538C17.5197 5.64008 17.5197 6.01809 17.7538 6.25217C17.8739 6.37221 18.0238 6.42622 18.1798 6.42622C18.3358 6.42622 18.4858 6.3662 18.6058 6.25217L19.7098 5.14822C19.9439 4.91416 19.9439 4.53629 19.7098 4.30224L18.5818 3.1742C18.3477 2.94014 17.9698 2.94014 17.7358 3.1742C17.5017 3.40827 17.5017 3.78614 17.7358 4.02019L17.9098 4.19424H10.8C10.47 4.19424 10.2 4.46425 10.2 4.79429C10.2 5.12434 10.47 5.39435 10.8 5.39435L10.8001 5.40015Z" fill="#707A8C"/>
</svg>
