<svg width="24" height="24" viewBox="0 0 24 24" fill="none" xmlns="http://www.w3.org/2000/svg">
<path d="M9.01082 8.82139V6.6786C9.01082 6.53649 8.95238 6.40018 8.84823 6.29978C8.74424 6.19924 8.60303 6.14282 8.45581 6.14282H6.79108C5.99792 6.14282 5.26509 6.55118 4.86855 7.21424C4.47204 7.87726 4.47204 8.69415 4.86855 9.35717C5.26505 10.0202 5.99788 10.4286 6.79108 10.4286H8.45593H8.45578C8.60299 10.4286 8.74419 10.3722 8.8482 10.2716C8.95234 10.1712 9.01079 10.0349 9.01079 9.89281V9.35718H6.79108C6.39442 9.35718 6.02807 9.15299 5.82974 8.8214C5.63155 8.48995 5.63155 8.08146 5.82974 7.74998C6.02807 7.41839 6.39442 7.2142 6.79108 7.2142H7.90095V8.82136L9.01082 8.82139Z" fill="#707A8C"/>
<path d="M19 10.9643V17.3929C18.9987 17.8188 18.8228 18.2269 18.5109 18.5279C18.1989 18.8291 17.7763 18.9988 17.3352 19.0001H6.79102C6.20219 19.0001 5.63765 18.7744 5.22139 18.3725C4.80508 17.9706 4.57117 17.4256 4.57117 16.8573V8.28574C4.57117 8.09442 4.67692 7.91752 4.84859 7.82181C5.02026 7.72623 5.23194 7.72623 5.40361 7.82181C5.57528 7.91754 5.68103 8.09443 5.68103 8.28574C5.68191 8.56967 5.79909 8.84172 6.00709 9.04251C6.21509 9.24331 6.49689 9.35642 6.79103 9.35727H17.3352C17.7764 9.35854 18.1989 9.52823 18.5109 9.82941C18.8228 10.1305 18.9987 10.5385 19 10.9644L19 10.9643Z" fill="#707A8C"/>
<path d="M17.8901 4.53578V8.82136H12.3407V4.53578C12.3407 4.39367 12.3991 4.25736 12.5033 4.15695C12.6073 4.05642 12.7485 4 12.8957 4H17.3351C17.4823 4 17.6234 4.05642 17.7275 4.15695C17.8315 4.25735 17.89 4.39366 17.89 4.53578H17.8901Z" fill="#707A8C"/>
<path d="M11.7857 6.14295V8.82153H7.34625V6.14295C7.34625 6.00084 7.4047 5.86453 7.50884 5.76413C7.61284 5.6636 7.75405 5.60718 7.90126 5.60718H11.231C11.3782 5.60718 11.5193 5.6636 11.6234 5.76413C11.7274 5.86453 11.7859 6.00084 11.7859 6.14295H11.7857Z" fill="#707A8C"/>
<path d="M16.7805 14.1787C16.7805 14.7704 16.2836 15.2502 15.6706 15.2502C15.0576 15.2502 14.5607 14.7704 14.5607 14.1787C14.5607 13.587 15.0576 13.1072 15.6706 13.1072C16.2836 13.1072 16.7805 13.587 16.7805 14.1787Z" fill="#707A8C"/>
</svg>
